<?xml version="1.0" encoding="utf-8" standalone="no"?>
<!DOCTYPE svg PUBLIC "-//W3C//DTD SVG 1.1//EN"
  "http://www.w3.org/Graphics/SVG/1.1/DTD/svg11.dtd">
<svg xmlns:xlink="http://www.w3.org/1999/xlink" width="539.223437pt" height="356.964375pt" viewBox="0 0 539.223437 356.964375" xmlns="http://www.w3.org/2000/svg" version="1.1">
 <metadata>
  <rdf:RDF xmlns:dc="http://purl.org/dc/elements/1.1/" xmlns:cc="http://creativecommons.org/ns#" xmlns:rdf="http://www.w3.org/1999/02/22-rdf-syntax-ns#">
   <cc:Work>
    <dc:type rdf:resource="http://purl.org/dc/dcmitype/StillImage"/>
    <dc:date>2023-02-08T10:20:24.997117</dc:date>
    <dc:format>image/svg+xml</dc:format>
    <dc:creator>
     <cc:Agent>
      <dc:title>Matplotlib v3.5.2, https://matplotlib.org/</dc:title>
     </cc:Agent>
    </dc:creator>
   </cc:Work>
  </rdf:RDF>
 </metadata>
 <defs>
  <style type="text/css">*{stroke-linejoin: round; stroke-linecap: butt}</style>
 </defs>
 <g id="figure_1">
  <g id="patch_1">
   <path d="M 0 356.964375 
L 539.223437 356.964375 
L 539.223437 0 
L 0 0 
z
" style="fill: #ffffff"/>
  </g>
  <g id="axes_1">
   <g id="patch_2">
    <path d="M 78.423438 291.6 
L 524.823437 291.6 
L 524.823437 14.4 
L 78.423438 14.4 
z
" style="fill: #ffffff"/>
   </g>
   <g id="matplotlib.axis_1">
    <g id="xtick_1">
     <g id="line2d_1">
      <defs>
       <path id="m3a0e63d563" d="M 0 0 
L 0 3.5 
" style="stroke: #000000; stroke-width: 0.8"/>
      </defs>
      <g>
       <use xlink:href="#m3a0e63d563" x="98.714347" y="291.6" style="stroke: #000000; stroke-width: 0.8"/>
      </g>
     </g>
     <g id="text_1">
      <!-- 0 -->
      <g transform="translate(93.214347 313.87625)scale(0.22 -0.22)">
       <defs>
        <path id="TimesNewRomanPSMT-30" d="M 231 2094 
Q 231 2819 450 3342 
Q 669 3866 1031 4122 
Q 1313 4325 1613 4325 
Q 2100 4325 2488 3828 
Q 2972 3213 2972 2159 
Q 2972 1422 2759 906 
Q 2547 391 2217 158 
Q 1888 -75 1581 -75 
Q 975 -75 572 641 
Q 231 1244 231 2094 
z
M 844 2016 
Q 844 1141 1059 588 
Q 1238 122 1591 122 
Q 1759 122 1940 273 
Q 2122 425 2216 781 
Q 2359 1319 2359 2297 
Q 2359 3022 2209 3506 
Q 2097 3866 1919 4016 
Q 1791 4119 1609 4119 
Q 1397 4119 1231 3928 
Q 1006 3669 925 3112 
Q 844 2556 844 2016 
z
" transform="scale(0.015625)"/>
       </defs>
       <use xlink:href="#TimesNewRomanPSMT-30"/>
      </g>
     </g>
    </g>
    <g id="xtick_2">
     <g id="line2d_2">
      <g>
       <use xlink:href="#m3a0e63d563" x="180.040636" y="291.6" style="stroke: #000000; stroke-width: 0.8"/>
      </g>
     </g>
     <g id="text_2">
      <!-- 100 -->
      <g transform="translate(163.540636 313.87625)scale(0.22 -0.22)">
       <defs>
        <path id="TimesNewRomanPSMT-31" d="M 750 3822 
L 1781 4325 
L 1884 4325 
L 1884 747 
Q 1884 391 1914 303 
Q 1944 216 2037 169 
Q 2131 122 2419 116 
L 2419 0 
L 825 0 
L 825 116 
Q 1125 122 1212 167 
Q 1300 213 1334 289 
Q 1369 366 1369 747 
L 1369 3034 
Q 1369 3497 1338 3628 
Q 1316 3728 1258 3775 
Q 1200 3822 1119 3822 
Q 1003 3822 797 3725 
L 750 3822 
z
" transform="scale(0.015625)"/>
       </defs>
       <use xlink:href="#TimesNewRomanPSMT-31"/>
       <use xlink:href="#TimesNewRomanPSMT-30" x="50"/>
       <use xlink:href="#TimesNewRomanPSMT-30" x="100"/>
      </g>
     </g>
    </g>
    <g id="xtick_3">
     <g id="line2d_3">
      <g>
       <use xlink:href="#m3a0e63d563" x="261.366924" y="291.6" style="stroke: #000000; stroke-width: 0.8"/>
      </g>
     </g>
     <g id="text_3">
      <!-- 200 -->
      <g transform="translate(244.866924 313.87625)scale(0.22 -0.22)">
       <defs>
        <path id="TimesNewRomanPSMT-32" d="M 2934 816 
L 2638 0 
L 138 0 
L 138 116 
Q 1241 1122 1691 1759 
Q 2141 2397 2141 2925 
Q 2141 3328 1894 3587 
Q 1647 3847 1303 3847 
Q 991 3847 742 3664 
Q 494 3481 375 3128 
L 259 3128 
Q 338 3706 661 4015 
Q 984 4325 1469 4325 
Q 1984 4325 2329 3994 
Q 2675 3663 2675 3213 
Q 2675 2891 2525 2569 
Q 2294 2063 1775 1497 
Q 997 647 803 472 
L 1909 472 
Q 2247 472 2383 497 
Q 2519 522 2628 598 
Q 2738 675 2819 816 
L 2934 816 
z
" transform="scale(0.015625)"/>
       </defs>
       <use xlink:href="#TimesNewRomanPSMT-32"/>
       <use xlink:href="#TimesNewRomanPSMT-30" x="50"/>
       <use xlink:href="#TimesNewRomanPSMT-30" x="100"/>
      </g>
     </g>
    </g>
    <g id="xtick_4">
     <g id="line2d_4">
      <g>
       <use xlink:href="#m3a0e63d563" x="342.693213" y="291.6" style="stroke: #000000; stroke-width: 0.8"/>
      </g>
     </g>
     <g id="text_4">
      <!-- 300 -->
      <g transform="translate(326.193213 313.87625)scale(0.22 -0.22)">
       <defs>
        <path id="TimesNewRomanPSMT-33" d="M 325 3431 
Q 506 3859 782 4092 
Q 1059 4325 1472 4325 
Q 1981 4325 2253 3994 
Q 2459 3747 2459 3466 
Q 2459 3003 1878 2509 
Q 2269 2356 2469 2072 
Q 2669 1788 2669 1403 
Q 2669 853 2319 450 
Q 1863 -75 997 -75 
Q 569 -75 414 31 
Q 259 138 259 259 
Q 259 350 332 419 
Q 406 488 509 488 
Q 588 488 669 463 
Q 722 447 909 348 
Q 1097 250 1169 231 
Q 1284 197 1416 197 
Q 1734 197 1970 444 
Q 2206 691 2206 1028 
Q 2206 1275 2097 1509 
Q 2016 1684 1919 1775 
Q 1784 1900 1550 2001 
Q 1316 2103 1072 2103 
L 972 2103 
L 972 2197 
Q 1219 2228 1467 2375 
Q 1716 2522 1828 2728 
Q 1941 2934 1941 3181 
Q 1941 3503 1739 3701 
Q 1538 3900 1238 3900 
Q 753 3900 428 3381 
L 325 3431 
z
" transform="scale(0.015625)"/>
       </defs>
       <use xlink:href="#TimesNewRomanPSMT-33"/>
       <use xlink:href="#TimesNewRomanPSMT-30" x="50"/>
       <use xlink:href="#TimesNewRomanPSMT-30" x="100"/>
      </g>
     </g>
    </g>
    <g id="xtick_5">
     <g id="line2d_5">
      <g>
       <use xlink:href="#m3a0e63d563" x="424.019502" y="291.6" style="stroke: #000000; stroke-width: 0.8"/>
      </g>
     </g>
     <g id="text_5">
      <!-- 400 -->
      <g transform="translate(407.519502 313.87625)scale(0.22 -0.22)">
       <defs>
        <path id="TimesNewRomanPSMT-34" d="M 2978 1563 
L 2978 1119 
L 2409 1119 
L 2409 0 
L 1894 0 
L 1894 1119 
L 100 1119 
L 100 1519 
L 2066 4325 
L 2409 4325 
L 2409 1563 
L 2978 1563 
z
M 1894 1563 
L 1894 3666 
L 406 1563 
L 1894 1563 
z
" transform="scale(0.015625)"/>
       </defs>
       <use xlink:href="#TimesNewRomanPSMT-34"/>
       <use xlink:href="#TimesNewRomanPSMT-30" x="50"/>
       <use xlink:href="#TimesNewRomanPSMT-30" x="100"/>
      </g>
     </g>
    </g>
    <g id="xtick_6">
     <g id="line2d_6">
      <g>
       <use xlink:href="#m3a0e63d563" x="505.345791" y="291.6" style="stroke: #000000; stroke-width: 0.8"/>
      </g>
     </g>
     <g id="text_6">
      <!-- 500 -->
      <g transform="translate(488.845791 313.87625)scale(0.22 -0.22)">
       <defs>
        <path id="TimesNewRomanPSMT-35" d="M 2778 4238 
L 2534 3706 
L 1259 3706 
L 981 3138 
Q 1809 3016 2294 2522 
Q 2709 2097 2709 1522 
Q 2709 1188 2573 903 
Q 2438 619 2231 419 
Q 2025 219 1772 97 
Q 1413 -75 1034 -75 
Q 653 -75 479 54 
Q 306 184 306 341 
Q 306 428 378 495 
Q 450 563 559 563 
Q 641 563 702 538 
Q 763 513 909 409 
Q 1144 247 1384 247 
Q 1750 247 2026 523 
Q 2303 800 2303 1197 
Q 2303 1581 2056 1914 
Q 1809 2247 1375 2428 
Q 1034 2569 447 2591 
L 1259 4238 
L 2778 4238 
z
" transform="scale(0.015625)"/>
       </defs>
       <use xlink:href="#TimesNewRomanPSMT-35"/>
       <use xlink:href="#TimesNewRomanPSMT-30" x="50"/>
       <use xlink:href="#TimesNewRomanPSMT-30" x="100"/>
      </g>
     </g>
    </g>
    <g id="text_7">
     <!-- Roads -->
     <g transform="translate(274.121719 337.858438)scale(0.22 -0.22)">
      <defs>
       <path id="TimesNewRomanPSMT-52" d="M 4325 0 
L 3194 0 
L 1759 1981 
Q 1600 1975 1500 1975 
Q 1459 1975 1412 1976 
Q 1366 1978 1316 1981 
L 1316 750 
Q 1316 350 1403 253 
Q 1522 116 1759 116 
L 1925 116 
L 1925 0 
L 109 0 
L 109 116 
L 269 116 
Q 538 116 653 291 
Q 719 388 719 750 
L 719 3488 
Q 719 3888 631 3984 
Q 509 4122 269 4122 
L 109 4122 
L 109 4238 
L 1653 4238 
Q 2328 4238 2648 4139 
Q 2969 4041 3192 3777 
Q 3416 3513 3416 3147 
Q 3416 2756 3161 2468 
Q 2906 2181 2372 2063 
L 3247 847 
Q 3547 428 3762 290 
Q 3978 153 4325 116 
L 4325 0 
z
M 1316 2178 
Q 1375 2178 1419 2176 
Q 1463 2175 1491 2175 
Q 2097 2175 2405 2437 
Q 2713 2700 2713 3106 
Q 2713 3503 2464 3751 
Q 2216 4000 1806 4000 
Q 1625 4000 1316 3941 
L 1316 2178 
z
" transform="scale(0.015625)"/>
       <path id="TimesNewRomanPSMT-6f" d="M 1600 2947 
Q 2250 2947 2644 2453 
Q 2978 2031 2978 1484 
Q 2978 1100 2793 706 
Q 2609 313 2286 112 
Q 1963 -88 1566 -88 
Q 919 -88 538 428 
Q 216 863 216 1403 
Q 216 1797 411 2186 
Q 606 2575 925 2761 
Q 1244 2947 1600 2947 
z
M 1503 2744 
Q 1338 2744 1170 2645 
Q 1003 2547 900 2300 
Q 797 2053 797 1666 
Q 797 1041 1045 587 
Q 1294 134 1700 134 
Q 2003 134 2200 384 
Q 2397 634 2397 1244 
Q 2397 2006 2069 2444 
Q 1847 2744 1503 2744 
z
" transform="scale(0.015625)"/>
       <path id="TimesNewRomanPSMT-61" d="M 1822 413 
Q 1381 72 1269 19 
Q 1100 -59 909 -59 
Q 613 -59 420 144 
Q 228 347 228 678 
Q 228 888 322 1041 
Q 450 1253 767 1440 
Q 1084 1628 1822 1897 
L 1822 2009 
Q 1822 2438 1686 2597 
Q 1550 2756 1291 2756 
Q 1094 2756 978 2650 
Q 859 2544 859 2406 
L 866 2225 
Q 866 2081 792 2003 
Q 719 1925 600 1925 
Q 484 1925 411 2006 
Q 338 2088 338 2228 
Q 338 2497 613 2722 
Q 888 2947 1384 2947 
Q 1766 2947 2009 2819 
Q 2194 2722 2281 2516 
Q 2338 2381 2338 1966 
L 2338 994 
Q 2338 584 2353 492 
Q 2369 400 2405 369 
Q 2441 338 2488 338 
Q 2538 338 2575 359 
Q 2641 400 2828 588 
L 2828 413 
Q 2478 -56 2159 -56 
Q 2006 -56 1915 50 
Q 1825 156 1822 413 
z
M 1822 616 
L 1822 1706 
Q 1350 1519 1213 1441 
Q 966 1303 859 1153 
Q 753 1003 753 825 
Q 753 600 887 451 
Q 1022 303 1197 303 
Q 1434 303 1822 616 
z
" transform="scale(0.015625)"/>
       <path id="TimesNewRomanPSMT-64" d="M 2222 322 
Q 2013 103 1813 7 
Q 1613 -88 1381 -88 
Q 913 -88 563 304 
Q 213 697 213 1313 
Q 213 1928 600 2439 
Q 988 2950 1597 2950 
Q 1975 2950 2222 2709 
L 2222 3238 
Q 2222 3728 2198 3840 
Q 2175 3953 2125 3993 
Q 2075 4034 2000 4034 
Q 1919 4034 1784 3984 
L 1744 4094 
L 2597 4444 
L 2738 4444 
L 2738 1134 
Q 2738 631 2761 520 
Q 2784 409 2836 365 
Q 2888 322 2956 322 
Q 3041 322 3181 375 
L 3216 266 
L 2366 -88 
L 2222 -88 
L 2222 322 
z
M 2222 541 
L 2222 2016 
Q 2203 2228 2109 2403 
Q 2016 2578 1861 2667 
Q 1706 2756 1559 2756 
Q 1284 2756 1069 2509 
Q 784 2184 784 1559 
Q 784 928 1059 592 
Q 1334 256 1672 256 
Q 1956 256 2222 541 
z
" transform="scale(0.015625)"/>
       <path id="TimesNewRomanPSMT-73" d="M 2050 2947 
L 2050 1972 
L 1947 1972 
Q 1828 2431 1642 2597 
Q 1456 2763 1169 2763 
Q 950 2763 815 2647 
Q 681 2531 681 2391 
Q 681 2216 781 2091 
Q 878 1963 1175 1819 
L 1631 1597 
Q 2266 1288 2266 781 
Q 2266 391 1970 151 
Q 1675 -88 1309 -88 
Q 1047 -88 709 6 
Q 606 38 541 38 
Q 469 38 428 -44 
L 325 -44 
L 325 978 
L 428 978 
Q 516 541 762 319 
Q 1009 97 1316 97 
Q 1531 97 1667 223 
Q 1803 350 1803 528 
Q 1803 744 1651 891 
Q 1500 1038 1047 1263 
Q 594 1488 453 1669 
Q 313 1847 313 2119 
Q 313 2472 555 2709 
Q 797 2947 1181 2947 
Q 1350 2947 1591 2875 
Q 1750 2828 1803 2828 
Q 1853 2828 1881 2850 
Q 1909 2872 1947 2947 
L 2050 2947 
z
" transform="scale(0.015625)"/>
      </defs>
      <use xlink:href="#TimesNewRomanPSMT-52"/>
      <use xlink:href="#TimesNewRomanPSMT-6f" x="66.699219"/>
      <use xlink:href="#TimesNewRomanPSMT-61" x="116.699219"/>
      <use xlink:href="#TimesNewRomanPSMT-64" x="161.083984"/>
      <use xlink:href="#TimesNewRomanPSMT-73" x="211.083984"/>
     </g>
    </g>
   </g>
   <g id="matplotlib.axis_2">
    <g id="ytick_1">
     <g id="line2d_7">
      <defs>
       <path id="ma64ef02349" d="M 0 0 
L -3.5 0 
" style="stroke: #000000; stroke-width: 0.8"/>
      </defs>
      <g>
       <use xlink:href="#ma64ef02349" x="78.423438" y="290.134603" style="stroke: #000000; stroke-width: 0.8"/>
      </g>
     </g>
     <g id="text_8">
      <!-- 0 -->
      <g transform="translate(60.423438 297.772728)scale(0.22 -0.22)">
       <use xlink:href="#TimesNewRomanPSMT-30"/>
      </g>
     </g>
    </g>
    <g id="ytick_2">
     <g id="line2d_8">
      <g>
       <use xlink:href="#ma64ef02349" x="78.423438" y="224.148321" style="stroke: #000000; stroke-width: 0.8"/>
      </g>
     </g>
     <g id="text_9">
      <!-- 50 -->
      <g transform="translate(49.423438 231.786446)scale(0.22 -0.22)">
       <use xlink:href="#TimesNewRomanPSMT-35"/>
       <use xlink:href="#TimesNewRomanPSMT-30" x="50"/>
      </g>
     </g>
    </g>
    <g id="ytick_3">
     <g id="line2d_9">
      <g>
       <use xlink:href="#ma64ef02349" x="78.423438" y="158.162038" style="stroke: #000000; stroke-width: 0.8"/>
      </g>
     </g>
     <g id="text_10">
      <!-- 100 -->
      <g transform="translate(38.423438 165.800163)scale(0.22 -0.22)">
       <use xlink:href="#TimesNewRomanPSMT-31"/>
       <use xlink:href="#TimesNewRomanPSMT-30" x="50"/>
       <use xlink:href="#TimesNewRomanPSMT-30" x="100"/>
      </g>
     </g>
    </g>
    <g id="ytick_4">
     <g id="line2d_10">
      <g>
       <use xlink:href="#ma64ef02349" x="78.423438" y="92.175756" style="stroke: #000000; stroke-width: 0.8"/>
      </g>
     </g>
     <g id="text_11">
      <!-- 150 -->
      <g transform="translate(38.423438 99.813881)scale(0.22 -0.22)">
       <use xlink:href="#TimesNewRomanPSMT-31"/>
       <use xlink:href="#TimesNewRomanPSMT-35" x="50"/>
       <use xlink:href="#TimesNewRomanPSMT-30" x="100"/>
      </g>
     </g>
    </g>
    <g id="ytick_5">
     <g id="line2d_11">
      <g>
       <use xlink:href="#ma64ef02349" x="78.423438" y="26.189474" style="stroke: #000000; stroke-width: 0.8"/>
      </g>
     </g>
     <g id="text_12">
      <!-- 200 -->
      <g transform="translate(38.423438 33.827599)scale(0.22 -0.22)">
       <use xlink:href="#TimesNewRomanPSMT-32"/>
       <use xlink:href="#TimesNewRomanPSMT-30" x="50"/>
       <use xlink:href="#TimesNewRomanPSMT-30" x="100"/>
      </g>
     </g>
    </g>
    <g id="text_13">
     <!-- Density (veh/km) -->
     <g transform="translate(29.67625 230.290469)rotate(-90)scale(0.22 -0.22)">
      <defs>
       <path id="TimesNewRomanPSMT-44" d="M 109 0 
L 109 116 
L 269 116 
Q 538 116 650 288 
Q 719 391 719 750 
L 719 3488 
Q 719 3884 631 3984 
Q 509 4122 269 4122 
L 109 4122 
L 109 4238 
L 1834 4238 
Q 2784 4238 3279 4022 
Q 3775 3806 4076 3303 
Q 4378 2800 4378 2141 
Q 4378 1256 3841 663 
Q 3238 0 2003 0 
L 109 0 
z
M 1319 306 
Q 1716 219 1984 219 
Q 2709 219 3187 728 
Q 3666 1238 3666 2109 
Q 3666 2988 3187 3494 
Q 2709 4000 1959 4000 
Q 1678 4000 1319 3909 
L 1319 306 
z
" transform="scale(0.015625)"/>
       <path id="TimesNewRomanPSMT-65" d="M 681 1784 
Q 678 1147 991 784 
Q 1303 422 1725 422 
Q 2006 422 2214 576 
Q 2422 731 2563 1106 
L 2659 1044 
Q 2594 616 2278 264 
Q 1963 -88 1488 -88 
Q 972 -88 605 314 
Q 238 716 238 1394 
Q 238 2128 614 2539 
Q 991 2950 1559 2950 
Q 2041 2950 2350 2633 
Q 2659 2316 2659 1784 
L 681 1784 
z
M 681 1966 
L 2006 1966 
Q 1991 2241 1941 2353 
Q 1863 2528 1708 2628 
Q 1553 2728 1384 2728 
Q 1125 2728 920 2526 
Q 716 2325 681 1966 
z
" transform="scale(0.015625)"/>
       <path id="TimesNewRomanPSMT-6e" d="M 1034 2341 
Q 1538 2947 1994 2947 
Q 2228 2947 2397 2830 
Q 2566 2713 2666 2444 
Q 2734 2256 2734 1869 
L 2734 647 
Q 2734 375 2778 278 
Q 2813 200 2889 156 
Q 2966 113 3172 113 
L 3172 0 
L 1756 0 
L 1756 113 
L 1816 113 
Q 2016 113 2095 173 
Q 2175 234 2206 353 
Q 2219 400 2219 647 
L 2219 1819 
Q 2219 2209 2117 2386 
Q 2016 2563 1775 2563 
Q 1403 2563 1034 2156 
L 1034 647 
Q 1034 356 1069 288 
Q 1113 197 1189 155 
Q 1266 113 1500 113 
L 1500 0 
L 84 0 
L 84 113 
L 147 113 
Q 366 113 442 223 
Q 519 334 519 647 
L 519 1709 
Q 519 2225 495 2337 
Q 472 2450 423 2490 
Q 375 2531 294 2531 
Q 206 2531 84 2484 
L 38 2597 
L 900 2947 
L 1034 2947 
L 1034 2341 
z
" transform="scale(0.015625)"/>
       <path id="TimesNewRomanPSMT-69" d="M 928 4444 
Q 1059 4444 1151 4351 
Q 1244 4259 1244 4128 
Q 1244 3997 1151 3903 
Q 1059 3809 928 3809 
Q 797 3809 703 3903 
Q 609 3997 609 4128 
Q 609 4259 701 4351 
Q 794 4444 928 4444 
z
M 1188 2947 
L 1188 647 
Q 1188 378 1227 289 
Q 1266 200 1342 156 
Q 1419 113 1622 113 
L 1622 0 
L 231 0 
L 231 113 
Q 441 113 512 153 
Q 584 194 626 287 
Q 669 381 669 647 
L 669 1750 
Q 669 2216 641 2353 
Q 619 2453 572 2492 
Q 525 2531 444 2531 
Q 356 2531 231 2484 
L 188 2597 
L 1050 2947 
L 1188 2947 
z
" transform="scale(0.015625)"/>
       <path id="TimesNewRomanPSMT-74" d="M 1031 3803 
L 1031 2863 
L 1700 2863 
L 1700 2644 
L 1031 2644 
L 1031 788 
Q 1031 509 1111 412 
Q 1191 316 1316 316 
Q 1419 316 1516 380 
Q 1613 444 1666 569 
L 1788 569 
Q 1678 263 1478 108 
Q 1278 -47 1066 -47 
Q 922 -47 784 33 
Q 647 113 581 261 
Q 516 409 516 719 
L 516 2644 
L 63 2644 
L 63 2747 
Q 234 2816 414 2980 
Q 594 3144 734 3369 
Q 806 3488 934 3803 
L 1031 3803 
z
" transform="scale(0.015625)"/>
       <path id="TimesNewRomanPSMT-79" d="M 38 2863 
L 1372 2863 
L 1372 2747 
L 1306 2747 
Q 1166 2747 1095 2686 
Q 1025 2625 1025 2534 
Q 1025 2413 1128 2197 
L 1825 753 
L 2466 2334 
Q 2519 2463 2519 2588 
Q 2519 2644 2497 2672 
Q 2472 2706 2419 2726 
Q 2366 2747 2231 2747 
L 2231 2863 
L 3163 2863 
L 3163 2747 
Q 3047 2734 2984 2696 
Q 2922 2659 2847 2556 
Q 2819 2513 2741 2316 
L 1575 -541 
Q 1406 -956 1132 -1168 
Q 859 -1381 606 -1381 
Q 422 -1381 303 -1275 
Q 184 -1169 184 -1031 
Q 184 -900 270 -820 
Q 356 -741 506 -741 
Q 609 -741 788 -809 
Q 913 -856 944 -856 
Q 1038 -856 1148 -759 
Q 1259 -663 1372 -384 
L 1575 113 
L 547 2272 
Q 500 2369 397 2513 
Q 319 2622 269 2659 
Q 197 2709 38 2747 
L 38 2863 
z
" transform="scale(0.015625)"/>
       <path id="TimesNewRomanPSMT-20" transform="scale(0.015625)"/>
       <path id="TimesNewRomanPSMT-28" d="M 1988 -1253 
L 1988 -1369 
Q 1516 -1131 1200 -813 
Q 750 -359 506 256 
Q 263 872 263 1534 
Q 263 2503 741 3301 
Q 1219 4100 1988 4444 
L 1988 4313 
Q 1603 4100 1356 3731 
Q 1109 3363 987 2797 
Q 866 2231 866 1616 
Q 866 947 969 400 
Q 1050 -31 1165 -292 
Q 1281 -553 1476 -793 
Q 1672 -1034 1988 -1253 
z
" transform="scale(0.015625)"/>
       <path id="TimesNewRomanPSMT-76" d="M 53 2863 
L 1400 2863 
L 1400 2747 
L 1313 2747 
Q 1191 2747 1127 2687 
Q 1063 2628 1063 2528 
Q 1063 2419 1128 2269 
L 1794 688 
L 2463 2328 
Q 2534 2503 2534 2594 
Q 2534 2638 2509 2666 
Q 2475 2713 2422 2730 
Q 2369 2747 2206 2747 
L 2206 2863 
L 3141 2863 
L 3141 2747 
Q 2978 2734 2916 2681 
Q 2806 2588 2719 2369 
L 1703 -88 
L 1575 -88 
L 553 2328 
Q 484 2497 421 2570 
Q 359 2644 263 2694 
Q 209 2722 53 2747 
L 53 2863 
z
" transform="scale(0.015625)"/>
       <path id="TimesNewRomanPSMT-68" d="M 1041 4444 
L 1041 2350 
Q 1388 2731 1591 2839 
Q 1794 2947 1997 2947 
Q 2241 2947 2416 2812 
Q 2591 2678 2675 2391 
Q 2734 2191 2734 1659 
L 2734 647 
Q 2734 375 2778 275 
Q 2809 200 2884 156 
Q 2959 113 3159 113 
L 3159 0 
L 1753 0 
L 1753 113 
L 1819 113 
Q 2019 113 2097 173 
Q 2175 234 2206 353 
Q 2216 403 2216 647 
L 2216 1659 
Q 2216 2128 2167 2275 
Q 2119 2422 2012 2495 
Q 1906 2569 1756 2569 
Q 1603 2569 1437 2487 
Q 1272 2406 1041 2159 
L 1041 647 
Q 1041 353 1073 281 
Q 1106 209 1195 161 
Q 1284 113 1503 113 
L 1503 0 
L 84 0 
L 84 113 
Q 275 113 384 172 
Q 447 203 484 290 
Q 522 378 522 647 
L 522 3238 
Q 522 3728 498 3840 
Q 475 3953 426 3993 
Q 378 4034 297 4034 
Q 231 4034 84 3984 
L 41 4094 
L 897 4444 
L 1041 4444 
z
" transform="scale(0.015625)"/>
       <path id="TimesNewRomanPSMT-2f" d="M 1794 4444 
L 259 -88 
L 9 -88 
L 1544 4444 
L 1794 4444 
z
" transform="scale(0.015625)"/>
       <path id="TimesNewRomanPSMT-6b" d="M 1047 4444 
L 1047 1594 
L 1775 2259 
Q 2006 2472 2044 2528 
Q 2069 2566 2069 2603 
Q 2069 2666 2017 2711 
Q 1966 2756 1847 2763 
L 1847 2863 
L 3091 2863 
L 3091 2763 
Q 2834 2756 2664 2684 
Q 2494 2613 2291 2428 
L 1556 1750 
L 2291 822 
Q 2597 438 2703 334 
Q 2853 188 2966 144 
Q 3044 113 3238 113 
L 3238 0 
L 1847 0 
L 1847 113 
Q 1966 116 2008 148 
Q 2050 181 2050 241 
Q 2050 313 1925 472 
L 1047 1594 
L 1047 644 
Q 1047 366 1086 278 
Q 1125 191 1197 153 
Q 1269 116 1509 113 
L 1509 0 
L 53 0 
L 53 113 
Q 272 113 381 166 
Q 447 200 481 272 
Q 528 375 528 628 
L 528 3234 
Q 528 3731 506 3842 
Q 484 3953 434 3995 
Q 384 4038 303 4038 
Q 238 4038 106 3984 
L 53 4094 
L 903 4444 
L 1047 4444 
z
" transform="scale(0.015625)"/>
       <path id="TimesNewRomanPSMT-6d" d="M 1050 2338 
Q 1363 2650 1419 2697 
Q 1559 2816 1721 2881 
Q 1884 2947 2044 2947 
Q 2313 2947 2506 2790 
Q 2700 2634 2766 2338 
Q 3088 2713 3309 2830 
Q 3531 2947 3766 2947 
Q 3994 2947 4170 2830 
Q 4347 2713 4450 2447 
Q 4519 2266 4519 1878 
L 4519 647 
Q 4519 378 4559 278 
Q 4591 209 4675 161 
Q 4759 113 4950 113 
L 4950 0 
L 3538 0 
L 3538 113 
L 3597 113 
Q 3781 113 3884 184 
Q 3956 234 3988 344 
Q 4000 397 4000 647 
L 4000 1878 
Q 4000 2228 3916 2372 
Q 3794 2572 3525 2572 
Q 3359 2572 3192 2489 
Q 3025 2406 2788 2181 
L 2781 2147 
L 2788 2013 
L 2788 647 
Q 2788 353 2820 281 
Q 2853 209 2943 161 
Q 3034 113 3253 113 
L 3253 0 
L 1806 0 
L 1806 113 
Q 2044 113 2133 169 
Q 2222 225 2256 338 
Q 2272 391 2272 647 
L 2272 1878 
Q 2272 2228 2169 2381 
Q 2031 2581 1784 2581 
Q 1616 2581 1450 2491 
Q 1191 2353 1050 2181 
L 1050 647 
Q 1050 366 1089 281 
Q 1128 197 1204 155 
Q 1281 113 1516 113 
L 1516 0 
L 100 0 
L 100 113 
Q 297 113 375 155 
Q 453 197 493 289 
Q 534 381 534 647 
L 534 1741 
Q 534 2213 506 2350 
Q 484 2453 437 2492 
Q 391 2531 309 2531 
Q 222 2531 100 2484 
L 53 2597 
L 916 2947 
L 1050 2947 
L 1050 2338 
z
" transform="scale(0.015625)"/>
       <path id="TimesNewRomanPSMT-29" d="M 144 4313 
L 144 4444 
Q 619 4209 934 3891 
Q 1381 3434 1625 2820 
Q 1869 2206 1869 1541 
Q 1869 572 1392 -226 
Q 916 -1025 144 -1369 
L 144 -1253 
Q 528 -1038 776 -670 
Q 1025 -303 1145 264 
Q 1266 831 1266 1447 
Q 1266 2113 1163 2663 
Q 1084 3094 967 3353 
Q 850 3613 656 3853 
Q 463 4094 144 4313 
z
" transform="scale(0.015625)"/>
      </defs>
      <use xlink:href="#TimesNewRomanPSMT-44"/>
      <use xlink:href="#TimesNewRomanPSMT-65" x="72.216797"/>
      <use xlink:href="#TimesNewRomanPSMT-6e" x="116.601562"/>
      <use xlink:href="#TimesNewRomanPSMT-73" x="166.601562"/>
      <use xlink:href="#TimesNewRomanPSMT-69" x="205.517578"/>
      <use xlink:href="#TimesNewRomanPSMT-74" x="233.300781"/>
      <use xlink:href="#TimesNewRomanPSMT-79" x="261.083984"/>
      <use xlink:href="#TimesNewRomanPSMT-20" x="311.083984"/>
      <use xlink:href="#TimesNewRomanPSMT-28" x="336.083984"/>
      <use xlink:href="#TimesNewRomanPSMT-76" x="369.384766"/>
      <use xlink:href="#TimesNewRomanPSMT-65" x="419.384766"/>
      <use xlink:href="#TimesNewRomanPSMT-68" x="463.769531"/>
      <use xlink:href="#TimesNewRomanPSMT-2f" x="513.769531"/>
      <use xlink:href="#TimesNewRomanPSMT-6b" x="541.552734"/>
      <use xlink:href="#TimesNewRomanPSMT-6d" x="591.552734"/>
      <use xlink:href="#TimesNewRomanPSMT-29" x="669.335938"/>
     </g>
    </g>
   </g>
   <g id="line2d_12">
    <path d="M 98.714347 278.093254 
L 100.340872 277.980872 
L 115.792867 277.473683 
L 117.419393 277.351854 
L 119.859182 277.224387 
L 124.738759 276.986387 
L 126.365285 276.885947 
L 140.190754 276.522056 
L 145.883594 276.154916 
L 149.136646 275.991479 
L 152.389697 275.7768 
L 155.642749 275.617522 
L 156.456012 275.460863 
L 159.709063 275.379537 
L 162.962115 275.27365 
L 164.588641 275.164037 
L 165.401904 275.039622 
L 166.215166 275.029996 
L 167.841692 274.83735 
L 170.281481 274.736263 
L 175.161058 274.533387 
L 177.600847 274.425986 
L 182.480424 274.078515 
L 188.986527 273.640371 
L 193.052842 273.275774 
L 194.679368 273.12395 
L 197.932419 273.027707 
L 199.558945 272.882532 
L 201.998734 272.604423 
L 203.625259 272.518561 
L 204.438522 272.468919 
L 205.251785 272.156238 
L 208.504837 271.72646 
L 210.944625 271.551302 
L 215.01094 271.192874 
L 216.637466 270.803744 
L 218.263991 270.385416 
L 220.70378 270.270945 
L 224.770094 269.901823 
L 227.209883 269.789285 
L 228.023146 269.605019 
L 229.649672 269.387425 
L 231.276198 269.035897 
L 232.08946 268.821474 
L 232.902723 268.430422 
L 233.715986 268.213744 
L 235.342512 268.097475 
L 236.155775 267.860933 
L 236.969038 267.793647 
L 237.782301 267.551395 
L 238.595564 267.174676 
L 239.408826 267.1553 
L 241.848615 266.632334 
L 242.661878 266.613698 
L 244.288404 265.946231 
L 245.101667 265.694262 
L 247.541455 265.569749 
L 248.354718 265.248335 
L 249.981244 265.092491 
L 250.794507 264.896407 
L 251.60777 264.578438 
L 253.234296 264.284022 
L 254.047558 264.079619 
L 255.674084 263.976566 
L 257.30061 263.674104 
L 258.113873 263.295611 
L 261.366924 262.719604 
L 262.99345 262.556472 
L 263.806713 262.364872 
L 264.619976 262.00064 
L 265.433239 261.816103 
L 266.246502 261.790012 
L 267.059765 261.503333 
L 268.68629 261.472361 
L 269.499553 260.850205 
L 271.126079 260.772242 
L 271.939342 259.978872 
L 273.565868 259.797575 
L 274.379131 259.58481 
L 276.005656 258.732147 
L 278.445445 258.609739 
L 280.071971 258.253521 
L 280.885234 257.773673 
L 281.698497 257.665326 
L 282.51176 257.101779 
L 283.325022 257.097145 
L 284.138285 256.90919 
L 285.764811 256.386448 
L 286.578074 256.13847 
L 287.391337 255.764349 
L 288.2046 255.73959 
L 289.017863 254.961965 
L 290.644388 254.831739 
L 291.457651 254.220201 
L 292.270914 253.822569 
L 293.89744 253.675497 
L 294.710703 252.854453 
L 295.523966 252.847075 
L 296.337229 252.622512 
L 297.963754 252.555352 
L 298.777017 252.061046 
L 299.59028 252.021555 
L 300.403543 250.518469 
L 301.216806 250.212328 
L 302.843332 250.053667 
L 303.656595 249.942358 
L 304.469858 249.547065 
L 305.283121 249.517425 
L 306.096383 248.590816 
L 306.909646 248.11966 
L 307.722909 247.983934 
L 308.536172 246.690765 
L 309.349435 246.007622 
L 310.975961 245.61449 
L 311.789224 244.329788 
L 312.602487 243.364528 
L 313.415749 243.208825 
L 314.229012 242.604464 
L 315.042275 242.321708 
L 315.855538 241.142988 
L 317.482064 241.024566 
L 318.295327 239.872557 
L 319.10859 239.71128 
L 320.735115 238.347883 
L 322.361641 238.152605 
L 323.174904 236.697777 
L 325.614693 235.940992 
L 326.427956 234.724326 
L 328.867744 232.585573 
L 331.307533 232.082829 
L 332.934059 230.168388 
L 333.747322 230.013617 
L 334.560585 229.072402 
L 335.373847 227.641081 
L 336.18711 226.804394 
L 337.000373 226.333671 
L 337.813636 226.299631 
L 338.626899 225.465286 
L 339.440162 225.345471 
L 340.253425 224.635367 
L 341.066688 224.196942 
L 342.693213 223.99878 
L 343.506476 223.679574 
L 345.133002 220.96995 
L 345.946265 219.428867 
L 346.759528 215.802507 
L 347.572791 215.189407 
L 348.386054 214.958279 
L 349.199317 214.896742 
L 350.012579 212.076615 
L 350.825842 211.783618 
L 351.639105 211.647717 
L 353.265631 210.811851 
L 354.078894 210.53012 
L 354.892157 209.544297 
L 355.70542 209.500738 
L 356.518683 209.252586 
L 358.145208 209.013366 
L 358.958471 208.483324 
L 359.771734 208.095599 
L 360.584997 207.873753 
L 361.39826 207.33236 
L 363.024786 206.967967 
L 363.838049 206.131911 
L 364.651311 205.525717 
L 365.464574 205.420692 
L 366.277837 204.149226 
L 367.0911 202.558827 
L 367.904363 202.371711 
L 368.717626 201.642445 
L 369.530889 200.431699 
L 370.344152 199.763826 
L 371.970677 199.005042 
L 372.78394 198.272085 
L 373.597203 198.173436 
L 375.223729 196.932811 
L 376.850255 196.076045 
L 377.663518 195.544798 
L 378.476781 194.408866 
L 380.103306 194.196983 
L 380.916569 193.787976 
L 381.729832 192.962166 
L 382.543095 192.796086 
L 383.356358 191.644122 
L 384.982884 191.237927 
L 387.422672 189.632521 
L 388.235935 188.693842 
L 389.049198 188.050123 
L 389.862461 187.894639 
L 390.675724 186.066342 
L 391.488987 182.987817 
L 392.30225 182.827904 
L 393.115513 182.820212 
L 393.928775 182.529306 
L 394.742038 182.095183 
L 395.555301 181.983512 
L 396.368564 180.554654 
L 397.181827 179.671092 
L 397.99509 179.456327 
L 398.808353 179.428433 
L 400.434879 179.166167 
L 401.248141 178.862118 
L 402.061404 178.81909 
L 402.874667 178.653675 
L 405.314456 176.6313 
L 406.127719 176.560993 
L 407.754245 173.654325 
L 408.567507 172.965557 
L 409.38077 171.733515 
L 410.194033 171.093594 
L 411.007296 170.047861 
L 412.633822 169.741836 
L 413.447085 168.999293 
L 414.260348 167.96651 
L 415.073611 167.949548 
L 415.886873 167.399175 
L 416.700136 167.154243 
L 417.513399 165.982635 
L 418.326662 165.712311 
L 420.766451 165.318322 
L 421.579714 165.311734 
L 422.392977 165.121773 
L 423.206239 164.216311 
L 424.019502 163.751043 
L 424.832765 163.669107 
L 425.646028 163.359635 
L 426.459291 162.560823 
L 428.085817 162.392535 
L 428.89908 161.963999 
L 430.525605 161.806681 
L 431.338868 161.689845 
L 432.152131 160.131784 
L 432.965394 159.877973 
L 433.778657 159.764365 
L 434.59192 159.270379 
L 435.405183 159.200669 
L 436.218446 158.546863 
L 437.031709 158.512913 
L 437.844971 157.564846 
L 439.471497 157.416325 
L 440.28476 157.216335 
L 441.098023 156.403683 
L 441.911286 156.383885 
L 442.724549 156.134731 
L 445.164337 155.917562 
L 447.604126 155.115483 
L 448.417389 153.734663 
L 450.857178 153.210479 
L 454.923492 152.759692 
L 456.550018 151.957278 
L 457.363281 151.917097 
L 458.176544 151.735234 
L 458.989807 151.711496 
L 459.803069 150.537443 
L 461.429595 149.548155 
L 462.242858 149.382339 
L 463.056121 149.378187 
L 463.869384 148.847465 
L 465.49591 147.363513 
L 466.309173 145.99766 
L 467.122435 145.894988 
L 467.935698 145.462866 
L 468.748961 144.527205 
L 469.562224 142.650186 
L 470.375487 142.280883 
L 472.815276 142.067041 
L 473.628539 141.201808 
L 474.441802 140.145684 
L 475.255064 139.656044 
L 476.88159 138.99409 
L 477.694853 137.146515 
L 478.508116 136.885408 
L 480.947905 135.714134 
L 481.761168 135.345955 
L 482.57443 135.313302 
L 484.200956 131.788273 
L 485.014219 131.160345 
L 485.827482 131.091941 
L 486.640745 130.466627 
L 487.454008 129.565908 
L 489.080534 128.561134 
L 489.893796 126.694992 
L 490.707059 126.212714 
L 491.520322 125.325004 
L 492.333585 123.737673 
L 493.146848 121.728495 
L 493.960111 116.914251 
L 494.773374 115.555018 
L 495.586637 109.6429 
L 496.3999 101.036159 
L 497.213162 90.408291 
L 498.026425 82.075291 
L 498.839688 81.131496 
L 499.652951 72.091208 
L 500.466214 67.280162 
L 501.279477 44.25328 
L 502.09274 43.442865 
L 502.906003 39.296581 
L 503.719266 38.63269 
L 504.532528 27 
L 504.532528 27 
" clip-path="url(#pbebb68b7f3)" style="fill: none; stroke: #1f77b4; stroke-width: 2; stroke-linecap: square"/>
   </g>
   <g id="line2d_13">
    <path d="M 98.714347 276.985265 
L 106.033713 276.767859 
L 111.726553 276.683739 
L 118.232656 276.557573 
L 153.20296 275.367638 
L 173.534532 274.785389 
L 174.347795 274.609932 
L 188.173264 273.931756 
L 201.185471 273.577074 
L 204.438522 273.344108 
L 232.902723 271.41933 
L 234.529249 271.346323 
L 236.155775 270.98188 
L 237.782301 270.843869 
L 239.408826 270.738784 
L 244.288404 270.583585 
L 247.541455 270.200447 
L 248.354718 270.199414 
L 249.167981 269.997274 
L 251.60777 269.953561 
L 253.234296 269.854897 
L 254.860821 269.813778 
L 255.674084 269.39742 
L 256.487347 269.357362 
L 258.113873 268.982314 
L 258.927136 268.706468 
L 262.180187 268.479815 
L 266.246502 267.902701 
L 267.059765 267.727296 
L 271.939342 267.364355 
L 272.752605 266.910168 
L 275.192394 266.767633 
L 276.005656 266.413727 
L 277.632182 266.021109 
L 279.258708 265.707971 
L 280.071971 265.692551 
L 286.578074 264.458779 
L 290.644388 264.366398 
L 292.270914 263.998379 
L 293.89744 263.098257 
L 295.523966 262.854554 
L 296.337229 262.758842 
L 297.150492 262.503097 
L 298.777017 262.400568 
L 300.403543 262.212277 
L 302.030069 261.685824 
L 302.843332 261.332471 
L 303.656595 260.557639 
L 306.096383 259.820871 
L 310.975961 259.226628 
L 313.415749 258.366962 
L 314.229012 257.664953 
L 315.042275 257.654766 
L 315.855538 257.185853 
L 316.668801 257.129388 
L 319.10859 256.193067 
L 319.921853 256.113779 
L 320.735115 255.823556 
L 321.548378 255.741993 
L 322.361641 254.442509 
L 323.988167 254.086297 
L 325.614693 253.228182 
L 327.241219 253.017457 
L 328.054481 252.937023 
L 329.681007 251.279995 
L 330.49427 250.284662 
L 331.307533 250.140094 
L 332.120796 249.746079 
L 332.934059 248.786227 
L 333.747322 248.782605 
L 337.813636 248.217867 
L 338.626899 247.025905 
L 339.440162 246.889159 
L 340.253425 246.526409 
L 341.066688 246.476979 
L 341.879951 246.290271 
L 342.693213 245.75864 
L 344.319739 245.101449 
L 345.946265 243.917049 
L 347.572791 243.772769 
L 350.825842 242.811967 
L 352.452368 242.631691 
L 353.265631 242.127095 
L 354.078894 241.013738 
L 355.70542 240.884225 
L 357.331945 240.840507 
L 358.145208 240.100388 
L 358.958471 240.097694 
L 359.771734 239.875189 
L 360.584997 239.082394 
L 361.39826 238.609214 
L 362.211523 238.43421 
L 363.024786 238.409756 
L 363.838049 237.664914 
L 364.651311 235.956112 
L 365.464574 235.146566 
L 366.277837 234.8635 
L 367.0911 234.406579 
L 368.717626 234.027347 
L 369.530889 233.46418 
L 370.344152 233.39389 
L 371.157415 232.923847 
L 371.970677 231.422523 
L 373.597203 231.340825 
L 374.410466 231.034062 
L 375.223729 230.884054 
L 376.036992 230.190653 
L 376.850255 229.886662 
L 378.476781 228.327532 
L 379.290043 228.017577 
L 380.916569 226.941598 
L 381.729832 225.984417 
L 382.543095 225.904912 
L 384.169621 225.347693 
L 384.982884 224.425893 
L 385.796147 223.815184 
L 387.422672 223.49984 
L 388.235935 222.668428 
L 389.049198 222.41725 
L 390.675724 222.225676 
L 391.488987 221.281177 
L 392.30225 221.220146 
L 393.928775 219.891223 
L 394.742038 219.688566 
L 395.555301 218.153929 
L 396.368564 217.813638 
L 397.181827 216.713976 
L 397.99509 215.895001 
L 398.808353 214.478366 
L 400.434879 213.522509 
L 402.061404 213.236903 
L 402.874667 212.812405 
L 404.501193 212.711834 
L 405.314456 212.285872 
L 407.754245 210.526969 
L 408.567507 208.941465 
L 409.38077 208.75816 
L 411.007296 208.635511 
L 412.633822 208.37404 
L 413.447085 207.480186 
L 414.260348 207.2434 
L 415.073611 207.165383 
L 415.886873 206.942091 
L 416.700136 205.976327 
L 417.513399 205.566201 
L 418.326662 204.814624 
L 419.953188 204.724442 
L 420.766451 204.573222 
L 422.392977 203.700155 
L 423.206239 203.575509 
L 424.019502 203.317394 
L 424.832765 202.293664 
L 425.646028 202.266575 
L 426.459291 200.972259 
L 427.272554 200.951743 
L 428.085817 200.265006 
L 428.89908 200.064179 
L 429.712343 199.674869 
L 430.525605 198.717574 
L 431.338868 198.537915 
L 432.152131 198.51045 
L 434.59192 197.915648 
L 435.405183 197.261575 
L 436.218446 197.061137 
L 437.031709 196.064685 
L 438.658234 195.306245 
L 439.471497 195.020416 
L 440.28476 193.363752 
L 441.098023 193.112847 
L 441.911286 192.50246 
L 442.724549 192.392056 
L 444.351075 191.654476 
L 445.164337 191.303015 
L 445.9776 191.072697 
L 447.604126 189.570074 
L 448.417389 189.472081 
L 449.230652 187.029492 
L 450.043915 186.741499 
L 450.857178 184.063763 
L 451.670441 183.943479 
L 452.483703 183.248207 
L 454.110229 182.769809 
L 454.923492 182.764704 
L 455.736755 181.04225 
L 458.176544 180.178977 
L 458.989807 179.652946 
L 459.803069 178.67263 
L 460.616332 176.837679 
L 461.429595 176.759921 
L 462.242858 175.076818 
L 463.056121 174.534106 
L 463.869384 173.814774 
L 464.682647 173.812396 
L 465.49591 172.533851 
L 466.309173 172.033419 
L 467.122435 171.680061 
L 467.935698 170.217732 
L 468.748961 169.279049 
L 469.562224 169.097755 
L 470.375487 165.016202 
L 471.18875 165.013923 
L 472.815276 164.582328 
L 474.441802 163.692465 
L 475.255064 162.747285 
L 476.068327 161.022874 
L 476.88159 160.545172 
L 477.694853 158.776544 
L 478.508116 157.359343 
L 479.321379 156.759052 
L 480.134642 154.488051 
L 480.947905 152.774258 
L 481.761168 152.348835 
L 482.57443 150.842714 
L 483.387693 150.701041 
L 484.200956 149.492266 
L 485.014219 149.490004 
L 485.827482 148.206006 
L 486.640745 145.69371 
L 487.454008 143.90889 
L 488.267271 142.720712 
L 489.080534 141.310748 
L 489.893796 141.186149 
L 490.707059 140.271667 
L 491.520322 138.025225 
L 492.333585 137.138263 
L 493.146848 136.617026 
L 493.960111 136.487959 
L 494.773374 132.906889 
L 495.586637 130.469068 
L 496.3999 130.038475 
L 497.213162 129.851657 
L 498.026425 127.738684 
L 498.839688 123.147852 
L 499.652951 121.79213 
L 500.466214 120.921083 
L 501.279477 118.789656 
L 502.906003 108.511688 
L 503.719266 107.411046 
L 504.532528 30.302684 
L 504.532528 30.302684 
" clip-path="url(#pbebb68b7f3)" style="fill: none; stroke: #808080; stroke-width: 2; stroke-linecap: square"/>
   </g>
   <g id="line2d_14">
    <path d="M 98.714347 279 
L 105.22045 278.893107 
L 120.672445 278.652455 
L 133.684651 278.512619 
L 136.937702 278.452435 
L 154.016223 278.252228 
L 157.269275 278.157936 
L 167.028429 278.030079 
L 172.72127 277.920064 
L 184.10695 277.785156 
L 186.546739 277.723435 
L 197.119156 277.586476 
L 200.372208 277.529243 
L 210.131362 277.385137 
L 253.234296 276.634157 
L 255.674084 276.501837 
L 262.180187 276.379556 
L 271.939342 276.17175 
L 273.565868 276.082705 
L 281.698497 275.828932 
L 291.457651 275.658757 
L 307.722909 275.335165 
L 313.415749 275.150108 
L 319.921853 274.965217 
L 323.174904 274.87602 
L 323.988167 274.736984 
L 327.241219 274.697269 
L 328.867744 274.5582 
L 331.307533 274.5304 
L 332.934059 274.338325 
L 350.825842 273.827083 
L 351.639105 273.697342 
L 355.70542 273.563507 
L 358.145208 273.451718 
L 363.024786 273.317009 
L 364.651311 273.205733 
L 366.277837 273.173286 
L 367.0911 273.01132 
L 371.157415 272.896347 
L 373.597203 272.78549 
L 375.223729 272.676621 
L 378.476781 272.602427 
L 380.103306 272.450656 
L 384.169621 272.133074 
L 389.049198 271.996401 
L 413.447085 270.71484 
L 414.260348 270.599885 
L 415.073611 270.173335 
L 416.700136 270.011465 
L 418.326662 269.902049 
L 419.953188 269.669507 
L 424.832765 269.158844 
L 426.459291 269.084302 
L 428.085817 269.01431 
L 430.525605 268.82338 
L 432.152131 268.649312 
L 433.778657 268.426954 
L 435.405183 268.273961 
L 437.031709 267.964227 
L 439.471497 267.792505 
L 441.098023 267.662254 
L 441.911286 267.372681 
L 442.724549 267.261069 
L 443.537812 266.963896 
L 445.164337 266.903438 
L 445.9776 266.650685 
L 447.604126 266.475306 
L 448.417389 266.457651 
L 449.230652 266.141483 
L 452.483703 265.988756 
L 454.110229 265.779699 
L 454.923492 265.55513 
L 455.736755 265.004187 
L 457.363281 264.757562 
L 458.176544 264.524046 
L 458.989807 264.425193 
L 459.803069 262.918791 
L 460.616332 262.564898 
L 461.429595 262.53804 
L 462.242858 262.307873 
L 463.056121 262.241519 
L 464.682647 261.648325 
L 466.309173 261.432627 
L 467.122435 261.264317 
L 467.935698 260.838401 
L 468.748961 259.792048 
L 469.562224 259.47515 
L 470.375487 258.494269 
L 471.18875 258.46173 
L 472.002013 257.673311 
L 472.815276 257.223771 
L 473.628539 256.241179 
L 474.441802 256.169814 
L 475.255064 255.958615 
L 476.88159 254.599555 
L 477.694853 253.393441 
L 478.508116 253.205672 
L 479.321379 253.173426 
L 480.134642 252.737878 
L 481.761168 252.610235 
L 482.57443 251.676171 
L 483.387693 250.090285 
L 484.200956 249.630792 
L 485.014219 247.124566 
L 486.640745 245.158023 
L 487.454008 244.765415 
L 488.267271 243.694777 
L 489.080534 236.129373 
L 489.893796 235.240293 
L 490.707059 235.015415 
L 491.520322 226.730922 
L 492.333585 208.087104 
L 493.146848 205.105706 
L 493.960111 184.903756 
L 494.773374 183.173134 
L 495.586637 180.743094 
L 497.213162 160.845339 
L 498.026425 156.479235 
L 498.839688 155.332547 
L 499.652951 149.712065 
L 500.466214 141.961832 
L 502.09274 128.181888 
L 502.906003 120.155462 
L 503.719266 118.030381 
L 504.532528 30.752369 
L 504.532528 30.752369 
" clip-path="url(#pbebb68b7f3)" style="fill: none; stroke: #ff7f0e; stroke-width: 2; stroke-linecap: square"/>
   </g>
   <g id="patch_3">
    <path d="M 78.423438 291.6 
L 78.423438 14.4 
" style="fill: none; stroke: #000000; stroke-width: 0.8; stroke-linejoin: miter; stroke-linecap: square"/>
   </g>
   <g id="patch_4">
    <path d="M 524.823437 291.6 
L 524.823437 14.4 
" style="fill: none; stroke: #000000; stroke-width: 0.8; stroke-linejoin: miter; stroke-linecap: square"/>
   </g>
   <g id="patch_5">
    <path d="M 78.423438 291.6 
L 524.823437 291.6 
" style="fill: none; stroke: #000000; stroke-width: 0.8; stroke-linejoin: miter; stroke-linecap: square"/>
   </g>
   <g id="patch_6">
    <path d="M 78.423438 14.4 
L 524.823437 14.4 
" style="fill: none; stroke: #000000; stroke-width: 0.8; stroke-linejoin: miter; stroke-linecap: square"/>
   </g>
   <g id="legend_1">
    <g id="patch_7">
     <path d="M 93.823438 125.317813 
L 248.517812 125.317813 
Q 252.917812 125.317813 252.917812 120.917812 
L 252.917812 29.8 
Q 252.917812 25.4 248.517812 25.4 
L 93.823438 25.4 
Q 89.423438 25.4 89.423438 29.8 
L 89.423438 120.917812 
Q 89.423438 125.317813 93.823438 125.317813 
z
" style="fill: #ffffff; opacity: 0.8; stroke: #cccccc; stroke-linejoin: miter"/>
    </g>
    <g id="line2d_15">
     <path d="M 98.223438 41.9 
L 120.223438 41.9 
L 142.223437 41.9 
" style="fill: none; stroke: #1f77b4; stroke-width: 2; stroke-linecap: square"/>
    </g>
    <g id="text_14">
     <!-- duarouter -->
     <g transform="translate(159.823438 49.6)scale(0.22 -0.22)">
      <defs>
       <path id="TimesNewRomanPSMT-75" d="M 2709 2863 
L 2709 1128 
Q 2709 631 2732 520 
Q 2756 409 2807 365 
Q 2859 322 2928 322 
Q 3025 322 3147 375 
L 3191 266 
L 2334 -88 
L 2194 -88 
L 2194 519 
Q 1825 119 1631 15 
Q 1438 -88 1222 -88 
Q 981 -88 804 51 
Q 628 191 559 409 
Q 491 628 491 1028 
L 491 2306 
Q 491 2509 447 2587 
Q 403 2666 317 2708 
Q 231 2750 6 2747 
L 6 2863 
L 1009 2863 
L 1009 947 
Q 1009 547 1148 422 
Q 1288 297 1484 297 
Q 1619 297 1789 381 
Q 1959 466 2194 703 
L 2194 2325 
Q 2194 2569 2105 2655 
Q 2016 2741 1734 2747 
L 1734 2863 
L 2709 2863 
z
" transform="scale(0.015625)"/>
       <path id="TimesNewRomanPSMT-72" d="M 1038 2947 
L 1038 2303 
Q 1397 2947 1775 2947 
Q 1947 2947 2059 2842 
Q 2172 2738 2172 2600 
Q 2172 2478 2090 2393 
Q 2009 2309 1897 2309 
Q 1788 2309 1652 2417 
Q 1516 2525 1450 2525 
Q 1394 2525 1328 2463 
Q 1188 2334 1038 2041 
L 1038 669 
Q 1038 431 1097 309 
Q 1138 225 1241 169 
Q 1344 113 1538 113 
L 1538 0 
L 72 0 
L 72 113 
Q 291 113 397 181 
Q 475 231 506 341 
Q 522 394 522 644 
L 522 1753 
Q 522 2253 501 2348 
Q 481 2444 426 2487 
Q 372 2531 291 2531 
Q 194 2531 72 2484 
L 41 2597 
L 906 2947 
L 1038 2947 
z
" transform="scale(0.015625)"/>
      </defs>
      <use xlink:href="#TimesNewRomanPSMT-64"/>
      <use xlink:href="#TimesNewRomanPSMT-75" x="50"/>
      <use xlink:href="#TimesNewRomanPSMT-61" x="100"/>
      <use xlink:href="#TimesNewRomanPSMT-72" x="144.384766"/>
      <use xlink:href="#TimesNewRomanPSMT-6f" x="177.685547"/>
      <use xlink:href="#TimesNewRomanPSMT-75" x="227.685547"/>
      <use xlink:href="#TimesNewRomanPSMT-74" x="277.685547"/>
      <use xlink:href="#TimesNewRomanPSMT-65" x="305.46875"/>
      <use xlink:href="#TimesNewRomanPSMT-72" x="349.853516"/>
     </g>
    </g>
    <g id="line2d_16">
     <path d="M 98.223438 73.005938 
L 120.223438 73.005938 
L 142.223437 73.005938 
" style="fill: none; stroke: #808080; stroke-width: 2; stroke-linecap: square"/>
    </g>
    <g id="text_15">
     <!-- PPP -->
     <g transform="translate(159.823438 80.705938)scale(0.22 -0.22)">
      <defs>
       <path id="TimesNewRomanPSMT-50" d="M 1313 1984 
L 1313 750 
Q 1313 350 1400 253 
Q 1519 116 1759 116 
L 1922 116 
L 1922 0 
L 106 0 
L 106 116 
L 266 116 
Q 534 116 650 291 
Q 713 388 713 750 
L 713 3488 
Q 713 3888 628 3984 
Q 506 4122 266 4122 
L 106 4122 
L 106 4238 
L 1659 4238 
Q 2228 4238 2556 4120 
Q 2884 4003 3109 3725 
Q 3334 3447 3334 3066 
Q 3334 2547 2992 2222 
Q 2650 1897 2025 1897 
Q 1872 1897 1694 1919 
Q 1516 1941 1313 1984 
z
M 1313 2163 
Q 1478 2131 1606 2115 
Q 1734 2100 1825 2100 
Q 2150 2100 2386 2351 
Q 2622 2603 2622 3003 
Q 2622 3278 2509 3514 
Q 2397 3750 2190 3867 
Q 1984 3984 1722 3984 
Q 1563 3984 1313 3925 
L 1313 2163 
z
" transform="scale(0.015625)"/>
      </defs>
      <use xlink:href="#TimesNewRomanPSMT-50"/>
      <use xlink:href="#TimesNewRomanPSMT-50" x="55.615234"/>
      <use xlink:href="#TimesNewRomanPSMT-50" x="111.230469"/>
     </g>
    </g>
    <g id="line2d_17">
     <path d="M 98.223438 104.111875 
L 120.223438 104.111875 
L 142.223437 104.111875 
" style="fill: none; stroke: #ff7f0e; stroke-width: 2; stroke-linecap: square"/>
    </g>
    <g id="text_16">
     <!-- IPP -->
     <g transform="translate(159.823438 111.811875)scale(0.22 -0.22)">
      <defs>
       <path id="TimesNewRomanPSMT-49" d="M 1975 116 
L 1975 0 
L 159 0 
L 159 116 
L 309 116 
Q 572 116 691 269 
Q 766 369 766 750 
L 766 3488 
Q 766 3809 725 3913 
Q 694 3991 597 4047 
Q 459 4122 309 4122 
L 159 4122 
L 159 4238 
L 1975 4238 
L 1975 4122 
L 1822 4122 
Q 1563 4122 1444 3969 
Q 1366 3869 1366 3488 
L 1366 750 
Q 1366 428 1406 325 
Q 1438 247 1538 191 
Q 1672 116 1822 116 
L 1975 116 
z
" transform="scale(0.015625)"/>
      </defs>
      <use xlink:href="#TimesNewRomanPSMT-49"/>
      <use xlink:href="#TimesNewRomanPSMT-50" x="33.300781"/>
      <use xlink:href="#TimesNewRomanPSMT-50" x="88.916016"/>
     </g>
    </g>
   </g>
  </g>
 </g>
 <defs>
  <clipPath id="pbebb68b7f3">
   <rect x="78.423438" y="14.4" width="446.4" height="277.2"/>
  </clipPath>
 </defs>
</svg>
