<?xml version="1.0" encoding="utf-8" standalone="no"?>
<!DOCTYPE svg PUBLIC "-//W3C//DTD SVG 1.1//EN"
  "http://www.w3.org/Graphics/SVG/1.1/DTD/svg11.dtd">
<svg xmlns:xlink="http://www.w3.org/1999/xlink" width="539.223437pt" height="356.964375pt" viewBox="0 0 539.223437 356.964375" xmlns="http://www.w3.org/2000/svg" version="1.1">
 <metadata>
  <rdf:RDF xmlns:dc="http://purl.org/dc/elements/1.1/" xmlns:cc="http://creativecommons.org/ns#" xmlns:rdf="http://www.w3.org/1999/02/22-rdf-syntax-ns#">
   <cc:Work>
    <dc:type rdf:resource="http://purl.org/dc/dcmitype/StillImage"/>
    <dc:date>2023-02-08T10:16:22.927697</dc:date>
    <dc:format>image/svg+xml</dc:format>
    <dc:creator>
     <cc:Agent>
      <dc:title>Matplotlib v3.5.2, https://matplotlib.org/</dc:title>
     </cc:Agent>
    </dc:creator>
   </cc:Work>
  </rdf:RDF>
 </metadata>
 <defs>
  <style type="text/css">*{stroke-linejoin: round; stroke-linecap: butt}</style>
 </defs>
 <g id="figure_1">
  <g id="patch_1">
   <path d="M 0 356.964375 
L 539.223437 356.964375 
L 539.223437 0 
L 0 0 
z
" style="fill: #ffffff"/>
  </g>
  <g id="axes_1">
   <g id="patch_2">
    <path d="M 78.423438 291.6 
L 524.823437 291.6 
L 524.823437 14.4 
L 78.423438 14.4 
z
" style="fill: #ffffff"/>
   </g>
   <g id="PolyCollection_1">
    <defs>
     <path id="m907042d086" d="M 98.714347 -96.614769 
L 98.714347 -77.964375 
L 99.527609 -77.964375 
L 100.340872 -77.964375 
L 101.154135 -77.964375 
L 101.967398 -77.964375 
L 102.780661 -77.964375 
L 103.593924 -77.964375 
L 104.407187 -77.964375 
L 105.22045 -77.964375 
L 106.033713 -77.964375 
L 106.846975 -77.964375 
L 107.660238 -77.964375 
L 108.473501 -77.964375 
L 109.286764 -77.964375 
L 110.100027 -77.964375 
L 110.91329 -77.964375 
L 111.726553 -77.964375 
L 112.539816 -77.964375 
L 113.353079 -77.964375 
L 114.166341 -77.964375 
L 114.979604 -77.964375 
L 115.792867 -77.964375 
L 116.60613 -77.964375 
L 117.419393 -77.964375 
L 118.232656 -77.964375 
L 119.045919 -77.964375 
L 119.859182 -77.964375 
L 120.672445 -77.964375 
L 121.485707 -77.964375 
L 122.29897 -77.964375 
L 123.112233 -77.964375 
L 123.925496 -77.964375 
L 124.738759 -77.964375 
L 125.552022 -77.964375 
L 126.365285 -77.964375 
L 127.178548 -77.964375 
L 127.991811 -77.964375 
L 128.805073 -77.964375 
L 129.618336 -77.964375 
L 130.431599 -77.964375 
L 131.244862 -77.964375 
L 132.058125 -77.964375 
L 132.871388 -77.964375 
L 133.684651 -77.964375 
L 134.497914 -77.964375 
L 135.311177 -77.964375 
L 136.12444 -77.964375 
L 136.937702 -77.964375 
L 137.750965 -77.964375 
L 138.564228 -77.964375 
L 139.377491 -77.964375 
L 140.190754 -77.964375 
L 141.004017 -77.964375 
L 141.81728 -77.964375 
L 142.630543 -77.964375 
L 143.443806 -77.964375 
L 144.257068 -77.964375 
L 145.070331 -77.964375 
L 145.883594 -77.964375 
L 146.696857 -77.964375 
L 147.51012 -77.964375 
L 148.323383 -77.964375 
L 149.136646 -77.964375 
L 149.949909 -77.964375 
L 150.763172 -77.964375 
L 151.576434 -77.964375 
L 152.389697 -77.964375 
L 153.20296 -77.964375 
L 154.016223 -77.964375 
L 154.829486 -77.964375 
L 155.642749 -77.964375 
L 156.456012 -77.964375 
L 157.269275 -77.964375 
L 158.082538 -77.964375 
L 158.8958 -77.964375 
L 159.709063 -77.964375 
L 160.522326 -77.964375 
L 161.335589 -77.964375 
L 162.148852 -77.964375 
L 162.962115 -77.964375 
L 163.775378 -77.964375 
L 164.588641 -77.964375 
L 165.401904 -77.964375 
L 166.215166 -77.964375 
L 167.028429 -77.964375 
L 167.841692 -77.964375 
L 168.654955 -77.964375 
L 169.468218 -77.964375 
L 170.281481 -77.964375 
L 171.094744 -77.964375 
L 171.908007 -77.964375 
L 172.72127 -77.964375 
L 173.534532 -77.964375 
L 174.347795 -77.964375 
L 175.161058 -77.964375 
L 175.974321 -77.964375 
L 176.787584 -77.964375 
L 177.600847 -77.964375 
L 178.41411 -77.964375 
L 179.227373 -77.964375 
L 180.040636 -77.964375 
L 180.853898 -77.964375 
L 181.667161 -77.964375 
L 182.480424 -77.964375 
L 183.293687 -77.964375 
L 184.10695 -77.964375 
L 184.920213 -77.964375 
L 185.733476 -77.964375 
L 186.546739 -77.964375 
L 187.360002 -77.964375 
L 188.173264 -77.964375 
L 188.986527 -77.964375 
L 189.79979 -77.964375 
L 190.613053 -77.964375 
L 191.426316 -77.964375 
L 192.239579 -77.964375 
L 193.052842 -77.964375 
L 193.866105 -77.964375 
L 194.679368 -77.964375 
L 195.49263 -77.964375 
L 196.305893 -77.964375 
L 197.119156 -77.964375 
L 197.932419 -77.964375 
L 198.745682 -77.964375 
L 199.558945 -77.964375 
L 200.372208 -77.964375 
L 201.185471 -77.964375 
L 201.998734 -77.964375 
L 202.811996 -77.964375 
L 203.625259 -77.964375 
L 204.438522 -77.964375 
L 205.251785 -77.964375 
L 206.065048 -77.964375 
L 206.878311 -77.964375 
L 207.691574 -77.964375 
L 208.504837 -77.964375 
L 209.3181 -77.964375 
L 210.131362 -77.964375 
L 210.944625 -77.964375 
L 211.757888 -77.964375 
L 212.571151 -77.964375 
L 213.384414 -77.964375 
L 214.197677 -77.964375 
L 215.01094 -77.964375 
L 215.824203 -77.964375 
L 216.637466 -77.964375 
L 217.450728 -77.964375 
L 218.263991 -77.964375 
L 219.077254 -77.964375 
L 219.890517 -77.964375 
L 220.70378 -77.964375 
L 221.517043 -77.964375 
L 222.330306 -77.964375 
L 223.143569 -77.964375 
L 223.956832 -77.964375 
L 224.770094 -77.964375 
L 225.583357 -77.964375 
L 226.39662 -77.964375 
L 227.209883 -77.964375 
L 228.023146 -77.964375 
L 228.836409 -77.964375 
L 229.649672 -77.964375 
L 230.462935 -77.964375 
L 231.276198 -77.964375 
L 232.08946 -77.964375 
L 232.902723 -77.964375 
L 233.715986 -77.964375 
L 234.529249 -77.964375 
L 235.342512 -77.964375 
L 236.155775 -77.964375 
L 236.969038 -77.964375 
L 237.782301 -77.964375 
L 238.595564 -77.964375 
L 239.408826 -77.964375 
L 240.222089 -77.964375 
L 241.035352 -77.964375 
L 241.848615 -77.964375 
L 242.661878 -77.964375 
L 243.475141 -77.964375 
L 244.288404 -77.964375 
L 245.101667 -77.964375 
L 245.91493 -77.964375 
L 246.728192 -77.964375 
L 247.541455 -77.964375 
L 248.354718 -77.964375 
L 249.167981 -77.964375 
L 249.981244 -77.964375 
L 250.794507 -77.964375 
L 251.60777 -77.964375 
L 252.421033 -77.964375 
L 253.234296 -77.964375 
L 254.047558 -77.964375 
L 254.860821 -77.964375 
L 255.674084 -77.964375 
L 256.487347 -77.964375 
L 257.30061 -77.964375 
L 258.113873 -77.964375 
L 258.927136 -77.964375 
L 259.740399 -77.964375 
L 260.553662 -77.964375 
L 261.366924 -77.964375 
L 262.180187 -77.964375 
L 262.99345 -77.964375 
L 263.806713 -77.964375 
L 264.619976 -77.964375 
L 265.433239 -77.964375 
L 266.246502 -77.964375 
L 267.059765 -77.964375 
L 267.873028 -77.964375 
L 268.68629 -77.964375 
L 269.499553 -77.964375 
L 270.312816 -77.964375 
L 271.126079 -77.964375 
L 271.939342 -77.964375 
L 272.752605 -77.964375 
L 273.565868 -77.964375 
L 274.379131 -77.964375 
L 275.192394 -77.964375 
L 276.005656 -77.964375 
L 276.818919 -77.964375 
L 277.632182 -77.964375 
L 278.445445 -77.964375 
L 279.258708 -77.964375 
L 280.071971 -77.964375 
L 280.885234 -77.964375 
L 281.698497 -77.964375 
L 282.51176 -77.964375 
L 283.325022 -77.964375 
L 284.138285 -77.964375 
L 284.951548 -77.964375 
L 285.764811 -77.964375 
L 286.578074 -77.964375 
L 287.391337 -77.964375 
L 288.2046 -77.964375 
L 289.017863 -77.964375 
L 289.831126 -77.964375 
L 290.644388 -77.964375 
L 291.457651 -77.964375 
L 292.270914 -77.964375 
L 293.084177 -77.964375 
L 293.89744 -77.964375 
L 294.710703 -77.964375 
L 295.523966 -77.964375 
L 296.337229 -77.964375 
L 297.150492 -77.964375 
L 297.963754 -77.964375 
L 298.777017 -77.964375 
L 299.59028 -77.964375 
L 300.403543 -77.964375 
L 301.216806 -77.964375 
L 302.030069 -77.964375 
L 302.843332 -77.964375 
L 303.656595 -77.964375 
L 304.469858 -77.964375 
L 305.283121 -77.964375 
L 306.096383 -77.964375 
L 306.909646 -77.964375 
L 307.722909 -77.964375 
L 308.536172 -77.964375 
L 309.349435 -77.964375 
L 310.162698 -77.964375 
L 310.975961 -77.964375 
L 311.789224 -77.964375 
L 312.602487 -77.964375 
L 313.415749 -77.964375 
L 314.229012 -77.964375 
L 315.042275 -77.964375 
L 315.855538 -77.964375 
L 316.668801 -77.964375 
L 317.482064 -77.964375 
L 318.295327 -77.964375 
L 319.10859 -77.964375 
L 319.921853 -77.964375 
L 320.735115 -77.964375 
L 321.548378 -77.964375 
L 322.361641 -77.964375 
L 323.174904 -77.964375 
L 323.988167 -77.964375 
L 324.80143 -77.964375 
L 325.614693 -77.964375 
L 326.427956 -77.964375 
L 327.241219 -77.964375 
L 328.054481 -77.964375 
L 328.867744 -77.964375 
L 329.681007 -77.964375 
L 330.49427 -77.964375 
L 331.307533 -77.964375 
L 332.120796 -77.964375 
L 332.934059 -77.964375 
L 333.747322 -77.964375 
L 334.560585 -77.964375 
L 335.373847 -77.964375 
L 336.18711 -77.964375 
L 337.000373 -77.964375 
L 337.813636 -77.964375 
L 338.626899 -77.964375 
L 339.440162 -77.964375 
L 340.253425 -77.964375 
L 341.066688 -77.964375 
L 341.879951 -77.964375 
L 342.693213 -77.964375 
L 343.506476 -77.964375 
L 344.319739 -77.964375 
L 345.133002 -77.964375 
L 345.946265 -77.964375 
L 346.759528 -77.964375 
L 347.572791 -77.964375 
L 348.386054 -77.964375 
L 349.199317 -77.964375 
L 350.012579 -77.964375 
L 350.825842 -77.964375 
L 351.639105 -77.964375 
L 352.452368 -77.964375 
L 353.265631 -77.964375 
L 354.078894 -77.964375 
L 354.892157 -77.964375 
L 355.70542 -77.964375 
L 356.518683 -77.964375 
L 357.331945 -77.964375 
L 358.145208 -77.964375 
L 358.958471 -77.964375 
L 359.771734 -77.964375 
L 360.584997 -77.964375 
L 361.39826 -77.964375 
L 362.211523 -77.964375 
L 363.024786 -77.964375 
L 363.838049 -77.964375 
L 364.651311 -77.964375 
L 365.464574 -77.964375 
L 366.277837 -77.964375 
L 367.0911 -77.964375 
L 367.904363 -77.964375 
L 368.717626 -77.964375 
L 369.530889 -77.964375 
L 370.344152 -77.964375 
L 371.157415 -77.964375 
L 371.970677 -77.964375 
L 372.78394 -77.964375 
L 373.597203 -77.964375 
L 374.410466 -77.964375 
L 375.223729 -77.964375 
L 376.036992 -77.964375 
L 376.850255 -77.964375 
L 377.663518 -77.964375 
L 378.476781 -77.964375 
L 379.290043 -77.964375 
L 380.103306 -77.964375 
L 380.916569 -77.964375 
L 381.729832 -77.964375 
L 382.543095 -77.964375 
L 383.356358 -77.964375 
L 384.169621 -77.964375 
L 384.982884 -77.964375 
L 385.796147 -77.964375 
L 386.609409 -77.964375 
L 387.422672 -77.964375 
L 388.235935 -77.964375 
L 389.049198 -77.964375 
L 389.862461 -77.964375 
L 390.675724 -77.964375 
L 391.488987 -77.964375 
L 392.30225 -77.964375 
L 393.115513 -77.964375 
L 393.928775 -77.964375 
L 394.742038 -77.964375 
L 395.555301 -77.964375 
L 396.368564 -77.964375 
L 397.181827 -77.964375 
L 397.99509 -77.964375 
L 398.808353 -77.964375 
L 399.621616 -77.964375 
L 400.434879 -77.964375 
L 401.248141 -77.964375 
L 402.061404 -77.964375 
L 402.874667 -77.964375 
L 403.68793 -77.964375 
L 404.501193 -77.964375 
L 405.314456 -77.964375 
L 406.127719 -77.964375 
L 406.940982 -77.964375 
L 407.754245 -77.964375 
L 408.567507 -77.964375 
L 409.38077 -77.964375 
L 410.194033 -77.964375 
L 411.007296 -77.964375 
L 411.820559 -77.964375 
L 412.633822 -77.964375 
L 413.447085 -77.964375 
L 414.260348 -77.964375 
L 415.073611 -77.964375 
L 415.886873 -77.964375 
L 416.700136 -77.964375 
L 417.513399 -77.964375 
L 418.326662 -77.964375 
L 419.139925 -77.964375 
L 419.953188 -77.964375 
L 420.766451 -77.964375 
L 421.579714 -77.964375 
L 422.392977 -77.964375 
L 423.206239 -77.964375 
L 424.019502 -77.964375 
L 424.832765 -77.964375 
L 425.646028 -77.964375 
L 426.459291 -77.964375 
L 427.272554 -77.964375 
L 428.085817 -77.964375 
L 428.89908 -77.964375 
L 429.712343 -77.964375 
L 430.525605 -77.964375 
L 431.338868 -77.964375 
L 432.152131 -77.964375 
L 432.965394 -77.964375 
L 433.778657 -77.964375 
L 434.59192 -77.964375 
L 435.405183 -77.964375 
L 436.218446 -77.964375 
L 437.031709 -77.964375 
L 437.844971 -77.964375 
L 438.658234 -77.964375 
L 439.471497 -77.964375 
L 440.28476 -77.964375 
L 441.098023 -77.964375 
L 441.911286 -77.964375 
L 442.724549 -77.964375 
L 443.537812 -77.964375 
L 444.351075 -77.964375 
L 445.164337 -77.964375 
L 445.9776 -77.964375 
L 446.790863 -77.964375 
L 447.604126 -77.964375 
L 448.417389 -77.964375 
L 449.230652 -77.964375 
L 450.043915 -77.964375 
L 450.857178 -77.964375 
L 451.670441 -77.964375 
L 452.483703 -77.964375 
L 453.296966 -77.964375 
L 454.110229 -77.964375 
L 454.923492 -77.964375 
L 455.736755 -77.964375 
L 456.550018 -77.964375 
L 457.363281 -77.964375 
L 458.176544 -77.964375 
L 458.989807 -77.964375 
L 459.803069 -77.964375 
L 460.616332 -77.964375 
L 461.429595 -77.964375 
L 462.242858 -77.964375 
L 463.056121 -77.964375 
L 463.869384 -77.964375 
L 464.682647 -77.964375 
L 465.49591 -77.964375 
L 466.309173 -77.964375 
L 467.122435 -77.964375 
L 467.935698 -77.964375 
L 468.748961 -77.964375 
L 469.562224 -77.964375 
L 470.375487 -77.964375 
L 471.18875 -77.964375 
L 472.002013 -77.964375 
L 472.815276 -77.964375 
L 473.628539 -77.964375 
L 474.441802 -77.964375 
L 475.255064 -77.964375 
L 476.068327 -77.964375 
L 476.88159 -77.964375 
L 477.694853 -77.964375 
L 478.508116 -77.964375 
L 479.321379 -77.964375 
L 480.134642 -77.964375 
L 480.947905 -77.964375 
L 481.761168 -77.964375 
L 482.57443 -77.964375 
L 483.387693 -77.964375 
L 484.200956 -77.964375 
L 485.014219 -77.964375 
L 485.827482 -77.964375 
L 486.640745 -77.964375 
L 487.454008 -77.964375 
L 488.267271 -77.964375 
L 489.080534 -77.964375 
L 489.893796 -77.964375 
L 490.707059 -77.964375 
L 491.520322 -77.964375 
L 492.333585 -77.964375 
L 493.146848 -77.964375 
L 493.960111 -77.964375 
L 494.773374 -77.964375 
L 495.586637 -77.964375 
L 496.3999 -77.964375 
L 497.213162 -77.964375 
L 498.026425 -77.964375 
L 498.839688 -77.964375 
L 499.652951 -77.964375 
L 500.466214 -77.964375 
L 501.279477 -77.964375 
L 502.09274 -77.964375 
L 502.906003 -77.964375 
L 503.719266 -77.964375 
L 504.532528 -77.964375 
L 504.532528 -77.964375 
L 504.532528 -77.964375 
L 503.719266 -82.555008 
L 502.906003 -104.568836 
L 502.09274 -143.521039 
L 501.279477 -161.398752 
L 500.466214 -186.185141 
L 499.652951 -207.244481 
L 498.839688 -252.075119 
L 498.026425 -279.982532 
L 497.213162 -279.982532 
L 496.3999 -279.982532 
L 495.586637 -279.982532 
L 494.773374 -278.543224 
L 493.960111 -277.134218 
L 493.146848 -276.861507 
L 492.333585 -276.103977 
L 491.520322 -275.073736 
L 490.707059 -272.801145 
L 489.893796 -273.513224 
L 489.080534 -278.861387 
L 488.267271 -281.043074 
L 487.454008 -279.103797 
L 486.640745 -277.558435 
L 485.827482 -277.134218 
L 485.014219 -282.406628 
L 484.200956 -281.785454 
L 483.387693 -281.724851 
L 482.57443 -277.619037 
L 481.761168 -279.346206 
L 480.947905 -276.255483 
L 480.134642 -275.604007 
L 479.321379 -280.088586 
L 478.508116 -275.331296 
L 477.694853 -278.19476 
L 476.88159 -265.862169 
L 476.068327 -273.604127 
L 475.255064 -273.195061 
L 474.441802 -268.104458 
L 473.628539 -276.558495 
L 472.815276 -268.710482 
L 472.002013 -258.680782 
L 471.18875 -235.454906 
L 470.375487 -229.152255 
L 469.562224 -227.864453 
L 468.748961 -203.684089 
L 467.935698 -200.926679 
L 467.122435 -201.169089 
L 466.309173 -199.760082 
L 465.49591 -196.68451 
L 464.682647 -196.820865 
L 463.869384 -194.351317 
L 463.056121 -195.714871 
L 462.242858 -193.714991 
L 461.429595 -192.002973 
L 460.616332 -192.957461 
L 459.803069 -192.078726 
L 458.989807 -193.396829 
L 458.176544 -190.139449 
L 457.363281 -188.306226 
L 456.550018 -188.503183 
L 455.736755 -188.654689 
L 454.923492 -186.836617 
L 454.110229 -185.685171 
L 453.296966 -184.927641 
L 452.483703 -183.200472 
L 451.670441 -182.321737 
L 450.857178 -183.185321 
L 450.043915 -184.367068 
L 449.230652 -185.563966 
L 448.417389 -186.927521 
L 447.604126 -184.473123 
L 446.790863 -186.442701 
L 445.9776 -182.503544 
L 445.164337 -182.594448 
L 444.351075 -183.730743 
L 443.537812 -184.579177 
L 442.724549 -185.791225 
L 441.911286 -186.139689 
L 441.098023 -186.139689 
L 440.28476 -186.15484 
L 439.471497 -186.791165 
L 438.658234 -187.806256 
L 437.844971 -189.578876 
L 437.031709 -191.139389 
L 436.218446 -191.593907 
L 435.405183 -192.215081 
L 434.59192 -192.987762 
L 433.778657 -193.245323 
L 432.965394 -193.411979 
L 432.152131 -193.790744 
L 431.338868 -195.063395 
L 430.525605 -195.078546 
L 429.712343 -195.260353 
L 428.89908 -195.669419 
L 428.085817 -196.381498 
L 427.272554 -197.472341 
L 426.459291 -197.745052 
L 425.646028 -197.911709 
L 424.832765 -198.138968 
L 424.019502 -198.335926 
L 423.206239 -198.45713 
L 422.392977 -198.654088 
L 421.579714 -198.896498 
L 420.766451 -199.123757 
L 419.953188 -200.290353 
L 419.139925 -200.623667 
L 418.326662 -201.032733 
L 417.513399 -201.45695 
L 416.700136 -202.123577 
L 415.886873 -202.19933 
L 415.073611 -202.381137 
L 414.260348 -202.790203 
L 413.447085 -202.820504 
L 412.633822 -203.153818 
L 411.820559 -203.562884 
L 411.007296 -203.562884 
L 410.194033 -204.684029 
L 409.38077 -204.744631 
L 408.567507 -204.774932 
L 407.754245 -205.062794 
L 406.940982 -205.108246 
L 406.127719 -205.153697 
L 405.314456 -205.411258 
L 404.501193 -205.45671 
L 403.68793 -206.289993 
L 402.874667 -206.365746 
L 402.061404 -206.577854 
L 401.248141 -206.593005 
L 400.434879 -207.22933 
L 399.621616 -207.592945 
L 398.808353 -207.97171 
L 397.99509 -208.032312 
L 397.181827 -208.289873 
L 396.368564 -208.608035 
L 395.555301 -208.880746 
L 394.742038 -209.001951 
L 393.928775 -209.153457 
L 393.115513 -209.244361 
L 392.30225 -209.48677 
L 391.488987 -209.789782 
L 390.675724 -209.98674 
L 389.862461 -210.077644 
L 389.049198 -211.198789 
L 388.235935 -211.365445 
L 387.422672 -211.562403 
L 386.609409 -211.653307 
L 385.796147 -211.819963 
L 384.982884 -212.22903 
L 384.169621 -212.24418 
L 383.356358 -212.653247 
L 382.543095 -212.956259 
L 381.729832 -213.032012 
L 380.916569 -213.259271 
L 380.103306 -213.653186 
L 379.290043 -213.698638 
L 378.476781 -213.880445 
L 377.663518 -213.925897 
L 376.850255 -213.925897 
L 376.036992 -213.941048 
L 375.223729 -214.153156 
L 374.410466 -214.274361 
L 373.597203 -214.319813 
L 372.78394 -214.683427 
L 371.970677 -214.713729 
L 371.157415 -214.804632 
L 370.344152 -215.00159 
L 369.530889 -215.122795 
L 368.717626 -215.380355 
L 367.904363 -215.395506 
L 367.0911 -215.410656 
L 366.277837 -215.456108 
L 365.464574 -215.713669 
L 364.651311 -215.713669 
L 363.838049 -215.804572 
L 363.024786 -215.850024 
L 362.211523 -215.925777 
L 361.39826 -215.940928 
L 360.584997 -216.062132 
L 359.771734 -216.274241 
L 358.958471 -216.456048 
L 358.145208 -216.546952 
L 357.331945 -216.577253 
L 356.518683 -216.668157 
L 355.70542 -216.895416 
L 354.892157 -217.455988 
L 354.078894 -217.940807 
L 353.265631 -218.168066 
L 352.452368 -218.198368 
L 351.639105 -218.471079 
L 350.825842 -218.637735 
L 350.012579 -218.940747 
L 349.199317 -219.198308 
L 348.386054 -219.546771 
L 347.572791 -219.713428 
L 346.759528 -219.925537 
L 345.946265 -220.652766 
L 345.133002 -220.955778 
L 344.319739 -221.061832 
L 343.506476 -221.092133 
L 342.693213 -221.107284 
L 341.879951 -221.152735 
L 341.066688 -221.213338 
L 340.253425 -221.349693 
L 339.440162 -221.561802 
L 338.626899 -221.75876 
L 337.813636 -221.75876 
L 337.000373 -222.27388 
L 336.18711 -222.395085 
L 335.373847 -222.652645 
L 334.560585 -222.667796 
L 333.747322 -222.77385 
L 332.934059 -222.789001 
L 332.120796 -222.819302 
L 331.307533 -222.864754 
L 330.49427 -223.152615 
L 329.681007 -223.152615 
L 328.867744 -223.485929 
L 328.054481 -223.667736 
L 327.241219 -223.743489 
L 326.427956 -223.819242 
L 325.614693 -223.77379 
L 324.80143 -223.834392 
L 323.988167 -223.834392 
L 323.174904 -223.910145 
L 322.361641 -223.834392 
L 321.548378 -223.940447 
L 320.735115 -223.77379 
L 319.921853 -223.819242 
L 319.10859 -223.910145 
L 318.295327 -223.985898 
L 317.482064 -223.864694 
L 316.668801 -223.667736 
L 315.855538 -223.758639 
L 315.042275 -223.682886 
L 314.229012 -223.576832 
L 313.415749 -223.804091 
L 312.602487 -223.728338 
L 311.789224 -223.501079 
L 310.975961 -223.51623 
L 310.162698 -222.728398 
L 309.349435 -222.728398 
L 308.536172 -222.001169 
L 307.722909 -221.364844 
L 306.909646 -220.834573 
L 306.096383 -220.092193 
L 305.283121 -219.364964 
L 304.469858 -218.910446 
L 303.656595 -218.955898 
L 302.843332 -218.895295 
L 302.030069 -219.168006 
L 301.216806 -219.25891 
L 300.403543 -217.683247 
L 299.59028 -217.607494 
L 298.777017 -217.546892 
L 297.963754 -217.137825 
L 297.150492 -215.334903 
L 296.337229 -215.228849 
L 295.523966 -214.50162 
L 294.710703 -212.638096 
L 293.89744 -211.456349 
L 293.084177 -210.320053 
L 292.270914 -209.47162 
L 291.457651 -208.48683 
L 290.644388 -207.411137 
L 289.831126 -207.183878 
L 289.017863 -205.71427 
L 288.2046 -205.199149 
L 287.391337 -205.168848 
L 286.578074 -203.47198 
L 285.764811 -203.123516 
L 284.951548 -201.426649 
L 284.138285 -201.017582 
L 283.325022 -200.078245 
L 282.51176 -198.69954 
L 281.698497 -195.548214 
L 280.885234 -195.048244 
L 280.071971 -192.002973 
L 279.258708 -189.154659 
L 278.445445 -186.336647 
L 277.632182 -186.16999 
L 276.818919 -182.427791 
L 276.005656 -182.033875 
L 275.192394 -181.715713 
L 274.379131 -180.594568 
L 273.565868 -178.655291 
L 272.752605 -178.503785 
L 271.939342 -177.6402 
L 271.126079 -176.852369 
L 270.312816 -176.534206 
L 269.499553 -176.094839 
L 268.68629 -174.988844 
L 267.873028 -173.398031 
L 267.059765 -173.276826 
L 266.246502 -173.12532 
L 265.433239 -169.701284 
L 264.619976 -169.625531 
L 263.806713 -169.004356 
L 262.99345 -168.822549 
L 262.180187 -167.458994 
L 261.366924 -165.474265 
L 260.553662 -164.959144 
L 259.740399 -160.913933 
L 258.927136 -160.944234 
L 258.113873 -161.141192 
L 257.30061 -161.474505 
L 256.487347 -160.732126 
L 255.674084 -156.111192 
L 254.860821 -154.990047 
L 254.047558 -154.32342 
L 253.234296 -153.459836 
L 252.421033 -153.126523 
L 251.60777 -152.30839 
L 250.794507 -152.444745 
L 249.981244 -151.172095 
L 249.167981 -151.05089 
L 248.354718 -150.823631 
L 247.541455 -150.29336 
L 246.728192 -150.202456 
L 245.91493 -149.035859 
L 245.101667 -148.611642 
L 244.288404 -147.945016 
L 243.475141 -147.657154 
L 242.661878 -145.0361 
L 241.848615 -145.020949 
L 241.035352 -143.899805 
L 240.222089 -143.202877 
L 239.408826 -143.066521 
L 238.595564 -142.79381 
L 237.782301 -141.096943 
L 236.969038 -141.051491 
L 236.155775 -139.990949 
L 235.342512 -139.77884 
L 234.529249 -139.627334 
L 233.715986 -138.172876 
L 232.902723 -137.551701 
L 232.08946 -136.248749 
L 231.276198 -135.748779 
L 230.462935 -135.02155 
L 229.649672 -134.688237 
L 228.836409 -134.597334 
L 228.023146 -134.551882 
L 227.209883 -133.809502 
L 226.39662 -133.718599 
L 225.583357 -133.26408 
L 224.770094 -132.99137 
L 223.956832 -130.279411 
L 223.143569 -130.23396 
L 222.330306 -130.112755 
L 221.517043 -129.946098 
L 220.70378 -129.870345 
L 219.890517 -130.112755 
L 219.077254 -130.0067 
L 218.263991 -129.976399 
L 217.450728 -129.658237 
L 216.637466 -128.688598 
L 215.824203 -127.855315 
L 215.01094 -126.961429 
L 214.197677 -126.946278 
L 213.384414 -126.97658 
L 212.571151 -125.552423 
L 211.757888 -125.23426 
L 210.944625 -124.537332 
L 210.131362 -124.385826 
L 209.3181 -123.885856 
L 208.504837 -122.825314 
L 207.691574 -122.71926 
L 206.878311 -122.492001 
L 206.065048 -121.613266 
L 205.251785 -121.658718 
L 204.438522 -121.431459 
L 203.625259 -121.46176 
L 202.811996 -121.446609 
L 201.998734 -121.552663 
L 201.185471 -121.325404 
L 200.372208 -121.204199 
L 199.558945 -121.037543 
L 198.745682 -121.037543 
L 197.932419 -120.840585 
L 197.119156 -120.537573 
L 196.305893 -120.158808 
L 195.49263 -118.977061 
L 194.679368 -118.401338 
L 193.866105 -118.052874 
L 193.052842 -117.977121 
L 192.239579 -117.977121 
L 191.426316 -117.340795 
L 190.613053 -117.310494 
L 189.79979 -116.96203 
L 188.986527 -116.825675 
L 188.173264 -116.583265 
L 187.360002 -116.568115 
L 186.546739 -115.749982 
L 185.733476 -115.598476 
L 184.920213 -114.825795 
L 184.10695 -114.825795 
L 183.293687 -114.916699 
L 182.480424 -114.962151 
L 181.667161 -114.856096 
L 180.853898 -113.962211 
L 180.040636 -113.750102 
L 179.227373 -113.659199 
L 178.41411 -113.068325 
L 177.600847 -113.083476 
L 176.787584 -112.856217 
L 175.974321 -112.780463 
L 175.161058 -112.674409 
L 174.347795 -112.613807 
L 173.534532 -112.613807 
L 172.72127 -112.250192 
L 171.908007 -111.962331 
L 171.094744 -111.886578 
L 170.281481 -111.871427 
L 169.468218 -111.719921 
L 168.654955 -111.735072 
L 167.841692 -111.629018 
L 167.028429 -110.810885 
L 166.215166 -110.371517 
L 165.401904 -110.204861 
L 164.588641 -110.007903 
L 163.775378 -109.795794 
L 162.962115 -109.280674 
L 162.148852 -109.129168 
L 161.335589 -108.856457 
L 160.522326 -108.811005 
L 159.709063 -108.401939 
L 158.8958 -107.992873 
L 158.082538 -107.901969 
L 157.269275 -107.871668 
L 156.456012 -107.856517 
L 155.642749 -107.780764 
L 154.829486 -107.705011 
L 154.016223 -107.508053 
L 153.20296 -107.401999 
L 152.389697 -106.629318 
L 151.576434 -106.41721 
L 150.763172 -106.371758 
L 149.949909 -106.386909 
L 149.136646 -106.1748 
L 148.323383 -106.159649 
L 147.51012 -106.068746 
L 146.696857 -105.93239 
L 145.883594 -105.689981 
L 145.070331 -105.41727 
L 144.257068 -104.114318 
L 143.443806 -103.493143 
L 142.630543 -102.962872 
L 141.81728 -102.856818 
L 141.004017 -102.553806 
L 140.190754 -102.599257 
L 139.377491 -102.508354 
L 138.564228 -102.371998 
L 137.750965 -102.387149 
L 136.937702 -102.205342 
L 136.12444 -102.144739 
L 135.311177 -102.053836 
L 134.497914 -102.023535 
L 133.684651 -102.038685 
L 132.871388 -102.038685 
L 132.058125 -101.962932 
L 131.244862 -101.41751 
L 130.431599 -101.432661 
L 129.618336 -101.326607 
L 128.805073 -101.144799 
L 127.991811 -101.175101 
L 127.178548 -100.856938 
L 126.365285 -100.796336 
L 125.552022 -100.720583 
L 124.738759 -100.508474 
L 123.925496 -100.296366 
L 123.112233 -99.90245 
L 122.29897 -99.735793 
L 121.485707 -99.508534 
L 120.672445 -99.357028 
L 119.859182 -99.341878 
L 119.045919 -98.932811 
L 118.232656 -98.90251 
L 117.419393 -98.826757 
L 116.60613 -98.811606 
L 115.792867 -98.872209 
L 114.979604 -98.887359 
L 114.166341 -98.690402 
L 113.353079 -98.16013 
L 112.539816 -98.099528 
L 111.726553 -98.069227 
L 110.91329 -98.008624 
L 110.100027 -97.932871 
L 109.286764 -97.841968 
L 108.473501 -97.735914 
L 107.660238 -97.675311 
L 106.846975 -97.64501 
L 106.033713 -97.493504 
L 105.22045 -97.417751 
L 104.407187 -97.417751 
L 103.593924 -97.251094 
L 102.780661 -97.220793 
L 101.967398 -97.251094 
L 101.154135 -97.190492 
L 100.340872 -96.705672 
L 99.527609 -96.675371 
L 98.714347 -96.614769 
z
" style="stroke: #45aaf2; stroke-opacity: 0.5"/>
    </defs>
    <g clip-path="url(#p2c892ce5b3)">
     <use xlink:href="#m907042d086" x="0" y="356.964375" style="fill: #45aaf2; fill-opacity: 0.5; stroke: #45aaf2; stroke-opacity: 0.5"/>
    </g>
   </g>
   <g id="PolyCollection_2">
    <defs>
     <path id="mc0a4b18e86" d="M 98.714347 -95.736034 
L 98.714347 -77.964375 
L 99.527609 -77.964375 
L 100.340872 -77.964375 
L 101.154135 -77.964375 
L 101.967398 -77.964375 
L 102.780661 -77.964375 
L 103.593924 -77.964375 
L 104.407187 -77.964375 
L 105.22045 -77.964375 
L 106.033713 -77.964375 
L 106.846975 -77.964375 
L 107.660238 -77.964375 
L 108.473501 -77.964375 
L 109.286764 -77.964375 
L 110.100027 -77.964375 
L 110.91329 -77.964375 
L 111.726553 -77.964375 
L 112.539816 -77.964375 
L 113.353079 -77.964375 
L 114.166341 -77.964375 
L 114.979604 -77.964375 
L 115.792867 -77.964375 
L 116.60613 -77.964375 
L 117.419393 -77.964375 
L 118.232656 -77.964375 
L 119.045919 -77.964375 
L 119.859182 -77.964375 
L 120.672445 -77.964375 
L 121.485707 -77.964375 
L 122.29897 -77.964375 
L 123.112233 -77.964375 
L 123.925496 -77.964375 
L 124.738759 -77.964375 
L 125.552022 -77.964375 
L 126.365285 -77.964375 
L 127.178548 -77.964375 
L 127.991811 -77.964375 
L 128.805073 -77.964375 
L 129.618336 -77.964375 
L 130.431599 -77.964375 
L 131.244862 -77.964375 
L 132.058125 -77.964375 
L 132.871388 -77.964375 
L 133.684651 -77.964375 
L 134.497914 -77.964375 
L 135.311177 -77.964375 
L 136.12444 -77.964375 
L 136.937702 -77.964375 
L 137.750965 -77.964375 
L 138.564228 -77.964375 
L 139.377491 -77.964375 
L 140.190754 -77.964375 
L 141.004017 -77.964375 
L 141.81728 -77.964375 
L 142.630543 -77.964375 
L 143.443806 -77.964375 
L 144.257068 -77.964375 
L 145.070331 -77.964375 
L 145.883594 -77.964375 
L 146.696857 -77.964375 
L 147.51012 -77.964375 
L 148.323383 -77.964375 
L 149.136646 -77.964375 
L 149.949909 -77.964375 
L 150.763172 -77.964375 
L 151.576434 -77.964375 
L 152.389697 -77.964375 
L 153.20296 -77.964375 
L 154.016223 -77.964375 
L 154.829486 -77.964375 
L 155.642749 -77.964375 
L 156.456012 -77.964375 
L 157.269275 -77.964375 
L 158.082538 -77.964375 
L 158.8958 -77.964375 
L 159.709063 -77.964375 
L 160.522326 -77.964375 
L 161.335589 -77.964375 
L 162.148852 -77.964375 
L 162.962115 -77.964375 
L 163.775378 -77.964375 
L 164.588641 -77.964375 
L 165.401904 -77.964375 
L 166.215166 -77.964375 
L 167.028429 -77.964375 
L 167.841692 -77.964375 
L 168.654955 -77.964375 
L 169.468218 -77.964375 
L 170.281481 -77.964375 
L 171.094744 -77.964375 
L 171.908007 -77.964375 
L 172.72127 -77.964375 
L 173.534532 -77.964375 
L 174.347795 -77.964375 
L 175.161058 -77.964375 
L 175.974321 -77.964375 
L 176.787584 -77.964375 
L 177.600847 -77.964375 
L 178.41411 -77.964375 
L 179.227373 -77.964375 
L 180.040636 -77.964375 
L 180.853898 -77.964375 
L 181.667161 -77.964375 
L 182.480424 -77.964375 
L 183.293687 -77.964375 
L 184.10695 -77.964375 
L 184.920213 -77.964375 
L 185.733476 -77.964375 
L 186.546739 -77.964375 
L 187.360002 -77.964375 
L 188.173264 -77.964375 
L 188.986527 -77.964375 
L 189.79979 -77.964375 
L 190.613053 -77.964375 
L 191.426316 -77.964375 
L 192.239579 -77.964375 
L 193.052842 -77.964375 
L 193.866105 -77.964375 
L 194.679368 -77.964375 
L 195.49263 -77.964375 
L 196.305893 -77.964375 
L 197.119156 -77.964375 
L 197.932419 -77.964375 
L 198.745682 -77.964375 
L 199.558945 -77.964375 
L 200.372208 -77.964375 
L 201.185471 -77.964375 
L 201.998734 -77.964375 
L 202.811996 -77.964375 
L 203.625259 -77.964375 
L 204.438522 -77.964375 
L 205.251785 -77.964375 
L 206.065048 -77.964375 
L 206.878311 -77.964375 
L 207.691574 -77.964375 
L 208.504837 -77.964375 
L 209.3181 -77.964375 
L 210.131362 -77.964375 
L 210.944625 -77.964375 
L 211.757888 -77.964375 
L 212.571151 -77.964375 
L 213.384414 -77.964375 
L 214.197677 -77.964375 
L 215.01094 -77.964375 
L 215.824203 -77.964375 
L 216.637466 -77.964375 
L 217.450728 -77.964375 
L 218.263991 -77.964375 
L 219.077254 -77.964375 
L 219.890517 -77.964375 
L 220.70378 -77.964375 
L 221.517043 -77.964375 
L 222.330306 -77.964375 
L 223.143569 -77.964375 
L 223.956832 -77.964375 
L 224.770094 -77.964375 
L 225.583357 -77.964375 
L 226.39662 -77.964375 
L 227.209883 -77.964375 
L 228.023146 -77.964375 
L 228.836409 -77.964375 
L 229.649672 -77.964375 
L 230.462935 -77.964375 
L 231.276198 -77.964375 
L 232.08946 -77.964375 
L 232.902723 -77.964375 
L 233.715986 -77.964375 
L 234.529249 -77.964375 
L 235.342512 -77.964375 
L 236.155775 -77.964375 
L 236.969038 -77.964375 
L 237.782301 -77.964375 
L 238.595564 -77.964375 
L 239.408826 -77.964375 
L 240.222089 -77.964375 
L 241.035352 -77.964375 
L 241.848615 -77.964375 
L 242.661878 -77.964375 
L 243.475141 -77.964375 
L 244.288404 -77.964375 
L 245.101667 -77.964375 
L 245.91493 -77.964375 
L 246.728192 -77.964375 
L 247.541455 -77.964375 
L 248.354718 -77.964375 
L 249.167981 -77.964375 
L 249.981244 -77.964375 
L 250.794507 -77.964375 
L 251.60777 -77.964375 
L 252.421033 -77.964375 
L 253.234296 -77.964375 
L 254.047558 -77.964375 
L 254.860821 -77.964375 
L 255.674084 -77.964375 
L 256.487347 -77.964375 
L 257.30061 -77.964375 
L 258.113873 -77.964375 
L 258.927136 -77.964375 
L 259.740399 -77.964375 
L 260.553662 -77.964375 
L 261.366924 -77.964375 
L 262.180187 -77.964375 
L 262.99345 -77.964375 
L 263.806713 -77.964375 
L 264.619976 -77.964375 
L 265.433239 -77.964375 
L 266.246502 -77.964375 
L 267.059765 -77.964375 
L 267.873028 -77.964375 
L 268.68629 -77.964375 
L 269.499553 -77.964375 
L 270.312816 -77.964375 
L 271.126079 -77.964375 
L 271.939342 -77.964375 
L 272.752605 -77.964375 
L 273.565868 -77.964375 
L 274.379131 -77.964375 
L 275.192394 -77.964375 
L 276.005656 -77.964375 
L 276.818919 -77.964375 
L 277.632182 -77.964375 
L 278.445445 -77.964375 
L 279.258708 -77.964375 
L 280.071971 -77.964375 
L 280.885234 -77.964375 
L 281.698497 -77.964375 
L 282.51176 -77.964375 
L 283.325022 -77.964375 
L 284.138285 -77.964375 
L 284.951548 -77.964375 
L 285.764811 -77.964375 
L 286.578074 -77.964375 
L 287.391337 -77.964375 
L 288.2046 -77.964375 
L 289.017863 -77.964375 
L 289.831126 -77.964375 
L 290.644388 -77.964375 
L 291.457651 -77.964375 
L 292.270914 -77.964375 
L 293.084177 -77.964375 
L 293.89744 -77.964375 
L 294.710703 -77.964375 
L 295.523966 -77.964375 
L 296.337229 -77.964375 
L 297.150492 -77.964375 
L 297.963754 -77.964375 
L 298.777017 -77.964375 
L 299.59028 -77.964375 
L 300.403543 -77.964375 
L 301.216806 -77.964375 
L 302.030069 -77.964375 
L 302.843332 -77.964375 
L 303.656595 -77.964375 
L 304.469858 -77.964375 
L 305.283121 -77.964375 
L 306.096383 -77.964375 
L 306.909646 -77.964375 
L 307.722909 -77.964375 
L 308.536172 -77.964375 
L 309.349435 -77.964375 
L 310.162698 -77.964375 
L 310.975961 -77.964375 
L 311.789224 -77.964375 
L 312.602487 -77.964375 
L 313.415749 -77.964375 
L 314.229012 -77.964375 
L 315.042275 -77.964375 
L 315.855538 -77.964375 
L 316.668801 -77.964375 
L 317.482064 -77.964375 
L 318.295327 -77.964375 
L 319.10859 -77.964375 
L 319.921853 -77.964375 
L 320.735115 -77.964375 
L 321.548378 -77.964375 
L 322.361641 -77.964375 
L 323.174904 -77.964375 
L 323.988167 -77.964375 
L 324.80143 -77.964375 
L 325.614693 -77.964375 
L 326.427956 -77.964375 
L 327.241219 -77.964375 
L 328.054481 -77.964375 
L 328.867744 -77.964375 
L 329.681007 -77.964375 
L 330.49427 -77.964375 
L 331.307533 -77.964375 
L 332.120796 -77.964375 
L 332.934059 -77.964375 
L 333.747322 -77.964375 
L 334.560585 -77.964375 
L 335.373847 -77.964375 
L 336.18711 -77.964375 
L 337.000373 -77.964375 
L 337.813636 -77.964375 
L 338.626899 -77.964375 
L 339.440162 -77.964375 
L 340.253425 -77.964375 
L 341.066688 -77.964375 
L 341.879951 -77.964375 
L 342.693213 -77.964375 
L 343.506476 -77.964375 
L 344.319739 -77.964375 
L 345.133002 -77.964375 
L 345.946265 -77.964375 
L 346.759528 -77.964375 
L 347.572791 -77.964375 
L 348.386054 -77.964375 
L 349.199317 -77.964375 
L 350.012579 -77.964375 
L 350.825842 -77.964375 
L 351.639105 -77.964375 
L 352.452368 -77.964375 
L 353.265631 -77.964375 
L 354.078894 -77.964375 
L 354.892157 -77.964375 
L 355.70542 -77.964375 
L 356.518683 -77.964375 
L 357.331945 -77.964375 
L 358.145208 -77.964375 
L 358.958471 -77.964375 
L 359.771734 -77.964375 
L 360.584997 -77.964375 
L 361.39826 -77.964375 
L 362.211523 -77.964375 
L 363.024786 -77.964375 
L 363.838049 -77.964375 
L 364.651311 -77.964375 
L 365.464574 -77.964375 
L 366.277837 -77.964375 
L 367.0911 -77.964375 
L 367.904363 -77.964375 
L 368.717626 -77.964375 
L 369.530889 -77.964375 
L 370.344152 -77.964375 
L 371.157415 -77.964375 
L 371.970677 -77.964375 
L 372.78394 -77.964375 
L 373.597203 -77.964375 
L 374.410466 -77.964375 
L 375.223729 -77.964375 
L 376.036992 -77.964375 
L 376.850255 -77.964375 
L 377.663518 -77.964375 
L 378.476781 -77.964375 
L 379.290043 -77.964375 
L 380.103306 -77.964375 
L 380.916569 -77.964375 
L 381.729832 -77.964375 
L 382.543095 -77.964375 
L 383.356358 -77.964375 
L 384.169621 -77.964375 
L 384.982884 -77.964375 
L 385.796147 -77.964375 
L 386.609409 -77.964375 
L 387.422672 -77.964375 
L 388.235935 -77.964375 
L 389.049198 -77.964375 
L 389.862461 -77.964375 
L 390.675724 -77.964375 
L 391.488987 -77.964375 
L 392.30225 -77.964375 
L 393.115513 -77.964375 
L 393.928775 -77.964375 
L 394.742038 -77.964375 
L 395.555301 -77.964375 
L 396.368564 -77.964375 
L 397.181827 -77.964375 
L 397.99509 -77.964375 
L 398.808353 -77.964375 
L 399.621616 -77.964375 
L 400.434879 -77.964375 
L 401.248141 -77.964375 
L 402.061404 -77.964375 
L 402.874667 -77.964375 
L 403.68793 -77.964375 
L 404.501193 -77.964375 
L 405.314456 -77.964375 
L 406.127719 -77.964375 
L 406.940982 -77.964375 
L 407.754245 -77.964375 
L 408.567507 -77.964375 
L 409.38077 -77.964375 
L 410.194033 -77.964375 
L 411.007296 -77.964375 
L 411.820559 -77.964375 
L 412.633822 -77.964375 
L 413.447085 -77.964375 
L 414.260348 -77.964375 
L 415.073611 -77.964375 
L 415.886873 -77.964375 
L 416.700136 -77.964375 
L 417.513399 -77.964375 
L 418.326662 -77.964375 
L 419.139925 -77.964375 
L 419.953188 -77.964375 
L 420.766451 -77.964375 
L 421.579714 -77.964375 
L 422.392977 -77.964375 
L 423.206239 -77.964375 
L 424.019502 -77.964375 
L 424.832765 -77.964375 
L 425.646028 -77.964375 
L 426.459291 -77.964375 
L 427.272554 -77.964375 
L 428.085817 -77.964375 
L 428.89908 -77.964375 
L 429.712343 -77.964375 
L 430.525605 -77.964375 
L 431.338868 -77.964375 
L 432.152131 -77.964375 
L 432.965394 -77.964375 
L 433.778657 -77.964375 
L 434.59192 -77.964375 
L 435.405183 -77.964375 
L 436.218446 -77.964375 
L 437.031709 -77.964375 
L 437.844971 -77.964375 
L 438.658234 -77.964375 
L 439.471497 -77.964375 
L 440.28476 -77.964375 
L 441.098023 -77.964375 
L 441.911286 -77.964375 
L 442.724549 -77.964375 
L 443.537812 -77.964375 
L 444.351075 -77.964375 
L 445.164337 -77.964375 
L 445.9776 -77.964375 
L 446.790863 -77.964375 
L 447.604126 -77.964375 
L 448.417389 -77.964375 
L 449.230652 -77.964375 
L 450.043915 -77.964375 
L 450.857178 -77.964375 
L 451.670441 -77.964375 
L 452.483703 -77.964375 
L 453.296966 -77.964375 
L 454.110229 -77.964375 
L 454.923492 -77.964375 
L 455.736755 -77.964375 
L 456.550018 -77.964375 
L 457.363281 -77.964375 
L 458.176544 -77.964375 
L 458.989807 -77.964375 
L 459.803069 -77.964375 
L 460.616332 -77.964375 
L 461.429595 -77.964375 
L 462.242858 -77.964375 
L 463.056121 -77.964375 
L 463.869384 -77.964375 
L 464.682647 -77.964375 
L 465.49591 -77.964375 
L 466.309173 -77.964375 
L 467.122435 -77.964375 
L 467.935698 -77.964375 
L 468.748961 -77.964375 
L 469.562224 -77.964375 
L 470.375487 -77.964375 
L 471.18875 -77.964375 
L 472.002013 -77.964375 
L 472.815276 -77.964375 
L 473.628539 -77.964375 
L 474.441802 -77.964375 
L 475.255064 -77.964375 
L 476.068327 -77.964375 
L 476.88159 -77.964375 
L 477.694853 -77.964375 
L 478.508116 -77.964375 
L 479.321379 -77.964375 
L 480.134642 -77.964375 
L 480.947905 -77.964375 
L 481.761168 -77.964375 
L 482.57443 -77.964375 
L 483.387693 -77.964375 
L 484.200956 -77.964375 
L 485.014219 -77.964375 
L 485.827482 -77.964375 
L 486.640745 -77.964375 
L 487.454008 -77.964375 
L 488.267271 -77.964375 
L 489.080534 -77.964375 
L 489.893796 -77.964375 
L 490.707059 -77.964375 
L 491.520322 -77.964375 
L 492.333585 -77.964375 
L 493.146848 -77.964375 
L 493.960111 -77.964375 
L 494.773374 -77.964375 
L 495.586637 -77.964375 
L 496.3999 -77.964375 
L 497.213162 -77.964375 
L 498.026425 -77.964375 
L 498.839688 -77.964375 
L 499.652951 -77.964375 
L 500.466214 -77.964375 
L 501.279477 -77.964375 
L 502.09274 -77.964375 
L 502.906003 -77.964375 
L 503.719266 -77.964375 
L 504.532528 -77.964375 
L 504.532528 -91.660521 
L 504.532528 -91.660521 
L 503.719266 -82.555008 
L 502.906003 -104.568836 
L 502.09274 -143.521039 
L 501.279477 -161.398752 
L 500.466214 -186.185141 
L 499.652951 -207.244481 
L 498.839688 -252.075119 
L 498.026425 -279.982532 
L 497.213162 -279.982532 
L 496.3999 -279.982532 
L 495.586637 -279.982532 
L 494.773374 -279.982532 
L 493.960111 -279.982532 
L 493.146848 -279.982532 
L 492.333585 -279.982532 
L 491.520322 -280.93702 
L 490.707059 -281.149128 
L 489.893796 -282.527833 
L 489.080534 -289.527412 
L 488.267271 -291.906057 
L 487.454008 -295.22404 
L 486.640745 -296.557293 
L 485.827482 -296.936058 
L 485.014219 -302.708438 
L 484.200956 -302.814492 
L 483.387693 -303.193257 
L 482.57443 -303.799282 
L 481.761168 -305.405246 
L 480.947905 -308.162656 
L 480.134642 -306.162776 
L 479.321379 -309.117144 
L 478.508116 -310.374644 
L 477.694853 -313.828982 
L 476.88159 -312.510879 
L 476.068327 -318.010548 
L 475.255064 -318.662024 
L 474.441802 -320.374043 
L 473.628539 -328.267507 
L 472.815276 -329.964375 
L 472.002013 -328.691724 
L 471.18875 -322.692085 
L 470.375487 -319.586211 
L 469.562224 -318.707476 
L 468.748961 -317.889343 
L 467.935698 -307.556631 
L 467.122435 -304.465908 
L 466.309173 -304.799221 
L 465.49591 -304.723468 
L 464.682647 -307.01121 
L 463.869384 -301.390335 
L 463.056121 -300.920667 
L 462.242858 -295.617955 
L 461.429595 -287.542683 
L 460.616332 -282.679339 
L 459.803069 -283.70958 
L 458.989807 -276.603947 
L 458.176544 -273.816236 
L 457.363281 -262.574487 
L 456.550018 -239.894033 
L 455.736755 -237.31843 
L 454.923492 -237.212376 
L 454.110229 -222.698097 
L 453.296966 -221.243639 
L 452.483703 -219.895235 
L 451.670441 -217.213578 
L 450.857178 -217.486289 
L 450.043915 -199.69948 
L 449.230652 -198.684389 
L 448.417389 -200.426709 
L 447.604126 -195.911829 
L 446.790863 -196.245142 
L 445.9776 -190.866678 
L 445.164337 -190.700021 
L 444.351075 -190.397009 
L 443.537812 -188.594087 
L 442.724549 -188.109268 
L 441.911286 -187.624448 
L 441.098023 -187.382039 
L 440.28476 -186.15484 
L 439.471497 -186.791165 
L 438.658234 -187.806256 
L 437.844971 -189.578876 
L 437.031709 -191.139389 
L 436.218446 -191.593907 
L 435.405183 -192.215081 
L 434.59192 -192.987762 
L 433.778657 -193.245323 
L 432.965394 -193.411979 
L 432.152131 -193.790744 
L 431.338868 -195.063395 
L 430.525605 -195.078546 
L 429.712343 -195.260353 
L 428.89908 -195.669419 
L 428.085817 -196.381498 
L 427.272554 -197.472341 
L 426.459291 -197.745052 
L 425.646028 -197.911709 
L 424.832765 -198.138968 
L 424.019502 -198.335926 
L 423.206239 -198.45713 
L 422.392977 -198.654088 
L 421.579714 -198.896498 
L 420.766451 -199.123757 
L 419.953188 -200.290353 
L 419.139925 -200.623667 
L 418.326662 -201.032733 
L 417.513399 -201.45695 
L 416.700136 -202.123577 
L 415.886873 -202.19933 
L 415.073611 -202.381137 
L 414.260348 -202.790203 
L 413.447085 -202.820504 
L 412.633822 -203.153818 
L 411.820559 -203.562884 
L 411.007296 -203.562884 
L 410.194033 -204.684029 
L 409.38077 -204.744631 
L 408.567507 -204.774932 
L 407.754245 -205.062794 
L 406.940982 -205.108246 
L 406.127719 -205.153697 
L 405.314456 -205.411258 
L 404.501193 -205.45671 
L 403.68793 -206.289993 
L 402.874667 -206.365746 
L 402.061404 -206.577854 
L 401.248141 -206.593005 
L 400.434879 -207.22933 
L 399.621616 -207.592945 
L 398.808353 -207.97171 
L 397.99509 -208.032312 
L 397.181827 -208.289873 
L 396.368564 -208.608035 
L 395.555301 -208.880746 
L 394.742038 -209.001951 
L 393.928775 -209.153457 
L 393.115513 -209.244361 
L 392.30225 -209.48677 
L 391.488987 -209.789782 
L 390.675724 -209.98674 
L 389.862461 -210.077644 
L 389.049198 -211.198789 
L 388.235935 -211.365445 
L 387.422672 -211.562403 
L 386.609409 -211.653307 
L 385.796147 -211.819963 
L 384.982884 -212.22903 
L 384.169621 -212.24418 
L 383.356358 -212.653247 
L 382.543095 -212.956259 
L 381.729832 -213.032012 
L 380.916569 -213.259271 
L 380.103306 -213.653186 
L 379.290043 -213.698638 
L 378.476781 -213.880445 
L 377.663518 -213.925897 
L 376.850255 -213.925897 
L 376.036992 -213.941048 
L 375.223729 -214.153156 
L 374.410466 -214.274361 
L 373.597203 -214.319813 
L 372.78394 -214.683427 
L 371.970677 -214.713729 
L 371.157415 -214.804632 
L 370.344152 -215.00159 
L 369.530889 -215.122795 
L 368.717626 -215.380355 
L 367.904363 -215.395506 
L 367.0911 -215.410656 
L 366.277837 -215.456108 
L 365.464574 -215.713669 
L 364.651311 -215.713669 
L 363.838049 -215.804572 
L 363.024786 -215.850024 
L 362.211523 -215.925777 
L 361.39826 -215.834873 
L 360.584997 -215.910626 
L 359.771734 -216.092434 
L 358.958471 -216.168187 
L 358.145208 -216.213639 
L 357.331945 -215.653066 
L 356.518683 -215.425807 
L 355.70542 -215.350054 
L 354.892157 -215.834873 
L 354.078894 -216.319693 
L 353.265631 -215.940928 
L 352.452368 -215.956078 
L 351.639105 -216.213639 
L 350.825842 -216.198488 
L 350.012579 -216.5015 
L 349.199317 -216.683307 
L 348.386054 -216.380295 
L 347.572791 -216.213639 
L 346.759528 -216.25909 
L 345.946265 -216.986319 
L 345.133002 -216.698458 
L 344.319739 -216.653006 
L 343.506476 -216.486349 
L 342.693213 -216.319693 
L 341.879951 -215.683367 
L 341.066688 -215.698518 
L 340.253425 -215.440958 
L 339.440162 -215.607614 
L 338.626899 -215.592464 
L 337.813636 -214.850084 
L 337.000373 -214.410717 
L 336.18711 -214.00165 
L 335.373847 -214.259211 
L 334.560585 -214.153156 
L 333.747322 -214.107705 
L 332.934059 -213.365325 
L 332.120796 -213.168367 
L 331.307533 -213.213819 
L 330.49427 -212.441138 
L 329.681007 -211.895716 
L 328.867744 -209.698879 
L 328.054481 -209.698879 
L 327.241219 -209.380716 
L 326.427956 -209.22921 
L 325.614693 -208.274722 
L 324.80143 -207.698999 
L 323.988167 -207.395987 
L 323.174904 -206.517252 
L 322.361641 -206.456649 
L 321.548378 -206.032432 
L 320.735115 -206.017282 
L 319.921853 -205.668818 
L 319.10859 -205.97183 
L 318.295327 -206.017282 
L 317.482064 -205.865776 
L 316.668801 -205.532463 
L 315.855538 -205.138547 
L 315.042275 -203.987101 
L 314.229012 -203.578035 
L 313.415749 -201.866016 
L 312.602487 -201.335745 
L 311.789224 -201.169089 
L 310.975961 -200.487311 
L 310.162698 -199.805534 
L 309.349435 -199.426769 
L 308.536172 -198.94195 
L 307.722909 -198.290474 
L 306.909646 -197.593546 
L 306.096383 -194.775534 
L 305.283121 -194.745232 
L 304.469858 -194.624027 
L 303.656595 -193.608937 
L 302.843332 -193.654389 
L 302.030069 -193.093816 
L 301.216806 -193.154419 
L 300.403543 -193.048365 
L 299.59028 -192.805955 
L 298.777017 -189.442521 
L 297.963754 -188.533485 
L 297.150492 -188.381979 
L 296.337229 -187.41234 
L 295.523966 -183.518635 
L 294.710703 -183.033815 
L 293.89744 -181.63996 
L 293.084177 -181.246044 
L 292.270914 -180.14005 
L 291.457651 -174.86764 
L 290.644388 -173.322278 
L 289.831126 -172.079928 
L 289.017863 -171.261796 
L 288.2046 -170.504266 
L 287.391337 -170.337609 
L 286.578074 -169.86794 
L 285.764811 -169.474024 
L 284.951548 -168.080169 
L 284.138285 -166.746916 
L 283.325022 -165.868181 
L 282.51176 -165.61062 
L 281.698497 -164.762187 
L 280.885234 -163.398632 
L 280.071971 -162.08053 
L 279.258708 -160.520017 
L 278.445445 -159.004957 
L 277.632182 -156.717216 
L 276.818919 -155.505167 
L 276.005656 -155.338511 
L 275.192394 -155.217306 
L 274.379131 -149.263118 
L 273.565868 -149.066161 
L 272.752605 -147.581401 
L 271.939342 -147.414745 
L 271.126079 -147.445046 
L 270.312816 -144.717937 
L 269.499553 -144.384624 
L 268.68629 -143.339232 
L 267.873028 -143.308931 
L 267.059765 -142.960467 
L 266.246502 -140.672726 
L 265.433239 -139.657635 
L 264.619976 -138.930406 
L 263.806713 -138.475888 
L 262.99345 -138.354683 
L 262.180187 -138.354683 
L 261.366924 -137.5214 
L 260.553662 -136.779021 
L 259.740399 -136.672966 
L 258.927136 -136.188147 
L 258.113873 -136.00634 
L 257.30061 -135.309412 
L 256.487347 -134.642785 
L 255.674084 -134.627635 
L 254.860821 -134.854894 
L 254.047558 -134.491279 
L 253.234296 -133.461038 
L 252.421033 -132.036881 
L 251.60777 -131.870225 
L 250.794507 -130.976339 
L 249.981244 -128.612845 
L 249.167981 -128.612845 
L 248.354718 -128.082574 
L 247.541455 -127.188688 
L 246.728192 -126.931128 
L 245.91493 -126.2342 
L 245.101667 -125.294863 
L 244.288404 -125.097905 
L 243.475141 -125.203959 
L 242.661878 -124.310073 
L 241.848615 -123.310133 
L 241.035352 -121.855675 
L 240.222089 -121.810224 
L 239.408826 -121.779922 
L 238.595564 -121.582965 
L 237.782301 -121.401157 
L 236.969038 -120.673928 
L 236.155775 -119.658838 
L 235.342512 -119.673988 
L 234.529249 -119.416428 
L 233.715986 -117.96197 
L 232.902723 -117.492301 
L 232.08946 -117.840765 
L 231.276198 -117.795313 
L 230.462935 -117.234741 
L 229.649672 -117.340795 
L 228.836409 -116.992331 
L 228.023146 -116.96203 
L 227.209883 -116.583265 
L 226.39662 -115.780283 
L 225.583357 -115.553024 
L 224.770094 -114.901548 
L 223.956832 -114.659138 
L 223.143569 -114.401578 
L 222.330306 -113.659199 
L 221.517043 -113.70465 
L 220.70378 -113.598596 
L 219.890517 -113.719801 
L 219.077254 -113.568295 
L 218.263991 -113.371337 
L 217.450728 -113.386488 
L 216.637466 -112.583506 
L 215.824203 -112.568355 
L 215.01094 -112.492602 
L 214.197677 -112.159289 
L 213.384414 -112.174439 
L 212.571151 -112.265343 
L 211.757888 -112.128988 
L 210.944625 -111.598716 
L 210.131362 -110.492722 
L 209.3181 -110.295764 
L 208.504837 -109.886698 
L 207.691574 -109.720041 
L 206.878311 -109.750343 
L 206.065048 -109.371578 
L 205.251785 -108.720102 
L 204.438522 -108.553445 
L 203.625259 -108.568596 
L 202.811996 -108.235282 
L 201.998734 -108.220132 
L 201.185471 -107.856517 
L 200.372208 -107.886818 
L 199.558945 -107.780764 
L 198.745682 -107.326246 
L 197.932419 -107.280794 
L 197.119156 -107.250493 
L 196.305893 -106.826276 
L 195.49263 -106.795975 
L 194.679368 -106.689921 
L 193.866105 -106.644469 
L 193.052842 -106.341457 
L 192.239579 -105.947541 
L 191.426316 -105.977842 
L 190.613053 -105.871788 
L 189.79979 -105.902089 
L 188.986527 -105.841487 
L 188.173264 -105.568776 
L 187.360002 -105.568776 
L 186.546739 -105.43242 
L 185.733476 -105.43242 
L 184.920213 -105.599077 
L 184.10695 -105.311216 
L 183.293687 -105.114258 
L 182.480424 -105.15971 
L 181.667161 -105.083957 
L 180.853898 -105.099107 
L 180.040636 -104.765794 
L 179.227373 -104.599137 
L 178.41411 -104.41733 
L 177.600847 -104.129468 
L 176.787584 -103.811306 
L 175.974321 -103.811306 
L 175.161058 -103.765854 
L 174.347795 -103.6598 
L 173.534532 -103.599197 
L 172.72127 -103.553746 
L 171.908007 -103.568896 
L 171.094744 -103.614348 
L 170.281481 -103.568896 
L 169.468218 -103.41739 
L 168.654955 -103.553746 
L 167.841692 -103.553746 
L 167.028429 -103.356788 
L 166.215166 -103.296185 
L 165.401904 -102.932571 
L 164.588641 -102.735613 
L 163.775378 -102.220492 
L 162.962115 -101.962932 
L 162.148852 -101.91748 
L 161.335589 -101.614468 
L 160.522326 -101.584167 
L 159.709063 -101.296305 
L 158.8958 -101.266004 
L 158.082538 -101.175101 
L 157.269275 -101.008444 
L 156.456012 -100.993293 
L 155.642749 -101.069046 
L 154.829486 -101.099348 
L 154.016223 -101.069046 
L 153.20296 -100.856938 
L 152.389697 -100.463022 
L 151.576434 -100.463022 
L 150.763172 -100.478173 
L 149.949909 -100.569076 
L 149.136646 -100.447872 
L 148.323383 -100.069107 
L 147.51012 -100.084257 
L 146.696857 -99.978203 
L 145.883594 -99.629739 
L 145.070331 -99.599438 
L 144.257068 -99.553986 
L 143.443806 -99.508534 
L 142.630543 -99.478233 
L 141.81728 -99.387329 
L 141.004017 -99.357028 
L 140.190754 -99.099468 
L 139.377491 -99.114618 
L 138.564228 -99.129769 
L 137.750965 -99.114618 
L 136.937702 -99.084317 
L 136.12444 -99.069167 
L 135.311177 -98.947962 
L 134.497914 -98.978263 
L 133.684651 -99.008564 
L 132.871388 -98.932811 
L 132.058125 -98.675251 
L 131.244862 -98.629799 
L 130.431599 -98.493444 
L 129.618336 -98.341938 
L 128.805073 -98.281335 
L 127.991811 -98.054076 
L 127.178548 -97.90257 
L 126.365285 -97.872269 
L 125.552022 -97.841968 
L 124.738759 -97.781365 
L 123.925496 -97.690462 
L 123.112233 -97.614709 
L 122.29897 -97.538956 
L 121.485707 -97.554106 
L 120.672445 -97.448052 
L 119.859182 -97.463203 
L 119.045919 -97.281395 
L 118.232656 -96.963233 
L 117.419393 -96.735974 
L 116.60613 -96.735974 
L 115.792867 -96.705672 
L 114.979604 -96.705672 
L 114.166341 -96.857178 
L 113.353079 -96.826877 
L 112.539816 -96.796576 
L 111.726553 -96.811727 
L 110.91329 -96.629919 
L 110.100027 -96.64507 
L 109.286764 -96.569317 
L 108.473501 -96.417811 
L 107.660238 -96.281456 
L 106.846975 -96.281456 
L 106.033713 -96.266305 
L 105.22045 -96.099648 
L 104.407187 -96.039046 
L 103.593924 -96.008745 
L 102.780661 -95.88754 
L 101.967398 -95.932992 
L 101.154135 -95.811787 
L 100.340872 -95.811787 
L 99.527609 -95.796636 
L 98.714347 -95.736034 
z
" style="stroke: #e67e22; stroke-opacity: 0.5"/>
    </defs>
    <g clip-path="url(#p2c892ce5b3)">
     <use xlink:href="#mc0a4b18e86" x="0" y="356.964375" style="fill: #e67e22; fill-opacity: 0.5; stroke: #e67e22; stroke-opacity: 0.5"/>
    </g>
   </g>
   <g id="matplotlib.axis_1">
    <g id="xtick_1">
     <g id="line2d_1">
      <defs>
       <path id="m097213b1f4" d="M 0 0 
L 0 3.5 
" style="stroke: #000000; stroke-width: 0.8"/>
      </defs>
      <g>
       <use xlink:href="#m097213b1f4" x="98.714347" y="291.6" style="stroke: #000000; stroke-width: 0.8"/>
      </g>
     </g>
     <g id="text_1">
      <!-- 0 -->
      <g transform="translate(93.214347 313.87625)scale(0.22 -0.22)">
       <defs>
        <path id="TimesNewRomanPSMT-30" d="M 231 2094 
Q 231 2819 450 3342 
Q 669 3866 1031 4122 
Q 1313 4325 1613 4325 
Q 2100 4325 2488 3828 
Q 2972 3213 2972 2159 
Q 2972 1422 2759 906 
Q 2547 391 2217 158 
Q 1888 -75 1581 -75 
Q 975 -75 572 641 
Q 231 1244 231 2094 
z
M 844 2016 
Q 844 1141 1059 588 
Q 1238 122 1591 122 
Q 1759 122 1940 273 
Q 2122 425 2216 781 
Q 2359 1319 2359 2297 
Q 2359 3022 2209 3506 
Q 2097 3866 1919 4016 
Q 1791 4119 1609 4119 
Q 1397 4119 1231 3928 
Q 1006 3669 925 3112 
Q 844 2556 844 2016 
z
" transform="scale(0.015625)"/>
       </defs>
       <use xlink:href="#TimesNewRomanPSMT-30"/>
      </g>
     </g>
    </g>
    <g id="xtick_2">
     <g id="line2d_2">
      <g>
       <use xlink:href="#m097213b1f4" x="180.040636" y="291.6" style="stroke: #000000; stroke-width: 0.8"/>
      </g>
     </g>
     <g id="text_2">
      <!-- 100 -->
      <g transform="translate(163.540636 313.87625)scale(0.22 -0.22)">
       <defs>
        <path id="TimesNewRomanPSMT-31" d="M 750 3822 
L 1781 4325 
L 1884 4325 
L 1884 747 
Q 1884 391 1914 303 
Q 1944 216 2037 169 
Q 2131 122 2419 116 
L 2419 0 
L 825 0 
L 825 116 
Q 1125 122 1212 167 
Q 1300 213 1334 289 
Q 1369 366 1369 747 
L 1369 3034 
Q 1369 3497 1338 3628 
Q 1316 3728 1258 3775 
Q 1200 3822 1119 3822 
Q 1003 3822 797 3725 
L 750 3822 
z
" transform="scale(0.015625)"/>
       </defs>
       <use xlink:href="#TimesNewRomanPSMT-31"/>
       <use xlink:href="#TimesNewRomanPSMT-30" x="50"/>
       <use xlink:href="#TimesNewRomanPSMT-30" x="100"/>
      </g>
     </g>
    </g>
    <g id="xtick_3">
     <g id="line2d_3">
      <g>
       <use xlink:href="#m097213b1f4" x="261.366924" y="291.6" style="stroke: #000000; stroke-width: 0.8"/>
      </g>
     </g>
     <g id="text_3">
      <!-- 200 -->
      <g transform="translate(244.866924 313.87625)scale(0.22 -0.22)">
       <defs>
        <path id="TimesNewRomanPSMT-32" d="M 2934 816 
L 2638 0 
L 138 0 
L 138 116 
Q 1241 1122 1691 1759 
Q 2141 2397 2141 2925 
Q 2141 3328 1894 3587 
Q 1647 3847 1303 3847 
Q 991 3847 742 3664 
Q 494 3481 375 3128 
L 259 3128 
Q 338 3706 661 4015 
Q 984 4325 1469 4325 
Q 1984 4325 2329 3994 
Q 2675 3663 2675 3213 
Q 2675 2891 2525 2569 
Q 2294 2063 1775 1497 
Q 997 647 803 472 
L 1909 472 
Q 2247 472 2383 497 
Q 2519 522 2628 598 
Q 2738 675 2819 816 
L 2934 816 
z
" transform="scale(0.015625)"/>
       </defs>
       <use xlink:href="#TimesNewRomanPSMT-32"/>
       <use xlink:href="#TimesNewRomanPSMT-30" x="50"/>
       <use xlink:href="#TimesNewRomanPSMT-30" x="100"/>
      </g>
     </g>
    </g>
    <g id="xtick_4">
     <g id="line2d_4">
      <g>
       <use xlink:href="#m097213b1f4" x="342.693213" y="291.6" style="stroke: #000000; stroke-width: 0.8"/>
      </g>
     </g>
     <g id="text_4">
      <!-- 300 -->
      <g transform="translate(326.193213 313.87625)scale(0.22 -0.22)">
       <defs>
        <path id="TimesNewRomanPSMT-33" d="M 325 3431 
Q 506 3859 782 4092 
Q 1059 4325 1472 4325 
Q 1981 4325 2253 3994 
Q 2459 3747 2459 3466 
Q 2459 3003 1878 2509 
Q 2269 2356 2469 2072 
Q 2669 1788 2669 1403 
Q 2669 853 2319 450 
Q 1863 -75 997 -75 
Q 569 -75 414 31 
Q 259 138 259 259 
Q 259 350 332 419 
Q 406 488 509 488 
Q 588 488 669 463 
Q 722 447 909 348 
Q 1097 250 1169 231 
Q 1284 197 1416 197 
Q 1734 197 1970 444 
Q 2206 691 2206 1028 
Q 2206 1275 2097 1509 
Q 2016 1684 1919 1775 
Q 1784 1900 1550 2001 
Q 1316 2103 1072 2103 
L 972 2103 
L 972 2197 
Q 1219 2228 1467 2375 
Q 1716 2522 1828 2728 
Q 1941 2934 1941 3181 
Q 1941 3503 1739 3701 
Q 1538 3900 1238 3900 
Q 753 3900 428 3381 
L 325 3431 
z
" transform="scale(0.015625)"/>
       </defs>
       <use xlink:href="#TimesNewRomanPSMT-33"/>
       <use xlink:href="#TimesNewRomanPSMT-30" x="50"/>
       <use xlink:href="#TimesNewRomanPSMT-30" x="100"/>
      </g>
     </g>
    </g>
    <g id="xtick_5">
     <g id="line2d_5">
      <g>
       <use xlink:href="#m097213b1f4" x="424.019502" y="291.6" style="stroke: #000000; stroke-width: 0.8"/>
      </g>
     </g>
     <g id="text_5">
      <!-- 400 -->
      <g transform="translate(407.519502 313.87625)scale(0.22 -0.22)">
       <defs>
        <path id="TimesNewRomanPSMT-34" d="M 2978 1563 
L 2978 1119 
L 2409 1119 
L 2409 0 
L 1894 0 
L 1894 1119 
L 100 1119 
L 100 1519 
L 2066 4325 
L 2409 4325 
L 2409 1563 
L 2978 1563 
z
M 1894 1563 
L 1894 3666 
L 406 1563 
L 1894 1563 
z
" transform="scale(0.015625)"/>
       </defs>
       <use xlink:href="#TimesNewRomanPSMT-34"/>
       <use xlink:href="#TimesNewRomanPSMT-30" x="50"/>
       <use xlink:href="#TimesNewRomanPSMT-30" x="100"/>
      </g>
     </g>
    </g>
    <g id="xtick_6">
     <g id="line2d_6">
      <g>
       <use xlink:href="#m097213b1f4" x="505.345791" y="291.6" style="stroke: #000000; stroke-width: 0.8"/>
      </g>
     </g>
     <g id="text_6">
      <!-- 500 -->
      <g transform="translate(488.845791 313.87625)scale(0.22 -0.22)">
       <defs>
        <path id="TimesNewRomanPSMT-35" d="M 2778 4238 
L 2534 3706 
L 1259 3706 
L 981 3138 
Q 1809 3016 2294 2522 
Q 2709 2097 2709 1522 
Q 2709 1188 2573 903 
Q 2438 619 2231 419 
Q 2025 219 1772 97 
Q 1413 -75 1034 -75 
Q 653 -75 479 54 
Q 306 184 306 341 
Q 306 428 378 495 
Q 450 563 559 563 
Q 641 563 702 538 
Q 763 513 909 409 
Q 1144 247 1384 247 
Q 1750 247 2026 523 
Q 2303 800 2303 1197 
Q 2303 1581 2056 1914 
Q 1809 2247 1375 2428 
Q 1034 2569 447 2591 
L 1259 4238 
L 2778 4238 
z
" transform="scale(0.015625)"/>
       </defs>
       <use xlink:href="#TimesNewRomanPSMT-35"/>
       <use xlink:href="#TimesNewRomanPSMT-30" x="50"/>
       <use xlink:href="#TimesNewRomanPSMT-30" x="100"/>
      </g>
     </g>
    </g>
    <g id="text_7">
     <!-- Roads -->
     <g transform="translate(274.121719 337.858438)scale(0.22 -0.22)">
      <defs>
       <path id="TimesNewRomanPSMT-52" d="M 4325 0 
L 3194 0 
L 1759 1981 
Q 1600 1975 1500 1975 
Q 1459 1975 1412 1976 
Q 1366 1978 1316 1981 
L 1316 750 
Q 1316 350 1403 253 
Q 1522 116 1759 116 
L 1925 116 
L 1925 0 
L 109 0 
L 109 116 
L 269 116 
Q 538 116 653 291 
Q 719 388 719 750 
L 719 3488 
Q 719 3888 631 3984 
Q 509 4122 269 4122 
L 109 4122 
L 109 4238 
L 1653 4238 
Q 2328 4238 2648 4139 
Q 2969 4041 3192 3777 
Q 3416 3513 3416 3147 
Q 3416 2756 3161 2468 
Q 2906 2181 2372 2063 
L 3247 847 
Q 3547 428 3762 290 
Q 3978 153 4325 116 
L 4325 0 
z
M 1316 2178 
Q 1375 2178 1419 2176 
Q 1463 2175 1491 2175 
Q 2097 2175 2405 2437 
Q 2713 2700 2713 3106 
Q 2713 3503 2464 3751 
Q 2216 4000 1806 4000 
Q 1625 4000 1316 3941 
L 1316 2178 
z
" transform="scale(0.015625)"/>
       <path id="TimesNewRomanPSMT-6f" d="M 1600 2947 
Q 2250 2947 2644 2453 
Q 2978 2031 2978 1484 
Q 2978 1100 2793 706 
Q 2609 313 2286 112 
Q 1963 -88 1566 -88 
Q 919 -88 538 428 
Q 216 863 216 1403 
Q 216 1797 411 2186 
Q 606 2575 925 2761 
Q 1244 2947 1600 2947 
z
M 1503 2744 
Q 1338 2744 1170 2645 
Q 1003 2547 900 2300 
Q 797 2053 797 1666 
Q 797 1041 1045 587 
Q 1294 134 1700 134 
Q 2003 134 2200 384 
Q 2397 634 2397 1244 
Q 2397 2006 2069 2444 
Q 1847 2744 1503 2744 
z
" transform="scale(0.015625)"/>
       <path id="TimesNewRomanPSMT-61" d="M 1822 413 
Q 1381 72 1269 19 
Q 1100 -59 909 -59 
Q 613 -59 420 144 
Q 228 347 228 678 
Q 228 888 322 1041 
Q 450 1253 767 1440 
Q 1084 1628 1822 1897 
L 1822 2009 
Q 1822 2438 1686 2597 
Q 1550 2756 1291 2756 
Q 1094 2756 978 2650 
Q 859 2544 859 2406 
L 866 2225 
Q 866 2081 792 2003 
Q 719 1925 600 1925 
Q 484 1925 411 2006 
Q 338 2088 338 2228 
Q 338 2497 613 2722 
Q 888 2947 1384 2947 
Q 1766 2947 2009 2819 
Q 2194 2722 2281 2516 
Q 2338 2381 2338 1966 
L 2338 994 
Q 2338 584 2353 492 
Q 2369 400 2405 369 
Q 2441 338 2488 338 
Q 2538 338 2575 359 
Q 2641 400 2828 588 
L 2828 413 
Q 2478 -56 2159 -56 
Q 2006 -56 1915 50 
Q 1825 156 1822 413 
z
M 1822 616 
L 1822 1706 
Q 1350 1519 1213 1441 
Q 966 1303 859 1153 
Q 753 1003 753 825 
Q 753 600 887 451 
Q 1022 303 1197 303 
Q 1434 303 1822 616 
z
" transform="scale(0.015625)"/>
       <path id="TimesNewRomanPSMT-64" d="M 2222 322 
Q 2013 103 1813 7 
Q 1613 -88 1381 -88 
Q 913 -88 563 304 
Q 213 697 213 1313 
Q 213 1928 600 2439 
Q 988 2950 1597 2950 
Q 1975 2950 2222 2709 
L 2222 3238 
Q 2222 3728 2198 3840 
Q 2175 3953 2125 3993 
Q 2075 4034 2000 4034 
Q 1919 4034 1784 3984 
L 1744 4094 
L 2597 4444 
L 2738 4444 
L 2738 1134 
Q 2738 631 2761 520 
Q 2784 409 2836 365 
Q 2888 322 2956 322 
Q 3041 322 3181 375 
L 3216 266 
L 2366 -88 
L 2222 -88 
L 2222 322 
z
M 2222 541 
L 2222 2016 
Q 2203 2228 2109 2403 
Q 2016 2578 1861 2667 
Q 1706 2756 1559 2756 
Q 1284 2756 1069 2509 
Q 784 2184 784 1559 
Q 784 928 1059 592 
Q 1334 256 1672 256 
Q 1956 256 2222 541 
z
" transform="scale(0.015625)"/>
       <path id="TimesNewRomanPSMT-73" d="M 2050 2947 
L 2050 1972 
L 1947 1972 
Q 1828 2431 1642 2597 
Q 1456 2763 1169 2763 
Q 950 2763 815 2647 
Q 681 2531 681 2391 
Q 681 2216 781 2091 
Q 878 1963 1175 1819 
L 1631 1597 
Q 2266 1288 2266 781 
Q 2266 391 1970 151 
Q 1675 -88 1309 -88 
Q 1047 -88 709 6 
Q 606 38 541 38 
Q 469 38 428 -44 
L 325 -44 
L 325 978 
L 428 978 
Q 516 541 762 319 
Q 1009 97 1316 97 
Q 1531 97 1667 223 
Q 1803 350 1803 528 
Q 1803 744 1651 891 
Q 1500 1038 1047 1263 
Q 594 1488 453 1669 
Q 313 1847 313 2119 
Q 313 2472 555 2709 
Q 797 2947 1181 2947 
Q 1350 2947 1591 2875 
Q 1750 2828 1803 2828 
Q 1853 2828 1881 2850 
Q 1909 2872 1947 2947 
L 2050 2947 
z
" transform="scale(0.015625)"/>
      </defs>
      <use xlink:href="#TimesNewRomanPSMT-52"/>
      <use xlink:href="#TimesNewRomanPSMT-6f" x="66.699219"/>
      <use xlink:href="#TimesNewRomanPSMT-61" x="116.699219"/>
      <use xlink:href="#TimesNewRomanPSMT-64" x="161.083984"/>
      <use xlink:href="#TimesNewRomanPSMT-73" x="211.083984"/>
     </g>
    </g>
   </g>
   <g id="matplotlib.axis_2">
    <g id="ytick_1">
     <g id="line2d_7">
      <defs>
       <path id="m1c3c169a79" d="M 0 0 
L -3.5 0 
" style="stroke: #000000; stroke-width: 0.8"/>
      </defs>
      <g>
       <use xlink:href="#m1c3c169a79" x="78.423438" y="279" style="stroke: #000000; stroke-width: 0.8"/>
      </g>
     </g>
     <g id="text_8">
      <!-- 0 -->
      <g transform="translate(60.423438 286.638125)scale(0.22 -0.22)">
       <use xlink:href="#TimesNewRomanPSMT-30"/>
      </g>
     </g>
    </g>
    <g id="ytick_2">
     <g id="line2d_8">
      <g>
       <use xlink:href="#m1c3c169a79" x="78.423438" y="203.246979" style="stroke: #000000; stroke-width: 0.8"/>
      </g>
     </g>
     <g id="text_9">
      <!-- 50 -->
      <g transform="translate(49.423438 210.885104)scale(0.22 -0.22)">
       <use xlink:href="#TimesNewRomanPSMT-35"/>
       <use xlink:href="#TimesNewRomanPSMT-30" x="50"/>
      </g>
     </g>
    </g>
    <g id="ytick_3">
     <g id="line2d_9">
      <g>
       <use xlink:href="#m1c3c169a79" x="78.423438" y="127.493958" style="stroke: #000000; stroke-width: 0.8"/>
      </g>
     </g>
     <g id="text_10">
      <!-- 100 -->
      <g transform="translate(38.423438 135.132083)scale(0.22 -0.22)">
       <use xlink:href="#TimesNewRomanPSMT-31"/>
       <use xlink:href="#TimesNewRomanPSMT-30" x="50"/>
       <use xlink:href="#TimesNewRomanPSMT-30" x="100"/>
      </g>
     </g>
    </g>
    <g id="ytick_4">
     <g id="line2d_10">
      <g>
       <use xlink:href="#m1c3c169a79" x="78.423438" y="51.740937" style="stroke: #000000; stroke-width: 0.8"/>
      </g>
     </g>
     <g id="text_11">
      <!-- 150 -->
      <g transform="translate(38.423438 59.379062)scale(0.22 -0.22)">
       <use xlink:href="#TimesNewRomanPSMT-31"/>
       <use xlink:href="#TimesNewRomanPSMT-35" x="50"/>
       <use xlink:href="#TimesNewRomanPSMT-30" x="100"/>
      </g>
     </g>
    </g>
    <g id="text_12">
     <!-- Density difference (veh/km) -->
     <g transform="translate(29.67625 277.42375)rotate(-90)scale(0.22 -0.22)">
      <defs>
       <path id="TimesNewRomanPSMT-44" d="M 109 0 
L 109 116 
L 269 116 
Q 538 116 650 288 
Q 719 391 719 750 
L 719 3488 
Q 719 3884 631 3984 
Q 509 4122 269 4122 
L 109 4122 
L 109 4238 
L 1834 4238 
Q 2784 4238 3279 4022 
Q 3775 3806 4076 3303 
Q 4378 2800 4378 2141 
Q 4378 1256 3841 663 
Q 3238 0 2003 0 
L 109 0 
z
M 1319 306 
Q 1716 219 1984 219 
Q 2709 219 3187 728 
Q 3666 1238 3666 2109 
Q 3666 2988 3187 3494 
Q 2709 4000 1959 4000 
Q 1678 4000 1319 3909 
L 1319 306 
z
" transform="scale(0.015625)"/>
       <path id="TimesNewRomanPSMT-65" d="M 681 1784 
Q 678 1147 991 784 
Q 1303 422 1725 422 
Q 2006 422 2214 576 
Q 2422 731 2563 1106 
L 2659 1044 
Q 2594 616 2278 264 
Q 1963 -88 1488 -88 
Q 972 -88 605 314 
Q 238 716 238 1394 
Q 238 2128 614 2539 
Q 991 2950 1559 2950 
Q 2041 2950 2350 2633 
Q 2659 2316 2659 1784 
L 681 1784 
z
M 681 1966 
L 2006 1966 
Q 1991 2241 1941 2353 
Q 1863 2528 1708 2628 
Q 1553 2728 1384 2728 
Q 1125 2728 920 2526 
Q 716 2325 681 1966 
z
" transform="scale(0.015625)"/>
       <path id="TimesNewRomanPSMT-6e" d="M 1034 2341 
Q 1538 2947 1994 2947 
Q 2228 2947 2397 2830 
Q 2566 2713 2666 2444 
Q 2734 2256 2734 1869 
L 2734 647 
Q 2734 375 2778 278 
Q 2813 200 2889 156 
Q 2966 113 3172 113 
L 3172 0 
L 1756 0 
L 1756 113 
L 1816 113 
Q 2016 113 2095 173 
Q 2175 234 2206 353 
Q 2219 400 2219 647 
L 2219 1819 
Q 2219 2209 2117 2386 
Q 2016 2563 1775 2563 
Q 1403 2563 1034 2156 
L 1034 647 
Q 1034 356 1069 288 
Q 1113 197 1189 155 
Q 1266 113 1500 113 
L 1500 0 
L 84 0 
L 84 113 
L 147 113 
Q 366 113 442 223 
Q 519 334 519 647 
L 519 1709 
Q 519 2225 495 2337 
Q 472 2450 423 2490 
Q 375 2531 294 2531 
Q 206 2531 84 2484 
L 38 2597 
L 900 2947 
L 1034 2947 
L 1034 2341 
z
" transform="scale(0.015625)"/>
       <path id="TimesNewRomanPSMT-69" d="M 928 4444 
Q 1059 4444 1151 4351 
Q 1244 4259 1244 4128 
Q 1244 3997 1151 3903 
Q 1059 3809 928 3809 
Q 797 3809 703 3903 
Q 609 3997 609 4128 
Q 609 4259 701 4351 
Q 794 4444 928 4444 
z
M 1188 2947 
L 1188 647 
Q 1188 378 1227 289 
Q 1266 200 1342 156 
Q 1419 113 1622 113 
L 1622 0 
L 231 0 
L 231 113 
Q 441 113 512 153 
Q 584 194 626 287 
Q 669 381 669 647 
L 669 1750 
Q 669 2216 641 2353 
Q 619 2453 572 2492 
Q 525 2531 444 2531 
Q 356 2531 231 2484 
L 188 2597 
L 1050 2947 
L 1188 2947 
z
" transform="scale(0.015625)"/>
       <path id="TimesNewRomanPSMT-74" d="M 1031 3803 
L 1031 2863 
L 1700 2863 
L 1700 2644 
L 1031 2644 
L 1031 788 
Q 1031 509 1111 412 
Q 1191 316 1316 316 
Q 1419 316 1516 380 
Q 1613 444 1666 569 
L 1788 569 
Q 1678 263 1478 108 
Q 1278 -47 1066 -47 
Q 922 -47 784 33 
Q 647 113 581 261 
Q 516 409 516 719 
L 516 2644 
L 63 2644 
L 63 2747 
Q 234 2816 414 2980 
Q 594 3144 734 3369 
Q 806 3488 934 3803 
L 1031 3803 
z
" transform="scale(0.015625)"/>
       <path id="TimesNewRomanPSMT-79" d="M 38 2863 
L 1372 2863 
L 1372 2747 
L 1306 2747 
Q 1166 2747 1095 2686 
Q 1025 2625 1025 2534 
Q 1025 2413 1128 2197 
L 1825 753 
L 2466 2334 
Q 2519 2463 2519 2588 
Q 2519 2644 2497 2672 
Q 2472 2706 2419 2726 
Q 2366 2747 2231 2747 
L 2231 2863 
L 3163 2863 
L 3163 2747 
Q 3047 2734 2984 2696 
Q 2922 2659 2847 2556 
Q 2819 2513 2741 2316 
L 1575 -541 
Q 1406 -956 1132 -1168 
Q 859 -1381 606 -1381 
Q 422 -1381 303 -1275 
Q 184 -1169 184 -1031 
Q 184 -900 270 -820 
Q 356 -741 506 -741 
Q 609 -741 788 -809 
Q 913 -856 944 -856 
Q 1038 -856 1148 -759 
Q 1259 -663 1372 -384 
L 1575 113 
L 547 2272 
Q 500 2369 397 2513 
Q 319 2622 269 2659 
Q 197 2709 38 2747 
L 38 2863 
z
" transform="scale(0.015625)"/>
       <path id="TimesNewRomanPSMT-20" transform="scale(0.015625)"/>
       <path id="TimesNewRomanPSMT-66" d="M 1319 2638 
L 1319 756 
Q 1319 356 1406 250 
Q 1522 113 1716 113 
L 1975 113 
L 1975 0 
L 266 0 
L 266 113 
L 394 113 
Q 519 113 622 175 
Q 725 238 764 344 
Q 803 450 803 756 
L 803 2638 
L 247 2638 
L 247 2863 
L 803 2863 
L 803 3050 
Q 803 3478 940 3775 
Q 1078 4072 1361 4255 
Q 1644 4438 1997 4438 
Q 2325 4438 2600 4225 
Q 2781 4084 2781 3909 
Q 2781 3816 2700 3733 
Q 2619 3650 2525 3650 
Q 2453 3650 2373 3701 
Q 2294 3753 2178 3923 
Q 2063 4094 1966 4153 
Q 1869 4213 1750 4213 
Q 1606 4213 1506 4136 
Q 1406 4059 1362 3898 
Q 1319 3738 1319 3069 
L 1319 2863 
L 2056 2863 
L 2056 2638 
L 1319 2638 
z
" transform="scale(0.015625)"/>
       <path id="TimesNewRomanPSMT-72" d="M 1038 2947 
L 1038 2303 
Q 1397 2947 1775 2947 
Q 1947 2947 2059 2842 
Q 2172 2738 2172 2600 
Q 2172 2478 2090 2393 
Q 2009 2309 1897 2309 
Q 1788 2309 1652 2417 
Q 1516 2525 1450 2525 
Q 1394 2525 1328 2463 
Q 1188 2334 1038 2041 
L 1038 669 
Q 1038 431 1097 309 
Q 1138 225 1241 169 
Q 1344 113 1538 113 
L 1538 0 
L 72 0 
L 72 113 
Q 291 113 397 181 
Q 475 231 506 341 
Q 522 394 522 644 
L 522 1753 
Q 522 2253 501 2348 
Q 481 2444 426 2487 
Q 372 2531 291 2531 
Q 194 2531 72 2484 
L 41 2597 
L 906 2947 
L 1038 2947 
z
" transform="scale(0.015625)"/>
       <path id="TimesNewRomanPSMT-63" d="M 2631 1088 
Q 2516 522 2178 217 
Q 1841 -88 1431 -88 
Q 944 -88 581 321 
Q 219 731 219 1428 
Q 219 2103 620 2525 
Q 1022 2947 1584 2947 
Q 2006 2947 2278 2723 
Q 2550 2500 2550 2259 
Q 2550 2141 2473 2067 
Q 2397 1994 2259 1994 
Q 2075 1994 1981 2113 
Q 1928 2178 1911 2362 
Q 1894 2547 1784 2644 
Q 1675 2738 1481 2738 
Q 1169 2738 978 2506 
Q 725 2200 725 1697 
Q 725 1184 976 792 
Q 1228 400 1656 400 
Q 1963 400 2206 609 
Q 2378 753 2541 1131 
L 2631 1088 
z
" transform="scale(0.015625)"/>
       <path id="TimesNewRomanPSMT-28" d="M 1988 -1253 
L 1988 -1369 
Q 1516 -1131 1200 -813 
Q 750 -359 506 256 
Q 263 872 263 1534 
Q 263 2503 741 3301 
Q 1219 4100 1988 4444 
L 1988 4313 
Q 1603 4100 1356 3731 
Q 1109 3363 987 2797 
Q 866 2231 866 1616 
Q 866 947 969 400 
Q 1050 -31 1165 -292 
Q 1281 -553 1476 -793 
Q 1672 -1034 1988 -1253 
z
" transform="scale(0.015625)"/>
       <path id="TimesNewRomanPSMT-76" d="M 53 2863 
L 1400 2863 
L 1400 2747 
L 1313 2747 
Q 1191 2747 1127 2687 
Q 1063 2628 1063 2528 
Q 1063 2419 1128 2269 
L 1794 688 
L 2463 2328 
Q 2534 2503 2534 2594 
Q 2534 2638 2509 2666 
Q 2475 2713 2422 2730 
Q 2369 2747 2206 2747 
L 2206 2863 
L 3141 2863 
L 3141 2747 
Q 2978 2734 2916 2681 
Q 2806 2588 2719 2369 
L 1703 -88 
L 1575 -88 
L 553 2328 
Q 484 2497 421 2570 
Q 359 2644 263 2694 
Q 209 2722 53 2747 
L 53 2863 
z
" transform="scale(0.015625)"/>
       <path id="TimesNewRomanPSMT-68" d="M 1041 4444 
L 1041 2350 
Q 1388 2731 1591 2839 
Q 1794 2947 1997 2947 
Q 2241 2947 2416 2812 
Q 2591 2678 2675 2391 
Q 2734 2191 2734 1659 
L 2734 647 
Q 2734 375 2778 275 
Q 2809 200 2884 156 
Q 2959 113 3159 113 
L 3159 0 
L 1753 0 
L 1753 113 
L 1819 113 
Q 2019 113 2097 173 
Q 2175 234 2206 353 
Q 2216 403 2216 647 
L 2216 1659 
Q 2216 2128 2167 2275 
Q 2119 2422 2012 2495 
Q 1906 2569 1756 2569 
Q 1603 2569 1437 2487 
Q 1272 2406 1041 2159 
L 1041 647 
Q 1041 353 1073 281 
Q 1106 209 1195 161 
Q 1284 113 1503 113 
L 1503 0 
L 84 0 
L 84 113 
Q 275 113 384 172 
Q 447 203 484 290 
Q 522 378 522 647 
L 522 3238 
Q 522 3728 498 3840 
Q 475 3953 426 3993 
Q 378 4034 297 4034 
Q 231 4034 84 3984 
L 41 4094 
L 897 4444 
L 1041 4444 
z
" transform="scale(0.015625)"/>
       <path id="TimesNewRomanPSMT-2f" d="M 1794 4444 
L 259 -88 
L 9 -88 
L 1544 4444 
L 1794 4444 
z
" transform="scale(0.015625)"/>
       <path id="TimesNewRomanPSMT-6b" d="M 1047 4444 
L 1047 1594 
L 1775 2259 
Q 2006 2472 2044 2528 
Q 2069 2566 2069 2603 
Q 2069 2666 2017 2711 
Q 1966 2756 1847 2763 
L 1847 2863 
L 3091 2863 
L 3091 2763 
Q 2834 2756 2664 2684 
Q 2494 2613 2291 2428 
L 1556 1750 
L 2291 822 
Q 2597 438 2703 334 
Q 2853 188 2966 144 
Q 3044 113 3238 113 
L 3238 0 
L 1847 0 
L 1847 113 
Q 1966 116 2008 148 
Q 2050 181 2050 241 
Q 2050 313 1925 472 
L 1047 1594 
L 1047 644 
Q 1047 366 1086 278 
Q 1125 191 1197 153 
Q 1269 116 1509 113 
L 1509 0 
L 53 0 
L 53 113 
Q 272 113 381 166 
Q 447 200 481 272 
Q 528 375 528 628 
L 528 3234 
Q 528 3731 506 3842 
Q 484 3953 434 3995 
Q 384 4038 303 4038 
Q 238 4038 106 3984 
L 53 4094 
L 903 4444 
L 1047 4444 
z
" transform="scale(0.015625)"/>
       <path id="TimesNewRomanPSMT-6d" d="M 1050 2338 
Q 1363 2650 1419 2697 
Q 1559 2816 1721 2881 
Q 1884 2947 2044 2947 
Q 2313 2947 2506 2790 
Q 2700 2634 2766 2338 
Q 3088 2713 3309 2830 
Q 3531 2947 3766 2947 
Q 3994 2947 4170 2830 
Q 4347 2713 4450 2447 
Q 4519 2266 4519 1878 
L 4519 647 
Q 4519 378 4559 278 
Q 4591 209 4675 161 
Q 4759 113 4950 113 
L 4950 0 
L 3538 0 
L 3538 113 
L 3597 113 
Q 3781 113 3884 184 
Q 3956 234 3988 344 
Q 4000 397 4000 647 
L 4000 1878 
Q 4000 2228 3916 2372 
Q 3794 2572 3525 2572 
Q 3359 2572 3192 2489 
Q 3025 2406 2788 2181 
L 2781 2147 
L 2788 2013 
L 2788 647 
Q 2788 353 2820 281 
Q 2853 209 2943 161 
Q 3034 113 3253 113 
L 3253 0 
L 1806 0 
L 1806 113 
Q 2044 113 2133 169 
Q 2222 225 2256 338 
Q 2272 391 2272 647 
L 2272 1878 
Q 2272 2228 2169 2381 
Q 2031 2581 1784 2581 
Q 1616 2581 1450 2491 
Q 1191 2353 1050 2181 
L 1050 647 
Q 1050 366 1089 281 
Q 1128 197 1204 155 
Q 1281 113 1516 113 
L 1516 0 
L 100 0 
L 100 113 
Q 297 113 375 155 
Q 453 197 493 289 
Q 534 381 534 647 
L 534 1741 
Q 534 2213 506 2350 
Q 484 2453 437 2492 
Q 391 2531 309 2531 
Q 222 2531 100 2484 
L 53 2597 
L 916 2947 
L 1050 2947 
L 1050 2338 
z
" transform="scale(0.015625)"/>
       <path id="TimesNewRomanPSMT-29" d="M 144 4313 
L 144 4444 
Q 619 4209 934 3891 
Q 1381 3434 1625 2820 
Q 1869 2206 1869 1541 
Q 1869 572 1392 -226 
Q 916 -1025 144 -1369 
L 144 -1253 
Q 528 -1038 776 -670 
Q 1025 -303 1145 264 
Q 1266 831 1266 1447 
Q 1266 2113 1163 2663 
Q 1084 3094 967 3353 
Q 850 3613 656 3853 
Q 463 4094 144 4313 
z
" transform="scale(0.015625)"/>
      </defs>
      <use xlink:href="#TimesNewRomanPSMT-44"/>
      <use xlink:href="#TimesNewRomanPSMT-65" x="72.216797"/>
      <use xlink:href="#TimesNewRomanPSMT-6e" x="116.601562"/>
      <use xlink:href="#TimesNewRomanPSMT-73" x="166.601562"/>
      <use xlink:href="#TimesNewRomanPSMT-69" x="205.517578"/>
      <use xlink:href="#TimesNewRomanPSMT-74" x="233.300781"/>
      <use xlink:href="#TimesNewRomanPSMT-79" x="261.083984"/>
      <use xlink:href="#TimesNewRomanPSMT-20" x="311.083984"/>
      <use xlink:href="#TimesNewRomanPSMT-64" x="336.083984"/>
      <use xlink:href="#TimesNewRomanPSMT-69" x="386.083984"/>
      <use xlink:href="#TimesNewRomanPSMT-66" x="413.867188"/>
      <use xlink:href="#TimesNewRomanPSMT-66" x="445.417969"/>
      <use xlink:href="#TimesNewRomanPSMT-65" x="478.71875"/>
      <use xlink:href="#TimesNewRomanPSMT-72" x="523.103516"/>
      <use xlink:href="#TimesNewRomanPSMT-65" x="556.404297"/>
      <use xlink:href="#TimesNewRomanPSMT-6e" x="600.789062"/>
      <use xlink:href="#TimesNewRomanPSMT-63" x="650.789062"/>
      <use xlink:href="#TimesNewRomanPSMT-65" x="695.173828"/>
      <use xlink:href="#TimesNewRomanPSMT-20" x="739.558594"/>
      <use xlink:href="#TimesNewRomanPSMT-28" x="764.558594"/>
      <use xlink:href="#TimesNewRomanPSMT-76" x="797.859375"/>
      <use xlink:href="#TimesNewRomanPSMT-65" x="847.859375"/>
      <use xlink:href="#TimesNewRomanPSMT-68" x="892.244141"/>
      <use xlink:href="#TimesNewRomanPSMT-2f" x="942.244141"/>
      <use xlink:href="#TimesNewRomanPSMT-6b" x="970.027344"/>
      <use xlink:href="#TimesNewRomanPSMT-6d" x="1020.027344"/>
      <use xlink:href="#TimesNewRomanPSMT-29" x="1097.810547"/>
     </g>
    </g>
   </g>
   <g id="line2d_11">
    <path d="M 98.714347 260.349606 
L 100.340872 260.258703 
L 101.154135 259.773883 
L 102.780661 259.743582 
L 103.593924 259.713281 
L 104.407187 259.546624 
L 106.033713 259.470871 
L 106.846975 259.319365 
L 109.286764 259.122407 
L 112.539816 258.864847 
L 113.353079 258.804245 
L 114.166341 258.273973 
L 114.979604 258.077016 
L 118.232656 258.061865 
L 119.045919 258.031564 
L 119.859182 257.622497 
L 120.672445 257.607347 
L 123.112233 257.061925 
L 123.925496 256.668009 
L 125.552022 256.243792 
L 127.178548 256.107437 
L 127.991811 255.789274 
L 128.805073 255.819576 
L 130.431599 255.531714 
L 131.244862 255.546865 
L 132.058125 255.001443 
L 133.684651 254.92569 
L 135.311177 254.910539 
L 140.190754 254.365118 
L 141.004017 254.410569 
L 141.81728 254.107557 
L 142.630543 254.001503 
L 144.257068 252.850057 
L 145.070331 251.547105 
L 146.696857 251.031985 
L 148.323383 250.804726 
L 149.136646 250.789575 
L 149.949909 250.577466 
L 151.576434 250.547165 
L 152.389697 250.335057 
L 153.20296 249.562376 
L 157.269275 249.092707 
L 158.8958 248.971502 
L 160.522326 248.15337 
L 161.335589 248.107918 
L 162.148852 247.835207 
L 162.962115 247.683701 
L 163.775378 247.168581 
L 166.215166 246.592858 
L 167.028429 246.15349 
L 167.841692 245.335357 
L 168.654955 245.229303 
L 169.468218 245.244454 
L 170.281481 245.092948 
L 171.908007 245.002044 
L 173.534532 244.350568 
L 175.161058 244.289966 
L 178.41411 243.89605 
L 179.227373 243.305176 
L 180.040636 243.214273 
L 180.853898 243.002164 
L 181.667161 242.108279 
L 182.480424 242.002224 
L 184.920213 242.13858 
L 185.733476 241.365899 
L 186.546739 241.214393 
L 187.360002 240.39626 
L 188.173264 240.38111 
L 190.613053 239.653881 
L 191.426316 239.62358 
L 192.239579 238.987254 
L 193.866105 238.911501 
L 194.679368 238.563037 
L 195.49263 237.987314 
L 196.305893 236.805567 
L 197.932419 236.12379 
L 198.745682 235.926832 
L 199.558945 235.926832 
L 201.998734 235.411712 
L 202.811996 235.517766 
L 204.438522 235.532916 
L 205.251785 235.305657 
L 206.065048 235.351109 
L 206.878311 234.472374 
L 207.691574 234.245115 
L 208.504837 234.139061 
L 209.3181 233.078519 
L 210.131362 232.578549 
L 210.944625 232.427043 
L 211.757888 231.730115 
L 212.571151 231.411952 
L 213.384414 229.987795 
L 215.01094 230.002946 
L 217.450728 227.306138 
L 218.263991 226.987976 
L 219.890517 226.85162 
L 220.70378 227.09403 
L 222.330306 226.85162 
L 223.956832 226.684964 
L 224.770094 223.973005 
L 225.583357 223.700295 
L 226.39662 223.245776 
L 227.209883 223.154873 
L 228.023146 222.412493 
L 229.649672 222.276138 
L 230.462935 221.942825 
L 231.276198 221.215596 
L 232.08946 220.715626 
L 232.902723 219.412674 
L 233.715986 218.791499 
L 234.529249 217.337041 
L 236.155775 216.973426 
L 236.969038 215.912884 
L 237.782301 215.867432 
L 238.595564 214.170565 
L 239.408826 213.897854 
L 240.222089 213.761498 
L 241.035352 213.06457 
L 241.848615 211.943426 
L 242.661878 211.928275 
L 243.475141 209.307221 
L 244.288404 209.019359 
L 245.101667 208.352733 
L 245.91493 207.928516 
L 246.728192 206.761919 
L 247.541455 206.671015 
L 248.354718 206.140744 
L 249.981244 205.79228 
L 250.794507 204.51963 
L 251.60777 204.655985 
L 252.421033 203.837852 
L 253.234296 203.504539 
L 254.047558 202.640955 
L 254.860821 201.974328 
L 255.674084 200.853183 
L 256.487347 196.232249 
L 257.30061 195.48987 
L 258.113873 195.823183 
L 258.927136 196.020141 
L 259.740399 196.050442 
L 260.553662 192.005231 
L 261.366924 191.49011 
L 262.180187 189.505381 
L 262.99345 188.141826 
L 263.806713 187.960019 
L 264.619976 187.338844 
L 265.433239 187.263091 
L 266.246502 183.839055 
L 267.873028 183.566344 
L 268.68629 181.975531 
L 269.499553 180.869536 
L 271.126079 180.112006 
L 272.752605 178.46059 
L 273.565868 178.309084 
L 274.379131 176.369807 
L 275.192394 175.248662 
L 276.818919 174.536584 
L 277.632182 170.794385 
L 278.445445 170.627728 
L 280.885234 161.916131 
L 281.698497 161.416161 
L 282.51176 158.264835 
L 283.325022 156.88613 
L 284.138285 155.946793 
L 284.951548 155.537726 
L 285.764811 153.840859 
L 286.578074 153.492395 
L 287.391337 151.795527 
L 288.2046 151.765226 
L 289.017863 151.250105 
L 289.831126 149.780497 
L 290.644388 149.553238 
L 292.270914 147.492755 
L 293.084177 146.644322 
L 294.710703 144.326279 
L 295.523966 142.462755 
L 296.337229 141.735526 
L 297.150492 141.629472 
L 297.963754 139.82655 
L 298.777017 139.417483 
L 300.403543 139.281128 
L 301.216806 137.705465 
L 302.030069 137.796369 
L 302.843332 138.06908 
L 304.469858 138.053929 
L 305.283121 137.599411 
L 306.909646 136.129802 
L 308.536172 134.963206 
L 309.349435 134.235977 
L 310.162698 134.235977 
L 310.975961 133.448145 
L 311.789224 133.463296 
L 312.602487 133.236037 
L 313.415749 133.160284 
L 314.229012 133.387543 
L 315.855538 133.205736 
L 316.668801 133.296639 
L 318.295327 132.978477 
L 320.735115 133.190585 
L 321.548378 133.023928 
L 322.361641 133.129983 
L 323.174904 133.05423 
L 325.614693 133.190585 
L 326.427956 133.145133 
L 328.867744 133.478446 
L 329.681007 133.81176 
L 330.49427 133.81176 
L 331.307533 134.099621 
L 335.373847 134.31173 
L 336.18711 134.56929 
L 337.000373 134.690495 
L 337.813636 135.205615 
L 338.626899 135.205615 
L 341.066688 135.751037 
L 345.133002 136.008597 
L 345.946265 136.311609 
L 346.759528 137.038838 
L 349.199317 137.766067 
L 352.452368 138.766007 
L 353.265631 138.796309 
L 354.078894 139.023568 
L 355.70542 140.068959 
L 356.518683 140.296218 
L 359.771734 140.690134 
L 361.39826 141.023447 
L 363.838049 141.159803 
L 367.904363 141.568869 
L 368.717626 141.58402 
L 369.530889 141.84158 
L 372.78394 142.280948 
L 373.597203 142.644562 
L 375.223729 142.811219 
L 376.036992 143.023327 
L 378.476781 143.08393 
L 379.290043 143.265737 
L 380.103306 143.311189 
L 380.916569 143.705104 
L 381.729832 143.932363 
L 382.543095 144.008116 
L 384.169621 144.720195 
L 384.982884 144.735345 
L 385.796147 145.144412 
L 389.049198 145.765586 
L 389.862461 146.886731 
L 391.488987 147.174593 
L 393.115513 147.720014 
L 395.555301 148.083629 
L 397.99509 148.932063 
L 398.808353 148.992665 
L 400.434879 149.735045 
L 401.248141 150.37137 
L 402.061404 150.386521 
L 402.874667 150.598629 
L 403.68793 150.674382 
L 404.501193 151.507665 
L 405.314456 151.553117 
L 406.127719 151.810678 
L 407.754245 151.901581 
L 408.567507 152.189443 
L 410.194033 152.280346 
L 411.007296 153.401491 
L 411.820559 153.401491 
L 413.447085 154.143871 
L 414.260348 154.174172 
L 415.073611 154.583238 
L 416.700136 154.840798 
L 417.513399 155.507425 
L 419.953188 156.674022 
L 420.766451 157.840618 
L 423.206239 158.507245 
L 424.832765 158.825407 
L 427.272554 159.492034 
L 428.085817 160.582877 
L 428.89908 161.294956 
L 429.712343 161.704022 
L 430.525605 161.885829 
L 431.338868 161.90098 
L 432.152131 163.173631 
L 432.965394 163.552396 
L 434.59192 163.976613 
L 436.218446 165.370468 
L 437.031709 165.824986 
L 438.658234 169.158119 
L 439.471497 170.17321 
L 440.28476 170.809535 
L 441.911286 170.824686 
L 442.724549 171.17315 
L 443.537812 172.385198 
L 444.351075 173.233632 
L 445.164337 174.369927 
L 445.9776 174.460831 
L 446.790863 170.521674 
L 447.604126 172.491252 
L 448.417389 170.036854 
L 450.043915 172.597307 
L 450.857178 173.779054 
L 451.670441 174.642638 
L 452.483703 173.763903 
L 453.296966 172.036734 
L 454.110229 171.279204 
L 454.923492 170.127758 
L 455.736755 168.309686 
L 457.363281 168.658149 
L 458.176544 166.824926 
L 458.989807 163.567546 
L 459.803069 164.885649 
L 460.616332 164.006914 
L 461.429595 164.961402 
L 462.242858 163.249384 
L 463.056121 161.249504 
L 463.869384 162.613058 
L 464.682647 160.14351 
L 465.49591 160.279865 
L 466.309173 157.204293 
L 467.122435 155.795286 
L 467.935698 156.037696 
L 468.748961 153.280286 
L 469.562224 129.099922 
L 470.375487 127.81212 
L 471.18875 121.509469 
L 472.002013 98.283593 
L 472.815276 88.253893 
L 473.628539 80.40588 
L 474.441802 88.859917 
L 475.255064 83.769314 
L 476.068327 83.360248 
L 476.88159 91.102206 
L 477.694853 78.769615 
L 478.508116 81.633079 
L 479.321379 76.875789 
L 480.134642 81.360368 
L 480.947905 80.708892 
L 481.761168 77.618169 
L 482.57443 79.345338 
L 483.387693 75.239524 
L 484.200956 75.178921 
L 485.014219 74.557747 
L 485.827482 79.830157 
L 486.640745 79.40594 
L 487.454008 77.860578 
L 488.267271 75.921301 
L 489.080534 78.102988 
L 489.893796 83.451151 
L 490.707059 84.16323 
L 491.520322 81.890639 
L 492.333585 80.860398 
L 493.146848 80.102868 
L 493.960111 79.830157 
L 495.586637 76.981843 
L 498.026425 76.981843 
L 498.839688 104.889256 
L 499.652951 149.719894 
L 500.466214 170.779234 
L 501.279477 195.565623 
L 502.09274 213.443336 
L 502.906003 252.395539 
L 503.719266 274.409367 
L 504.532528 279 
L 504.532528 279 
" clip-path="url(#p2c892ce5b3)" style="fill: none; stroke: #45aaf2; stroke-width: 1.5; stroke-linecap: square"/>
   </g>
   <g id="line2d_12">
    <path d="M 98.714347 261.228341 
L 101.967398 261.031383 
L 102.780661 261.076835 
L 104.407187 260.925329 
L 108.473501 260.546564 
L 110.100027 260.319305 
L 110.91329 260.334456 
L 111.726553 260.152648 
L 117.419393 260.228401 
L 119.859182 259.501172 
L 120.672445 259.516323 
L 121.485707 259.410269 
L 123.112233 259.349666 
L 127.991811 258.910299 
L 128.805073 258.68304 
L 130.431599 258.470931 
L 133.684651 257.955811 
L 135.311177 258.016413 
L 136.937702 257.880058 
L 140.190754 257.864907 
L 141.004017 257.607347 
L 145.883594 257.334636 
L 146.696857 256.986172 
L 147.51012 256.880118 
L 148.323383 256.895268 
L 149.136646 256.516503 
L 149.949909 256.395299 
L 151.576434 256.501353 
L 152.389697 256.501353 
L 153.20296 256.107437 
L 154.016223 255.895329 
L 155.642749 255.895329 
L 157.269275 255.955931 
L 158.8958 255.698371 
L 159.709063 255.66807 
L 160.522326 255.380208 
L 161.335589 255.349907 
L 162.148852 255.046895 
L 162.962115 255.001443 
L 163.775378 254.743883 
L 164.588641 254.228762 
L 165.401904 254.031804 
L 166.215166 253.66819 
L 167.028429 253.607587 
L 167.841692 253.410629 
L 168.654955 253.410629 
L 169.468218 253.546985 
L 171.094744 253.350027 
L 172.72127 253.410629 
L 176.787584 253.153069 
L 178.41411 252.547045 
L 180.040636 252.198581 
L 180.853898 251.865268 
L 183.293687 251.850117 
L 184.920213 251.365298 
L 185.733476 251.531955 
L 186.546739 251.531955 
L 187.360002 251.395599 
L 188.173264 251.395599 
L 188.986527 251.122888 
L 191.426316 250.986533 
L 192.239579 251.016834 
L 193.866105 250.319906 
L 196.305893 250.138099 
L 197.119156 249.713882 
L 198.745682 249.638129 
L 199.558945 249.183611 
L 200.372208 249.077557 
L 201.185471 249.107858 
L 201.998734 248.744243 
L 202.811996 248.729093 
L 203.625259 248.395779 
L 204.438522 248.41093 
L 205.251785 248.244273 
L 206.065048 247.592797 
L 206.878311 247.214032 
L 207.691574 247.244334 
L 208.504837 247.077677 
L 209.3181 246.668611 
L 210.131362 246.471653 
L 210.944625 245.365659 
L 211.757888 244.835387 
L 212.571151 244.699032 
L 214.197677 244.805086 
L 215.01094 244.471773 
L 216.637466 244.380869 
L 217.450728 243.577887 
L 218.263991 243.593038 
L 219.890517 243.244574 
L 220.70378 243.365779 
L 221.517043 243.259725 
L 222.330306 243.305176 
L 223.143569 242.562797 
L 224.770094 242.062827 
L 225.583357 241.411351 
L 226.39662 241.184092 
L 227.209883 240.38111 
L 228.023146 240.002345 
L 228.836409 239.972044 
L 229.649672 239.62358 
L 230.462935 239.729634 
L 231.276198 239.169062 
L 232.08946 239.12361 
L 232.902723 239.472074 
L 233.715986 239.002405 
L 234.529249 237.547947 
L 235.342512 237.290387 
L 236.155775 237.305537 
L 236.969038 236.290447 
L 237.782301 235.563218 
L 239.408826 235.184453 
L 241.035352 235.1087 
L 241.848615 233.654242 
L 243.475141 231.760416 
L 244.288404 231.86647 
L 245.101667 231.669512 
L 245.91493 230.730175 
L 246.728192 230.033247 
L 247.541455 229.775687 
L 248.354718 228.881801 
L 249.167981 228.35153 
L 249.981244 228.35153 
L 250.794507 225.988036 
L 251.60777 225.09415 
L 252.421033 224.927494 
L 253.234296 223.503337 
L 254.047558 222.473096 
L 254.860821 222.109481 
L 255.674084 222.33674 
L 256.487347 222.32159 
L 258.113873 220.958035 
L 258.927136 220.776228 
L 259.740399 220.291409 
L 260.553662 220.185354 
L 262.180187 218.609692 
L 262.99345 218.609692 
L 263.806713 218.488487 
L 264.619976 218.033969 
L 265.433239 217.30674 
L 266.246502 216.291649 
L 267.059765 214.003908 
L 267.873028 213.655444 
L 268.68629 213.625143 
L 269.499553 212.579751 
L 270.312816 212.246438 
L 271.126079 209.519329 
L 271.939342 209.54963 
L 272.752605 209.382974 
L 273.565868 207.898214 
L 274.379131 207.701257 
L 275.192394 201.747069 
L 276.818919 201.459208 
L 277.632182 200.247159 
L 278.445445 197.959418 
L 280.885234 193.565743 
L 281.698497 192.202188 
L 282.51176 191.353755 
L 283.325022 191.096194 
L 284.138285 190.217459 
L 285.764811 187.490351 
L 287.391337 186.626766 
L 288.2046 186.460109 
L 289.831126 184.884447 
L 290.644388 183.642097 
L 291.457651 182.096735 
L 292.270914 176.824325 
L 293.084177 175.718331 
L 293.89744 175.324415 
L 294.710703 173.93056 
L 295.523966 173.44574 
L 296.337229 169.552035 
L 297.150492 168.582396 
L 297.963754 168.43089 
L 298.777017 167.521854 
L 299.59028 164.15842 
L 300.403543 163.91601 
L 301.216806 163.809956 
L 302.030069 163.870559 
L 302.843332 163.309986 
L 303.656595 163.355438 
L 304.469858 162.340348 
L 306.096383 162.188841 
L 306.909646 159.370829 
L 308.536172 158.022425 
L 310.975961 156.477064 
L 311.789224 155.795286 
L 312.602487 155.62863 
L 313.415749 155.098359 
L 314.229012 153.38634 
L 315.042275 152.977274 
L 315.855538 151.825828 
L 317.482064 151.098599 
L 318.295327 150.947093 
L 319.10859 150.992545 
L 319.921853 151.295557 
L 320.735115 150.947093 
L 321.548378 150.931943 
L 322.361641 150.507726 
L 323.174904 150.447123 
L 323.988167 149.568388 
L 324.80143 149.265376 
L 325.614693 148.689653 
L 326.427956 147.735165 
L 327.241219 147.583659 
L 328.054481 147.265496 
L 328.867744 147.265496 
L 329.681007 145.068659 
L 330.49427 144.523237 
L 331.307533 143.750556 
L 332.120796 143.796008 
L 332.934059 143.59905 
L 333.747322 142.85667 
L 335.373847 142.705164 
L 336.18711 142.962725 
L 337.813636 142.114291 
L 338.626899 141.371911 
L 339.440162 141.356761 
L 340.253425 141.523417 
L 341.066688 141.265857 
L 341.879951 141.281008 
L 342.693213 140.644682 
L 344.319739 140.311369 
L 345.133002 140.265917 
L 345.946265 139.978056 
L 346.759528 140.705285 
L 347.572791 140.750736 
L 348.386054 140.58408 
L 349.199317 140.281068 
L 350.012579 140.462875 
L 350.825842 140.765887 
L 351.639105 140.750736 
L 352.452368 141.008297 
L 353.265631 141.023447 
L 354.078894 140.644682 
L 355.70542 141.614321 
L 356.518683 141.538568 
L 357.331945 141.311309 
L 358.145208 140.750736 
L 359.771734 140.871941 
L 361.39826 141.129502 
L 362.211523 141.038598 
L 368.717626 141.58402 
L 369.530889 141.84158 
L 372.78394 142.280948 
L 373.597203 142.644562 
L 375.223729 142.811219 
L 376.036992 143.023327 
L 378.476781 143.08393 
L 379.290043 143.265737 
L 380.103306 143.311189 
L 380.916569 143.705104 
L 381.729832 143.932363 
L 382.543095 144.008116 
L 384.169621 144.720195 
L 384.982884 144.735345 
L 385.796147 145.144412 
L 389.049198 145.765586 
L 389.862461 146.886731 
L 391.488987 147.174593 
L 393.115513 147.720014 
L 395.555301 148.083629 
L 397.99509 148.932063 
L 398.808353 148.992665 
L 400.434879 149.735045 
L 401.248141 150.37137 
L 402.061404 150.386521 
L 402.874667 150.598629 
L 403.68793 150.674382 
L 404.501193 151.507665 
L 405.314456 151.553117 
L 406.127719 151.810678 
L 407.754245 151.901581 
L 408.567507 152.189443 
L 410.194033 152.280346 
L 411.007296 153.401491 
L 411.820559 153.401491 
L 413.447085 154.143871 
L 414.260348 154.174172 
L 415.073611 154.583238 
L 416.700136 154.840798 
L 417.513399 155.507425 
L 419.953188 156.674022 
L 420.766451 157.840618 
L 423.206239 158.507245 
L 424.832765 158.825407 
L 427.272554 159.492034 
L 428.085817 160.582877 
L 428.89908 161.294956 
L 429.712343 161.704022 
L 430.525605 161.885829 
L 431.338868 161.90098 
L 432.152131 163.173631 
L 432.965394 163.552396 
L 434.59192 163.976613 
L 436.218446 165.370468 
L 437.031709 165.824986 
L 438.658234 169.158119 
L 439.471497 170.17321 
L 440.28476 170.809535 
L 441.098023 169.582336 
L 441.911286 169.339927 
L 443.537812 168.370288 
L 444.351075 166.567366 
L 445.164337 166.264354 
L 445.9776 166.097697 
L 446.790863 160.719233 
L 447.604126 161.052546 
L 448.417389 156.537666 
L 449.230652 158.279986 
L 450.043915 157.264895 
L 450.857178 139.478086 
L 451.670441 139.750797 
L 452.483703 137.06914 
L 454.110229 134.266278 
L 454.923492 119.751999 
L 455.736755 119.645945 
L 456.550018 117.070342 
L 457.363281 94.389888 
L 458.176544 83.148139 
L 458.989807 80.360428 
L 459.803069 73.254795 
L 460.616332 74.285036 
L 461.429595 69.421692 
L 462.242858 61.34642 
L 463.056121 56.043708 
L 463.869384 55.57404 
L 464.682647 49.953165 
L 465.49591 52.240907 
L 466.309173 52.165154 
L 467.122435 52.498467 
L 467.935698 49.407744 
L 468.748961 39.075032 
L 470.375487 37.378164 
L 471.18875 34.27229 
L 472.002013 28.272651 
L 472.815276 27 
L 473.628539 28.696868 
L 474.441802 36.590332 
L 475.255064 38.302351 
L 476.068327 38.953827 
L 476.88159 44.453496 
L 477.694853 43.135393 
L 478.508116 46.589731 
L 479.321379 47.847231 
L 480.134642 50.801599 
L 480.947905 48.801719 
L 481.761168 51.559129 
L 482.57443 53.165093 
L 483.387693 53.771118 
L 484.200956 54.149883 
L 485.014219 54.255937 
L 485.827482 60.028317 
L 486.640745 60.407082 
L 487.454008 61.740335 
L 488.267271 65.058318 
L 489.080534 67.436963 
L 489.893796 74.436542 
L 490.707059 75.815247 
L 491.520322 76.027355 
L 492.333585 76.981843 
L 498.026425 76.981843 
L 498.839688 104.889256 
L 499.652951 149.719894 
L 500.466214 170.779234 
L 501.279477 195.565623 
L 502.09274 213.443336 
L 502.906003 252.395539 
L 503.719266 274.409367 
L 504.532528 265.303854 
L 504.532528 265.303854 
" clip-path="url(#p2c892ce5b3)" style="fill: none; stroke: #e67e22; stroke-width: 1.5; stroke-linecap: square"/>
   </g>
   <g id="patch_3">
    <path d="M 78.423438 291.6 
L 78.423438 14.4 
" style="fill: none; stroke: #000000; stroke-width: 0.8; stroke-linejoin: miter; stroke-linecap: square"/>
   </g>
   <g id="patch_4">
    <path d="M 524.823437 291.6 
L 524.823437 14.4 
" style="fill: none; stroke: #000000; stroke-width: 0.8; stroke-linejoin: miter; stroke-linecap: square"/>
   </g>
   <g id="patch_5">
    <path d="M 78.423438 291.6 
L 524.823437 291.6 
" style="fill: none; stroke: #000000; stroke-width: 0.8; stroke-linejoin: miter; stroke-linecap: square"/>
   </g>
   <g id="patch_6">
    <path d="M 78.423438 14.4 
L 524.823437 14.4 
" style="fill: none; stroke: #000000; stroke-width: 0.8; stroke-linejoin: miter; stroke-linecap: square"/>
   </g>
   <g id="legend_1">
    <g id="patch_7">
     <path d="M 93.823438 94.211875 
L 298.636563 94.211875 
Q 303.036563 94.211875 303.036563 89.811875 
L 303.036563 29.8 
Q 303.036563 25.4 298.636563 25.4 
L 93.823438 25.4 
Q 89.423438 25.4 89.423438 29.8 
L 89.423438 89.811875 
Q 89.423438 94.211875 93.823438 94.211875 
z
" style="fill: #ffffff; opacity: 0.8; stroke: #cccccc; stroke-linejoin: miter"/>
    </g>
    <g id="patch_8">
     <path d="M 98.223438 49.6 
L 142.223437 49.6 
L 142.223437 34.2 
L 98.223438 34.2 
z
" style="fill: #45aaf2; fill-opacity: 0.5; stroke: #45aaf2; stroke-opacity: 0.5; stroke-linejoin: miter"/>
    </g>
    <g id="text_13">
     <!-- duarouter - IPP -->
     <g transform="translate(159.823438 49.6)scale(0.22 -0.22)">
      <defs>
       <path id="TimesNewRomanPSMT-75" d="M 2709 2863 
L 2709 1128 
Q 2709 631 2732 520 
Q 2756 409 2807 365 
Q 2859 322 2928 322 
Q 3025 322 3147 375 
L 3191 266 
L 2334 -88 
L 2194 -88 
L 2194 519 
Q 1825 119 1631 15 
Q 1438 -88 1222 -88 
Q 981 -88 804 51 
Q 628 191 559 409 
Q 491 628 491 1028 
L 491 2306 
Q 491 2509 447 2587 
Q 403 2666 317 2708 
Q 231 2750 6 2747 
L 6 2863 
L 1009 2863 
L 1009 947 
Q 1009 547 1148 422 
Q 1288 297 1484 297 
Q 1619 297 1789 381 
Q 1959 466 2194 703 
L 2194 2325 
Q 2194 2569 2105 2655 
Q 2016 2741 1734 2747 
L 1734 2863 
L 2709 2863 
z
" transform="scale(0.015625)"/>
       <path id="TimesNewRomanPSMT-2d" d="M 259 1672 
L 1875 1672 
L 1875 1200 
L 259 1200 
L 259 1672 
z
" transform="scale(0.015625)"/>
       <path id="TimesNewRomanPSMT-49" d="M 1975 116 
L 1975 0 
L 159 0 
L 159 116 
L 309 116 
Q 572 116 691 269 
Q 766 369 766 750 
L 766 3488 
Q 766 3809 725 3913 
Q 694 3991 597 4047 
Q 459 4122 309 4122 
L 159 4122 
L 159 4238 
L 1975 4238 
L 1975 4122 
L 1822 4122 
Q 1563 4122 1444 3969 
Q 1366 3869 1366 3488 
L 1366 750 
Q 1366 428 1406 325 
Q 1438 247 1538 191 
Q 1672 116 1822 116 
L 1975 116 
z
" transform="scale(0.015625)"/>
       <path id="TimesNewRomanPSMT-50" d="M 1313 1984 
L 1313 750 
Q 1313 350 1400 253 
Q 1519 116 1759 116 
L 1922 116 
L 1922 0 
L 106 0 
L 106 116 
L 266 116 
Q 534 116 650 291 
Q 713 388 713 750 
L 713 3488 
Q 713 3888 628 3984 
Q 506 4122 266 4122 
L 106 4122 
L 106 4238 
L 1659 4238 
Q 2228 4238 2556 4120 
Q 2884 4003 3109 3725 
Q 3334 3447 3334 3066 
Q 3334 2547 2992 2222 
Q 2650 1897 2025 1897 
Q 1872 1897 1694 1919 
Q 1516 1941 1313 1984 
z
M 1313 2163 
Q 1478 2131 1606 2115 
Q 1734 2100 1825 2100 
Q 2150 2100 2386 2351 
Q 2622 2603 2622 3003 
Q 2622 3278 2509 3514 
Q 2397 3750 2190 3867 
Q 1984 3984 1722 3984 
Q 1563 3984 1313 3925 
L 1313 2163 
z
" transform="scale(0.015625)"/>
      </defs>
      <use xlink:href="#TimesNewRomanPSMT-64"/>
      <use xlink:href="#TimesNewRomanPSMT-75" x="50"/>
      <use xlink:href="#TimesNewRomanPSMT-61" x="100"/>
      <use xlink:href="#TimesNewRomanPSMT-72" x="144.384766"/>
      <use xlink:href="#TimesNewRomanPSMT-6f" x="177.685547"/>
      <use xlink:href="#TimesNewRomanPSMT-75" x="227.685547"/>
      <use xlink:href="#TimesNewRomanPSMT-74" x="277.685547"/>
      <use xlink:href="#TimesNewRomanPSMT-65" x="305.46875"/>
      <use xlink:href="#TimesNewRomanPSMT-72" x="349.853516"/>
      <use xlink:href="#TimesNewRomanPSMT-20" x="383.154297"/>
      <use xlink:href="#TimesNewRomanPSMT-2d" x="408.154297"/>
      <use xlink:href="#TimesNewRomanPSMT-20" x="441.455078"/>
      <use xlink:href="#TimesNewRomanPSMT-49" x="466.455078"/>
      <use xlink:href="#TimesNewRomanPSMT-50" x="499.755859"/>
      <use xlink:href="#TimesNewRomanPSMT-50" x="555.371094"/>
     </g>
    </g>
    <g id="patch_9">
     <path d="M 98.223438 80.705938 
L 142.223437 80.705938 
L 142.223437 65.305937 
L 98.223438 65.305937 
z
" style="fill: #e67e22; fill-opacity: 0.5; stroke: #e67e22; stroke-opacity: 0.5; stroke-linejoin: miter"/>
    </g>
    <g id="text_14">
     <!-- PPP - IPP -->
     <g transform="translate(159.823438 80.705938)scale(0.22 -0.22)">
      <use xlink:href="#TimesNewRomanPSMT-50"/>
      <use xlink:href="#TimesNewRomanPSMT-50" x="55.615234"/>
      <use xlink:href="#TimesNewRomanPSMT-50" x="111.230469"/>
      <use xlink:href="#TimesNewRomanPSMT-20" x="163.095703"/>
      <use xlink:href="#TimesNewRomanPSMT-2d" x="188.095703"/>
      <use xlink:href="#TimesNewRomanPSMT-20" x="221.396484"/>
      <use xlink:href="#TimesNewRomanPSMT-49" x="246.396484"/>
      <use xlink:href="#TimesNewRomanPSMT-50" x="279.697266"/>
      <use xlink:href="#TimesNewRomanPSMT-50" x="335.3125"/>
     </g>
    </g>
   </g>
  </g>
 </g>
 <defs>
  <clipPath id="p2c892ce5b3">
   <rect x="78.423438" y="14.4" width="446.4" height="277.2"/>
  </clipPath>
 </defs>
</svg>
