<?xml version="1.0" encoding="utf-8" standalone="no"?>
<!DOCTYPE svg PUBLIC "-//W3C//DTD SVG 1.1//EN"
  "http://www.w3.org/Graphics/SVG/1.1/DTD/svg11.dtd">
<svg xmlns:xlink="http://www.w3.org/1999/xlink" width="539.223437pt" height="356.964375pt" viewBox="0 0 539.223437 356.964375" xmlns="http://www.w3.org/2000/svg" version="1.1">
 <metadata>
  <rdf:RDF xmlns:dc="http://purl.org/dc/elements/1.1/" xmlns:cc="http://creativecommons.org/ns#" xmlns:rdf="http://www.w3.org/1999/02/22-rdf-syntax-ns#">
   <cc:Work>
    <dc:type rdf:resource="http://purl.org/dc/dcmitype/StillImage"/>
    <dc:date>2023-02-08T10:18:31.009943</dc:date>
    <dc:format>image/svg+xml</dc:format>
    <dc:creator>
     <cc:Agent>
      <dc:title>Matplotlib v3.5.2, https://matplotlib.org/</dc:title>
     </cc:Agent>
    </dc:creator>
   </cc:Work>
  </rdf:RDF>
 </metadata>
 <defs>
  <style type="text/css">*{stroke-linejoin: round; stroke-linecap: butt}</style>
 </defs>
 <g id="figure_1">
  <g id="patch_1">
   <path d="M 0 356.964375 
L 539.223437 356.964375 
L 539.223437 0 
L 0 0 
z
" style="fill: #ffffff"/>
  </g>
  <g id="axes_1">
   <g id="patch_2">
    <path d="M 78.423438 291.6 
L 524.823437 291.6 
L 524.823437 14.4 
L 78.423438 14.4 
z
" style="fill: #ffffff"/>
   </g>
   <g id="matplotlib.axis_1">
    <g id="xtick_1">
     <g id="line2d_1">
      <defs>
       <path id="m5b13c62906" d="M 0 0 
L 0 3.5 
" style="stroke: #000000; stroke-width: 0.8"/>
      </defs>
      <g>
       <use xlink:href="#m5b13c62906" x="98.714347" y="291.6" style="stroke: #000000; stroke-width: 0.8"/>
      </g>
     </g>
     <g id="text_1">
      <!-- 0 -->
      <g transform="translate(93.214347 313.87625)scale(0.22 -0.22)">
       <defs>
        <path id="TimesNewRomanPSMT-30" d="M 231 2094 
Q 231 2819 450 3342 
Q 669 3866 1031 4122 
Q 1313 4325 1613 4325 
Q 2100 4325 2488 3828 
Q 2972 3213 2972 2159 
Q 2972 1422 2759 906 
Q 2547 391 2217 158 
Q 1888 -75 1581 -75 
Q 975 -75 572 641 
Q 231 1244 231 2094 
z
M 844 2016 
Q 844 1141 1059 588 
Q 1238 122 1591 122 
Q 1759 122 1940 273 
Q 2122 425 2216 781 
Q 2359 1319 2359 2297 
Q 2359 3022 2209 3506 
Q 2097 3866 1919 4016 
Q 1791 4119 1609 4119 
Q 1397 4119 1231 3928 
Q 1006 3669 925 3112 
Q 844 2556 844 2016 
z
" transform="scale(0.015625)"/>
       </defs>
       <use xlink:href="#TimesNewRomanPSMT-30"/>
      </g>
     </g>
    </g>
    <g id="xtick_2">
     <g id="line2d_2">
      <g>
       <use xlink:href="#m5b13c62906" x="180.040636" y="291.6" style="stroke: #000000; stroke-width: 0.8"/>
      </g>
     </g>
     <g id="text_2">
      <!-- 100 -->
      <g transform="translate(163.540636 313.87625)scale(0.22 -0.22)">
       <defs>
        <path id="TimesNewRomanPSMT-31" d="M 750 3822 
L 1781 4325 
L 1884 4325 
L 1884 747 
Q 1884 391 1914 303 
Q 1944 216 2037 169 
Q 2131 122 2419 116 
L 2419 0 
L 825 0 
L 825 116 
Q 1125 122 1212 167 
Q 1300 213 1334 289 
Q 1369 366 1369 747 
L 1369 3034 
Q 1369 3497 1338 3628 
Q 1316 3728 1258 3775 
Q 1200 3822 1119 3822 
Q 1003 3822 797 3725 
L 750 3822 
z
" transform="scale(0.015625)"/>
       </defs>
       <use xlink:href="#TimesNewRomanPSMT-31"/>
       <use xlink:href="#TimesNewRomanPSMT-30" x="50"/>
       <use xlink:href="#TimesNewRomanPSMT-30" x="100"/>
      </g>
     </g>
    </g>
    <g id="xtick_3">
     <g id="line2d_3">
      <g>
       <use xlink:href="#m5b13c62906" x="261.366924" y="291.6" style="stroke: #000000; stroke-width: 0.8"/>
      </g>
     </g>
     <g id="text_3">
      <!-- 200 -->
      <g transform="translate(244.866924 313.87625)scale(0.22 -0.22)">
       <defs>
        <path id="TimesNewRomanPSMT-32" d="M 2934 816 
L 2638 0 
L 138 0 
L 138 116 
Q 1241 1122 1691 1759 
Q 2141 2397 2141 2925 
Q 2141 3328 1894 3587 
Q 1647 3847 1303 3847 
Q 991 3847 742 3664 
Q 494 3481 375 3128 
L 259 3128 
Q 338 3706 661 4015 
Q 984 4325 1469 4325 
Q 1984 4325 2329 3994 
Q 2675 3663 2675 3213 
Q 2675 2891 2525 2569 
Q 2294 2063 1775 1497 
Q 997 647 803 472 
L 1909 472 
Q 2247 472 2383 497 
Q 2519 522 2628 598 
Q 2738 675 2819 816 
L 2934 816 
z
" transform="scale(0.015625)"/>
       </defs>
       <use xlink:href="#TimesNewRomanPSMT-32"/>
       <use xlink:href="#TimesNewRomanPSMT-30" x="50"/>
       <use xlink:href="#TimesNewRomanPSMT-30" x="100"/>
      </g>
     </g>
    </g>
    <g id="xtick_4">
     <g id="line2d_4">
      <g>
       <use xlink:href="#m5b13c62906" x="342.693213" y="291.6" style="stroke: #000000; stroke-width: 0.8"/>
      </g>
     </g>
     <g id="text_4">
      <!-- 300 -->
      <g transform="translate(326.193213 313.87625)scale(0.22 -0.22)">
       <defs>
        <path id="TimesNewRomanPSMT-33" d="M 325 3431 
Q 506 3859 782 4092 
Q 1059 4325 1472 4325 
Q 1981 4325 2253 3994 
Q 2459 3747 2459 3466 
Q 2459 3003 1878 2509 
Q 2269 2356 2469 2072 
Q 2669 1788 2669 1403 
Q 2669 853 2319 450 
Q 1863 -75 997 -75 
Q 569 -75 414 31 
Q 259 138 259 259 
Q 259 350 332 419 
Q 406 488 509 488 
Q 588 488 669 463 
Q 722 447 909 348 
Q 1097 250 1169 231 
Q 1284 197 1416 197 
Q 1734 197 1970 444 
Q 2206 691 2206 1028 
Q 2206 1275 2097 1509 
Q 2016 1684 1919 1775 
Q 1784 1900 1550 2001 
Q 1316 2103 1072 2103 
L 972 2103 
L 972 2197 
Q 1219 2228 1467 2375 
Q 1716 2522 1828 2728 
Q 1941 2934 1941 3181 
Q 1941 3503 1739 3701 
Q 1538 3900 1238 3900 
Q 753 3900 428 3381 
L 325 3431 
z
" transform="scale(0.015625)"/>
       </defs>
       <use xlink:href="#TimesNewRomanPSMT-33"/>
       <use xlink:href="#TimesNewRomanPSMT-30" x="50"/>
       <use xlink:href="#TimesNewRomanPSMT-30" x="100"/>
      </g>
     </g>
    </g>
    <g id="xtick_5">
     <g id="line2d_5">
      <g>
       <use xlink:href="#m5b13c62906" x="424.019502" y="291.6" style="stroke: #000000; stroke-width: 0.8"/>
      </g>
     </g>
     <g id="text_5">
      <!-- 400 -->
      <g transform="translate(407.519502 313.87625)scale(0.22 -0.22)">
       <defs>
        <path id="TimesNewRomanPSMT-34" d="M 2978 1563 
L 2978 1119 
L 2409 1119 
L 2409 0 
L 1894 0 
L 1894 1119 
L 100 1119 
L 100 1519 
L 2066 4325 
L 2409 4325 
L 2409 1563 
L 2978 1563 
z
M 1894 1563 
L 1894 3666 
L 406 1563 
L 1894 1563 
z
" transform="scale(0.015625)"/>
       </defs>
       <use xlink:href="#TimesNewRomanPSMT-34"/>
       <use xlink:href="#TimesNewRomanPSMT-30" x="50"/>
       <use xlink:href="#TimesNewRomanPSMT-30" x="100"/>
      </g>
     </g>
    </g>
    <g id="xtick_6">
     <g id="line2d_6">
      <g>
       <use xlink:href="#m5b13c62906" x="505.345791" y="291.6" style="stroke: #000000; stroke-width: 0.8"/>
      </g>
     </g>
     <g id="text_6">
      <!-- 500 -->
      <g transform="translate(488.845791 313.87625)scale(0.22 -0.22)">
       <defs>
        <path id="TimesNewRomanPSMT-35" d="M 2778 4238 
L 2534 3706 
L 1259 3706 
L 981 3138 
Q 1809 3016 2294 2522 
Q 2709 2097 2709 1522 
Q 2709 1188 2573 903 
Q 2438 619 2231 419 
Q 2025 219 1772 97 
Q 1413 -75 1034 -75 
Q 653 -75 479 54 
Q 306 184 306 341 
Q 306 428 378 495 
Q 450 563 559 563 
Q 641 563 702 538 
Q 763 513 909 409 
Q 1144 247 1384 247 
Q 1750 247 2026 523 
Q 2303 800 2303 1197 
Q 2303 1581 2056 1914 
Q 1809 2247 1375 2428 
Q 1034 2569 447 2591 
L 1259 4238 
L 2778 4238 
z
" transform="scale(0.015625)"/>
       </defs>
       <use xlink:href="#TimesNewRomanPSMT-35"/>
       <use xlink:href="#TimesNewRomanPSMT-30" x="50"/>
       <use xlink:href="#TimesNewRomanPSMT-30" x="100"/>
      </g>
     </g>
    </g>
    <g id="text_7">
     <!-- Roads -->
     <g transform="translate(274.121719 337.858438)scale(0.22 -0.22)">
      <defs>
       <path id="TimesNewRomanPSMT-52" d="M 4325 0 
L 3194 0 
L 1759 1981 
Q 1600 1975 1500 1975 
Q 1459 1975 1412 1976 
Q 1366 1978 1316 1981 
L 1316 750 
Q 1316 350 1403 253 
Q 1522 116 1759 116 
L 1925 116 
L 1925 0 
L 109 0 
L 109 116 
L 269 116 
Q 538 116 653 291 
Q 719 388 719 750 
L 719 3488 
Q 719 3888 631 3984 
Q 509 4122 269 4122 
L 109 4122 
L 109 4238 
L 1653 4238 
Q 2328 4238 2648 4139 
Q 2969 4041 3192 3777 
Q 3416 3513 3416 3147 
Q 3416 2756 3161 2468 
Q 2906 2181 2372 2063 
L 3247 847 
Q 3547 428 3762 290 
Q 3978 153 4325 116 
L 4325 0 
z
M 1316 2178 
Q 1375 2178 1419 2176 
Q 1463 2175 1491 2175 
Q 2097 2175 2405 2437 
Q 2713 2700 2713 3106 
Q 2713 3503 2464 3751 
Q 2216 4000 1806 4000 
Q 1625 4000 1316 3941 
L 1316 2178 
z
" transform="scale(0.015625)"/>
       <path id="TimesNewRomanPSMT-6f" d="M 1600 2947 
Q 2250 2947 2644 2453 
Q 2978 2031 2978 1484 
Q 2978 1100 2793 706 
Q 2609 313 2286 112 
Q 1963 -88 1566 -88 
Q 919 -88 538 428 
Q 216 863 216 1403 
Q 216 1797 411 2186 
Q 606 2575 925 2761 
Q 1244 2947 1600 2947 
z
M 1503 2744 
Q 1338 2744 1170 2645 
Q 1003 2547 900 2300 
Q 797 2053 797 1666 
Q 797 1041 1045 587 
Q 1294 134 1700 134 
Q 2003 134 2200 384 
Q 2397 634 2397 1244 
Q 2397 2006 2069 2444 
Q 1847 2744 1503 2744 
z
" transform="scale(0.015625)"/>
       <path id="TimesNewRomanPSMT-61" d="M 1822 413 
Q 1381 72 1269 19 
Q 1100 -59 909 -59 
Q 613 -59 420 144 
Q 228 347 228 678 
Q 228 888 322 1041 
Q 450 1253 767 1440 
Q 1084 1628 1822 1897 
L 1822 2009 
Q 1822 2438 1686 2597 
Q 1550 2756 1291 2756 
Q 1094 2756 978 2650 
Q 859 2544 859 2406 
L 866 2225 
Q 866 2081 792 2003 
Q 719 1925 600 1925 
Q 484 1925 411 2006 
Q 338 2088 338 2228 
Q 338 2497 613 2722 
Q 888 2947 1384 2947 
Q 1766 2947 2009 2819 
Q 2194 2722 2281 2516 
Q 2338 2381 2338 1966 
L 2338 994 
Q 2338 584 2353 492 
Q 2369 400 2405 369 
Q 2441 338 2488 338 
Q 2538 338 2575 359 
Q 2641 400 2828 588 
L 2828 413 
Q 2478 -56 2159 -56 
Q 2006 -56 1915 50 
Q 1825 156 1822 413 
z
M 1822 616 
L 1822 1706 
Q 1350 1519 1213 1441 
Q 966 1303 859 1153 
Q 753 1003 753 825 
Q 753 600 887 451 
Q 1022 303 1197 303 
Q 1434 303 1822 616 
z
" transform="scale(0.015625)"/>
       <path id="TimesNewRomanPSMT-64" d="M 2222 322 
Q 2013 103 1813 7 
Q 1613 -88 1381 -88 
Q 913 -88 563 304 
Q 213 697 213 1313 
Q 213 1928 600 2439 
Q 988 2950 1597 2950 
Q 1975 2950 2222 2709 
L 2222 3238 
Q 2222 3728 2198 3840 
Q 2175 3953 2125 3993 
Q 2075 4034 2000 4034 
Q 1919 4034 1784 3984 
L 1744 4094 
L 2597 4444 
L 2738 4444 
L 2738 1134 
Q 2738 631 2761 520 
Q 2784 409 2836 365 
Q 2888 322 2956 322 
Q 3041 322 3181 375 
L 3216 266 
L 2366 -88 
L 2222 -88 
L 2222 322 
z
M 2222 541 
L 2222 2016 
Q 2203 2228 2109 2403 
Q 2016 2578 1861 2667 
Q 1706 2756 1559 2756 
Q 1284 2756 1069 2509 
Q 784 2184 784 1559 
Q 784 928 1059 592 
Q 1334 256 1672 256 
Q 1956 256 2222 541 
z
" transform="scale(0.015625)"/>
       <path id="TimesNewRomanPSMT-73" d="M 2050 2947 
L 2050 1972 
L 1947 1972 
Q 1828 2431 1642 2597 
Q 1456 2763 1169 2763 
Q 950 2763 815 2647 
Q 681 2531 681 2391 
Q 681 2216 781 2091 
Q 878 1963 1175 1819 
L 1631 1597 
Q 2266 1288 2266 781 
Q 2266 391 1970 151 
Q 1675 -88 1309 -88 
Q 1047 -88 709 6 
Q 606 38 541 38 
Q 469 38 428 -44 
L 325 -44 
L 325 978 
L 428 978 
Q 516 541 762 319 
Q 1009 97 1316 97 
Q 1531 97 1667 223 
Q 1803 350 1803 528 
Q 1803 744 1651 891 
Q 1500 1038 1047 1263 
Q 594 1488 453 1669 
Q 313 1847 313 2119 
Q 313 2472 555 2709 
Q 797 2947 1181 2947 
Q 1350 2947 1591 2875 
Q 1750 2828 1803 2828 
Q 1853 2828 1881 2850 
Q 1909 2872 1947 2947 
L 2050 2947 
z
" transform="scale(0.015625)"/>
      </defs>
      <use xlink:href="#TimesNewRomanPSMT-52"/>
      <use xlink:href="#TimesNewRomanPSMT-6f" x="66.699219"/>
      <use xlink:href="#TimesNewRomanPSMT-61" x="116.699219"/>
      <use xlink:href="#TimesNewRomanPSMT-64" x="161.083984"/>
      <use xlink:href="#TimesNewRomanPSMT-73" x="211.083984"/>
     </g>
    </g>
   </g>
   <g id="matplotlib.axis_2">
    <g id="ytick_1">
     <g id="line2d_7">
      <defs>
       <path id="mdacbf86627" d="M 0 0 
L -3.5 0 
" style="stroke: #000000; stroke-width: 0.8"/>
      </defs>
      <g>
       <use xlink:href="#mdacbf86627" x="78.423438" y="254.379252" style="stroke: #000000; stroke-width: 0.8"/>
      </g>
     </g>
     <g id="text_8">
      <!-- 50 -->
      <g transform="translate(49.423438 262.017377)scale(0.22 -0.22)">
       <use xlink:href="#TimesNewRomanPSMT-35"/>
       <use xlink:href="#TimesNewRomanPSMT-30" x="50"/>
      </g>
     </g>
    </g>
    <g id="ytick_2">
     <g id="line2d_8">
      <g>
       <use xlink:href="#mdacbf86627" x="78.423438" y="204.009474" style="stroke: #000000; stroke-width: 0.8"/>
      </g>
     </g>
     <g id="text_9">
      <!-- 100 -->
      <g transform="translate(38.423438 211.647599)scale(0.22 -0.22)">
       <use xlink:href="#TimesNewRomanPSMT-31"/>
       <use xlink:href="#TimesNewRomanPSMT-30" x="50"/>
       <use xlink:href="#TimesNewRomanPSMT-30" x="100"/>
      </g>
     </g>
    </g>
    <g id="ytick_3">
     <g id="line2d_9">
      <g>
       <use xlink:href="#mdacbf86627" x="78.423438" y="153.639696" style="stroke: #000000; stroke-width: 0.8"/>
      </g>
     </g>
     <g id="text_10">
      <!-- 150 -->
      <g transform="translate(38.423438 161.277821)scale(0.22 -0.22)">
       <use xlink:href="#TimesNewRomanPSMT-31"/>
       <use xlink:href="#TimesNewRomanPSMT-35" x="50"/>
       <use xlink:href="#TimesNewRomanPSMT-30" x="100"/>
      </g>
     </g>
    </g>
    <g id="ytick_4">
     <g id="line2d_10">
      <g>
       <use xlink:href="#mdacbf86627" x="78.423438" y="103.269918" style="stroke: #000000; stroke-width: 0.8"/>
      </g>
     </g>
     <g id="text_11">
      <!-- 200 -->
      <g transform="translate(38.423438 110.908043)scale(0.22 -0.22)">
       <use xlink:href="#TimesNewRomanPSMT-32"/>
       <use xlink:href="#TimesNewRomanPSMT-30" x="50"/>
       <use xlink:href="#TimesNewRomanPSMT-30" x="100"/>
      </g>
     </g>
    </g>
    <g id="ytick_5">
     <g id="line2d_11">
      <g>
       <use xlink:href="#mdacbf86627" x="78.423438" y="52.90014" style="stroke: #000000; stroke-width: 0.8"/>
      </g>
     </g>
     <g id="text_12">
      <!-- 250 -->
      <g transform="translate(38.423438 60.538265)scale(0.22 -0.22)">
       <use xlink:href="#TimesNewRomanPSMT-32"/>
       <use xlink:href="#TimesNewRomanPSMT-35" x="50"/>
       <use xlink:href="#TimesNewRomanPSMT-30" x="100"/>
      </g>
     </g>
    </g>
    <g id="text_13">
     <!-- Density (veh/km) -->
     <g transform="translate(29.67625 230.290469)rotate(-90)scale(0.22 -0.22)">
      <defs>
       <path id="TimesNewRomanPSMT-44" d="M 109 0 
L 109 116 
L 269 116 
Q 538 116 650 288 
Q 719 391 719 750 
L 719 3488 
Q 719 3884 631 3984 
Q 509 4122 269 4122 
L 109 4122 
L 109 4238 
L 1834 4238 
Q 2784 4238 3279 4022 
Q 3775 3806 4076 3303 
Q 4378 2800 4378 2141 
Q 4378 1256 3841 663 
Q 3238 0 2003 0 
L 109 0 
z
M 1319 306 
Q 1716 219 1984 219 
Q 2709 219 3187 728 
Q 3666 1238 3666 2109 
Q 3666 2988 3187 3494 
Q 2709 4000 1959 4000 
Q 1678 4000 1319 3909 
L 1319 306 
z
" transform="scale(0.015625)"/>
       <path id="TimesNewRomanPSMT-65" d="M 681 1784 
Q 678 1147 991 784 
Q 1303 422 1725 422 
Q 2006 422 2214 576 
Q 2422 731 2563 1106 
L 2659 1044 
Q 2594 616 2278 264 
Q 1963 -88 1488 -88 
Q 972 -88 605 314 
Q 238 716 238 1394 
Q 238 2128 614 2539 
Q 991 2950 1559 2950 
Q 2041 2950 2350 2633 
Q 2659 2316 2659 1784 
L 681 1784 
z
M 681 1966 
L 2006 1966 
Q 1991 2241 1941 2353 
Q 1863 2528 1708 2628 
Q 1553 2728 1384 2728 
Q 1125 2728 920 2526 
Q 716 2325 681 1966 
z
" transform="scale(0.015625)"/>
       <path id="TimesNewRomanPSMT-6e" d="M 1034 2341 
Q 1538 2947 1994 2947 
Q 2228 2947 2397 2830 
Q 2566 2713 2666 2444 
Q 2734 2256 2734 1869 
L 2734 647 
Q 2734 375 2778 278 
Q 2813 200 2889 156 
Q 2966 113 3172 113 
L 3172 0 
L 1756 0 
L 1756 113 
L 1816 113 
Q 2016 113 2095 173 
Q 2175 234 2206 353 
Q 2219 400 2219 647 
L 2219 1819 
Q 2219 2209 2117 2386 
Q 2016 2563 1775 2563 
Q 1403 2563 1034 2156 
L 1034 647 
Q 1034 356 1069 288 
Q 1113 197 1189 155 
Q 1266 113 1500 113 
L 1500 0 
L 84 0 
L 84 113 
L 147 113 
Q 366 113 442 223 
Q 519 334 519 647 
L 519 1709 
Q 519 2225 495 2337 
Q 472 2450 423 2490 
Q 375 2531 294 2531 
Q 206 2531 84 2484 
L 38 2597 
L 900 2947 
L 1034 2947 
L 1034 2341 
z
" transform="scale(0.015625)"/>
       <path id="TimesNewRomanPSMT-69" d="M 928 4444 
Q 1059 4444 1151 4351 
Q 1244 4259 1244 4128 
Q 1244 3997 1151 3903 
Q 1059 3809 928 3809 
Q 797 3809 703 3903 
Q 609 3997 609 4128 
Q 609 4259 701 4351 
Q 794 4444 928 4444 
z
M 1188 2947 
L 1188 647 
Q 1188 378 1227 289 
Q 1266 200 1342 156 
Q 1419 113 1622 113 
L 1622 0 
L 231 0 
L 231 113 
Q 441 113 512 153 
Q 584 194 626 287 
Q 669 381 669 647 
L 669 1750 
Q 669 2216 641 2353 
Q 619 2453 572 2492 
Q 525 2531 444 2531 
Q 356 2531 231 2484 
L 188 2597 
L 1050 2947 
L 1188 2947 
z
" transform="scale(0.015625)"/>
       <path id="TimesNewRomanPSMT-74" d="M 1031 3803 
L 1031 2863 
L 1700 2863 
L 1700 2644 
L 1031 2644 
L 1031 788 
Q 1031 509 1111 412 
Q 1191 316 1316 316 
Q 1419 316 1516 380 
Q 1613 444 1666 569 
L 1788 569 
Q 1678 263 1478 108 
Q 1278 -47 1066 -47 
Q 922 -47 784 33 
Q 647 113 581 261 
Q 516 409 516 719 
L 516 2644 
L 63 2644 
L 63 2747 
Q 234 2816 414 2980 
Q 594 3144 734 3369 
Q 806 3488 934 3803 
L 1031 3803 
z
" transform="scale(0.015625)"/>
       <path id="TimesNewRomanPSMT-79" d="M 38 2863 
L 1372 2863 
L 1372 2747 
L 1306 2747 
Q 1166 2747 1095 2686 
Q 1025 2625 1025 2534 
Q 1025 2413 1128 2197 
L 1825 753 
L 2466 2334 
Q 2519 2463 2519 2588 
Q 2519 2644 2497 2672 
Q 2472 2706 2419 2726 
Q 2366 2747 2231 2747 
L 2231 2863 
L 3163 2863 
L 3163 2747 
Q 3047 2734 2984 2696 
Q 2922 2659 2847 2556 
Q 2819 2513 2741 2316 
L 1575 -541 
Q 1406 -956 1132 -1168 
Q 859 -1381 606 -1381 
Q 422 -1381 303 -1275 
Q 184 -1169 184 -1031 
Q 184 -900 270 -820 
Q 356 -741 506 -741 
Q 609 -741 788 -809 
Q 913 -856 944 -856 
Q 1038 -856 1148 -759 
Q 1259 -663 1372 -384 
L 1575 113 
L 547 2272 
Q 500 2369 397 2513 
Q 319 2622 269 2659 
Q 197 2709 38 2747 
L 38 2863 
z
" transform="scale(0.015625)"/>
       <path id="TimesNewRomanPSMT-20" transform="scale(0.015625)"/>
       <path id="TimesNewRomanPSMT-28" d="M 1988 -1253 
L 1988 -1369 
Q 1516 -1131 1200 -813 
Q 750 -359 506 256 
Q 263 872 263 1534 
Q 263 2503 741 3301 
Q 1219 4100 1988 4444 
L 1988 4313 
Q 1603 4100 1356 3731 
Q 1109 3363 987 2797 
Q 866 2231 866 1616 
Q 866 947 969 400 
Q 1050 -31 1165 -292 
Q 1281 -553 1476 -793 
Q 1672 -1034 1988 -1253 
z
" transform="scale(0.015625)"/>
       <path id="TimesNewRomanPSMT-76" d="M 53 2863 
L 1400 2863 
L 1400 2747 
L 1313 2747 
Q 1191 2747 1127 2687 
Q 1063 2628 1063 2528 
Q 1063 2419 1128 2269 
L 1794 688 
L 2463 2328 
Q 2534 2503 2534 2594 
Q 2534 2638 2509 2666 
Q 2475 2713 2422 2730 
Q 2369 2747 2206 2747 
L 2206 2863 
L 3141 2863 
L 3141 2747 
Q 2978 2734 2916 2681 
Q 2806 2588 2719 2369 
L 1703 -88 
L 1575 -88 
L 553 2328 
Q 484 2497 421 2570 
Q 359 2644 263 2694 
Q 209 2722 53 2747 
L 53 2863 
z
" transform="scale(0.015625)"/>
       <path id="TimesNewRomanPSMT-68" d="M 1041 4444 
L 1041 2350 
Q 1388 2731 1591 2839 
Q 1794 2947 1997 2947 
Q 2241 2947 2416 2812 
Q 2591 2678 2675 2391 
Q 2734 2191 2734 1659 
L 2734 647 
Q 2734 375 2778 275 
Q 2809 200 2884 156 
Q 2959 113 3159 113 
L 3159 0 
L 1753 0 
L 1753 113 
L 1819 113 
Q 2019 113 2097 173 
Q 2175 234 2206 353 
Q 2216 403 2216 647 
L 2216 1659 
Q 2216 2128 2167 2275 
Q 2119 2422 2012 2495 
Q 1906 2569 1756 2569 
Q 1603 2569 1437 2487 
Q 1272 2406 1041 2159 
L 1041 647 
Q 1041 353 1073 281 
Q 1106 209 1195 161 
Q 1284 113 1503 113 
L 1503 0 
L 84 0 
L 84 113 
Q 275 113 384 172 
Q 447 203 484 290 
Q 522 378 522 647 
L 522 3238 
Q 522 3728 498 3840 
Q 475 3953 426 3993 
Q 378 4034 297 4034 
Q 231 4034 84 3984 
L 41 4094 
L 897 4444 
L 1041 4444 
z
" transform="scale(0.015625)"/>
       <path id="TimesNewRomanPSMT-2f" d="M 1794 4444 
L 259 -88 
L 9 -88 
L 1544 4444 
L 1794 4444 
z
" transform="scale(0.015625)"/>
       <path id="TimesNewRomanPSMT-6b" d="M 1047 4444 
L 1047 1594 
L 1775 2259 
Q 2006 2472 2044 2528 
Q 2069 2566 2069 2603 
Q 2069 2666 2017 2711 
Q 1966 2756 1847 2763 
L 1847 2863 
L 3091 2863 
L 3091 2763 
Q 2834 2756 2664 2684 
Q 2494 2613 2291 2428 
L 1556 1750 
L 2291 822 
Q 2597 438 2703 334 
Q 2853 188 2966 144 
Q 3044 113 3238 113 
L 3238 0 
L 1847 0 
L 1847 113 
Q 1966 116 2008 148 
Q 2050 181 2050 241 
Q 2050 313 1925 472 
L 1047 1594 
L 1047 644 
Q 1047 366 1086 278 
Q 1125 191 1197 153 
Q 1269 116 1509 113 
L 1509 0 
L 53 0 
L 53 113 
Q 272 113 381 166 
Q 447 200 481 272 
Q 528 375 528 628 
L 528 3234 
Q 528 3731 506 3842 
Q 484 3953 434 3995 
Q 384 4038 303 4038 
Q 238 4038 106 3984 
L 53 4094 
L 903 4444 
L 1047 4444 
z
" transform="scale(0.015625)"/>
       <path id="TimesNewRomanPSMT-6d" d="M 1050 2338 
Q 1363 2650 1419 2697 
Q 1559 2816 1721 2881 
Q 1884 2947 2044 2947 
Q 2313 2947 2506 2790 
Q 2700 2634 2766 2338 
Q 3088 2713 3309 2830 
Q 3531 2947 3766 2947 
Q 3994 2947 4170 2830 
Q 4347 2713 4450 2447 
Q 4519 2266 4519 1878 
L 4519 647 
Q 4519 378 4559 278 
Q 4591 209 4675 161 
Q 4759 113 4950 113 
L 4950 0 
L 3538 0 
L 3538 113 
L 3597 113 
Q 3781 113 3884 184 
Q 3956 234 3988 344 
Q 4000 397 4000 647 
L 4000 1878 
Q 4000 2228 3916 2372 
Q 3794 2572 3525 2572 
Q 3359 2572 3192 2489 
Q 3025 2406 2788 2181 
L 2781 2147 
L 2788 2013 
L 2788 647 
Q 2788 353 2820 281 
Q 2853 209 2943 161 
Q 3034 113 3253 113 
L 3253 0 
L 1806 0 
L 1806 113 
Q 2044 113 2133 169 
Q 2222 225 2256 338 
Q 2272 391 2272 647 
L 2272 1878 
Q 2272 2228 2169 2381 
Q 2031 2581 1784 2581 
Q 1616 2581 1450 2491 
Q 1191 2353 1050 2181 
L 1050 647 
Q 1050 366 1089 281 
Q 1128 197 1204 155 
Q 1281 113 1516 113 
L 1516 0 
L 100 0 
L 100 113 
Q 297 113 375 155 
Q 453 197 493 289 
Q 534 381 534 647 
L 534 1741 
Q 534 2213 506 2350 
Q 484 2453 437 2492 
Q 391 2531 309 2531 
Q 222 2531 100 2484 
L 53 2597 
L 916 2947 
L 1050 2947 
L 1050 2338 
z
" transform="scale(0.015625)"/>
       <path id="TimesNewRomanPSMT-29" d="M 144 4313 
L 144 4444 
Q 619 4209 934 3891 
Q 1381 3434 1625 2820 
Q 1869 2206 1869 1541 
Q 1869 572 1392 -226 
Q 916 -1025 144 -1369 
L 144 -1253 
Q 528 -1038 776 -670 
Q 1025 -303 1145 264 
Q 1266 831 1266 1447 
Q 1266 2113 1163 2663 
Q 1084 3094 967 3353 
Q 850 3613 656 3853 
Q 463 4094 144 4313 
z
" transform="scale(0.015625)"/>
      </defs>
      <use xlink:href="#TimesNewRomanPSMT-44"/>
      <use xlink:href="#TimesNewRomanPSMT-65" x="72.216797"/>
      <use xlink:href="#TimesNewRomanPSMT-6e" x="116.601562"/>
      <use xlink:href="#TimesNewRomanPSMT-73" x="166.601562"/>
      <use xlink:href="#TimesNewRomanPSMT-69" x="205.517578"/>
      <use xlink:href="#TimesNewRomanPSMT-74" x="233.300781"/>
      <use xlink:href="#TimesNewRomanPSMT-79" x="261.083984"/>
      <use xlink:href="#TimesNewRomanPSMT-20" x="311.083984"/>
      <use xlink:href="#TimesNewRomanPSMT-28" x="336.083984"/>
      <use xlink:href="#TimesNewRomanPSMT-76" x="369.384766"/>
      <use xlink:href="#TimesNewRomanPSMT-65" x="419.384766"/>
      <use xlink:href="#TimesNewRomanPSMT-68" x="463.769531"/>
      <use xlink:href="#TimesNewRomanPSMT-2f" x="513.769531"/>
      <use xlink:href="#TimesNewRomanPSMT-6b" x="541.552734"/>
      <use xlink:href="#TimesNewRomanPSMT-6d" x="591.552734"/>
      <use xlink:href="#TimesNewRomanPSMT-29" x="669.335938"/>
     </g>
    </g>
   </g>
   <g id="line2d_12">
    <path d="M 98.714347 266.598961 
L 100.340872 266.498221 
L 101.154135 266.165781 
L 110.91329 265.45053 
L 113.353079 265.269198 
L 114.166341 264.876314 
L 114.979604 264.624465 
L 119.045919 264.473356 
L 119.859182 264.191285 
L 121.485707 264.05025 
L 126.365285 263.052928 
L 127.178548 262.982411 
L 127.991811 262.760784 
L 129.618336 262.629822 
L 131.244862 262.54923 
L 132.058125 262.186568 
L 135.311177 262.015311 
L 141.004017 261.561983 
L 141.81728 261.35043 
L 142.630543 261.279912 
L 144.257068 260.48407 
L 145.070331 259.607635 
L 147.51012 259.124086 
L 150.763172 258.811793 
L 151.576434 258.761423 
L 152.389697 258.580092 
L 153.20296 258.046172 
L 155.642749 257.754028 
L 156.456012 257.58277 
L 158.8958 257.441735 
L 160.522326 256.867519 
L 162.148852 256.585449 
L 162.962115 256.434339 
L 163.775378 256.091825 
L 166.215166 255.668719 
L 167.028429 255.356426 
L 167.841692 254.812433 
L 171.094744 254.419548 
L 171.908007 254.328883 
L 173.534532 253.825185 
L 175.161058 253.754667 
L 178.41411 253.402079 
L 179.227373 252.999121 
L 180.853898 252.787567 
L 181.667161 252.173056 
L 184.920213 252.001799 
L 185.733476 251.36714 
L 186.546739 251.256326 
L 187.360002 250.682111 
L 188.173264 250.661963 
L 190.613053 250.107895 
L 191.426316 250.077673 
L 192.239579 249.58405 
L 193.866105 249.473236 
L 194.679368 249.241535 
L 195.49263 248.778133 
L 196.305893 247.992365 
L 197.932419 247.518889 
L 202.811996 246.793564 
L 204.438522 246.712972 
L 205.251785 246.501419 
L 206.065048 246.451049 
L 206.878311 245.86676 
L 208.504837 245.614911 
L 209.3181 244.869438 
L 210.131362 244.476554 
L 210.944625 244.375815 
L 211.757888 243.831821 
L 212.571151 243.610194 
L 213.384414 242.602798 
L 215.01094 242.572576 
L 217.450728 240.688747 
L 218.263991 240.436898 
L 221.517043 240.185049 
L 222.330306 239.953348 
L 223.956832 239.812313 
L 224.770094 237.999001 
L 226.39662 237.505377 
L 227.209883 237.303898 
L 228.023146 236.810274 
L 229.649672 236.689386 
L 232.08946 235.480512 
L 232.902723 234.221267 
L 233.715986 233.717569 
L 234.529249 232.589286 
L 236.155775 232.297142 
L 236.969038 231.581891 
L 237.782301 231.541595 
L 238.595564 230.403238 
L 239.408826 230.151389 
L 240.222089 230.060724 
L 241.035352 229.526804 
L 241.848615 228.781331 
L 242.661878 228.741035 
L 243.475141 226.887428 
L 244.288404 226.615431 
L 245.91493 225.718849 
L 246.728192 224.832341 
L 247.541455 224.731601 
L 248.354718 224.379013 
L 249.981244 224.107016 
L 250.794507 223.25073 
L 251.60777 223.210434 
L 252.421033 222.636218 
L 253.234296 222.323926 
L 254.047558 221.739636 
L 254.860821 221.296382 
L 255.674084 220.369578 
L 256.487347 217.2668 
L 257.30061 216.763102 
L 259.740399 216.662363 
L 260.553662 213.962542 
L 261.366924 213.59988 
L 262.180187 212.280192 
L 262.99345 211.33324 
L 263.806713 211.202279 
L 264.619976 210.597841 
L 265.433239 210.537398 
L 266.246502 208.210314 
L 267.873028 207.958465 
L 268.68629 206.668999 
L 269.499553 205.913452 
L 271.126079 205.329163 
L 272.752605 204.190806 
L 273.565868 204.079992 
L 274.379131 202.75023 
L 275.192394 201.994683 
L 276.818919 201.501059 
L 277.632182 198.992644 
L 278.445445 198.821387 
L 280.885234 192.938197 
L 281.698497 192.484869 
L 282.51176 190.389486 
L 283.325022 189.462682 
L 284.138285 188.817949 
L 284.951548 188.515731 
L 285.764811 187.296782 
L 286.578074 187.055007 
L 287.391337 185.91665 
L 288.2046 185.876354 
L 289.017863 185.53384 
L 289.831126 184.546592 
L 290.644388 184.194004 
L 294.710703 180.506936 
L 295.523966 179.237617 
L 296.337229 178.743994 
L 297.150492 178.663402 
L 297.963754 177.444453 
L 298.777017 176.960903 
L 300.403543 176.809794 
L 301.216806 175.691585 
L 303.656595 175.570698 
L 304.469858 175.520328 
L 309.349435 172.548511 
L 310.162698 172.528363 
L 310.975961 171.954148 
L 311.789224 171.923926 
L 313.415749 171.651929 
L 314.229012 171.621707 
L 315.855538 171.369858 
L 319.10859 171.007196 
L 319.921853 170.805717 
L 320.735115 170.805717 
L 322.361641 170.574016 
L 323.988167 170.48335 
L 445.9776 170.43298 
L 446.790863 167.672716 
L 447.604126 167.330202 
L 448.417389 165.56726 
L 449.230652 165.174375 
L 450.043915 164.993044 
L 450.857178 164.952748 
L 451.670441 164.247571 
L 452.483703 162.545073 
L 453.296966 161.336198 
L 454.110229 160.651169 
L 454.923492 159.6337 
L 455.736755 158.344233 
L 456.550018 157.951349 
L 457.363281 157.185729 
L 458.176544 155.825745 
L 458.989807 153.377773 
L 459.803069 152.581931 
L 460.616332 150.879432 
L 461.429595 150.002998 
L 462.242858 147.696062 
L 463.056121 146.013712 
L 463.869384 145.288387 
L 464.682647 142.729602 
L 465.49591 140.936438 
L 466.309173 138.760464 
L 467.122435 137.521367 
L 467.935698 137.340036 
L 468.748961 135.46628 
L 469.562224 118.803958 
L 470.375487 117.272716 
L 471.18875 113.021507 
L 472.002013 97.144953 
L 473.628539 83.444373 
L 474.441802 82.326164 
L 475.255064 77.188447 
L 476.068327 75.526244 
L 476.88159 75.455727 
L 477.694853 66.127244 
L 478.508116 64.384449 
L 479.321379 59.055327 
L 480.947905 57.876674 
L 481.761168 53.988127 
L 482.57443 53.585169 
L 483.387693 50.381651 
L 484.200956 50.089506 
L 485.014219 49.605956 
L 485.827482 49.273516 
L 486.640745 48.739596 
L 487.454008 46.825545 
L 488.267271 43.329882 
L 489.080534 43.198921 
L 489.893796 42.100859 
L 490.707059 41.657605 
L 491.520322 40.005477 
L 492.333585 38.685789 
L 493.146848 38.182091 
L 493.960111 38.00076 
L 495.586637 36.106856 
L 504.532528 36.106856 
L 504.532528 36.106856 
" clip-path="url(#p31be3c2817)" style="fill: none; stroke: #1f77b4; stroke-width: 2; stroke-linecap: square"/>
   </g>
   <g id="line2d_13">
    <path d="M 98.714347 267.18325 
L 107.660238 266.689626 
L 110.100027 266.397482 
L 110.91329 266.36726 
L 111.726553 266.206076 
L 114.166341 266.095263 
L 117.419393 265.954227 
L 120.672445 265.440456 
L 123.112233 265.249051 
L 127.991811 264.836018 
L 128.805073 264.654687 
L 130.431599 264.513652 
L 133.684651 264.110694 
L 140.190754 263.899141 
L 141.004017 263.687587 
L 145.883594 263.445813 
L 146.696857 263.18389 
L 148.323383 263.073076 
L 149.136646 262.821227 
L 150.763172 262.730562 
L 152.389697 262.680192 
L 153.20296 262.398121 
L 154.016223 262.247012 
L 157.269275 262.126124 
L 158.8958 261.914571 
L 159.709063 261.864201 
L 162.148852 261.380652 
L 163.775378 261.128803 
L 164.588641 260.786288 
L 165.401904 260.645253 
L 166.215166 260.373256 
L 176.787584 259.607635 
L 178.41411 259.154307 
L 181.667161 258.670758 
L 183.293687 258.559944 
L 184.920213 258.136838 
L 188.173264 257.985729 
L 188.986527 257.784249 
L 192.239579 257.58277 
L 193.866105 257.058925 
L 194.679368 257.028703 
L 195.49263 256.877593 
L 196.305893 256.857446 
L 197.119156 256.565301 
L 198.745682 256.504857 
L 199.558945 256.111973 
L 201.185471 255.940716 
L 201.998734 255.678793 
L 202.811996 255.578053 
L 203.625259 255.31613 
L 204.438522 255.275834 
L 205.251785 255.104577 
L 206.065048 254.590806 
L 206.878311 254.338957 
L 208.504837 254.218069 
L 209.3181 253.905777 
L 210.131362 253.714371 
L 210.944625 252.978973 
L 211.757888 252.545793 
L 213.384414 252.445053 
L 214.197677 252.424905 
L 215.01094 252.193204 
L 216.637466 252.062243 
L 217.450728 251.508175 
L 218.263991 251.477953 
L 219.890517 251.195882 
L 222.330306 250.893664 
L 223.143569 250.389966 
L 224.770094 250.027304 
L 225.583357 249.58405 
L 226.39662 249.43294 
L 227.209883 248.757985 
L 228.023146 248.506136 
L 228.836409 248.475914 
L 229.649672 248.224066 
L 230.462935 248.143474 
L 231.276198 247.760664 
L 232.08946 247.720368 
L 232.902723 247.559184 
L 233.715986 247.156226 
L 234.529249 246.027943 
L 235.342512 245.836538 
L 236.155775 245.81639 
L 236.969038 245.131361 
L 237.782301 244.637737 
L 241.035352 244.184409 
L 241.848615 243.21731 
L 243.475141 241.81703 
L 244.288404 241.806956 
L 245.101667 241.615551 
L 245.91493 240.880152 
L 246.728192 240.305936 
L 247.541455 240.094383 
L 248.354718 239.50002 
L 249.167981 239.11721 
L 249.981244 239.107136 
L 250.794507 237.525525 
L 251.60777 236.8002 
L 252.421033 236.659165 
L 253.234296 235.621547 
L 254.047558 234.926444 
L 254.860821 234.684669 
L 256.487347 234.614152 
L 257.30061 234.160824 
L 258.113873 233.465721 
L 258.927136 233.18365 
L 259.740399 232.780692 
L 260.553662 232.7001 
L 262.180187 231.632261 
L 263.806713 231.501299 
L 265.433239 230.514052 
L 266.246502 229.788727 
L 267.059765 228.257486 
L 268.68629 227.713492 
L 269.499553 226.998241 
L 270.312816 226.746392 
L 271.126079 224.88271 
L 272.752605 224.751749 
L 273.565868 223.754427 
L 274.379131 223.58317 
L 275.192394 219.614032 
L 276.818919 219.402479 
L 277.632182 218.576414 
L 278.445445 216.994803 
L 281.698497 212.955147 
L 282.51176 212.391005 
L 283.325022 212.209674 
L 284.138285 211.605237 
L 285.764811 209.671037 
L 288.2046 208.945713 
L 289.831126 207.887947 
L 291.457651 205.822786 
L 292.270914 202.135719 
L 293.084177 201.40032 
L 293.89744 201.138397 
L 294.710703 200.191445 
L 295.523966 199.838857 
L 296.337229 197.239776 
L 297.150492 196.584969 
L 297.963754 196.464082 
L 298.777017 195.648091 
L 299.59028 193.351229 
L 301.216806 193.049011 
L 302.030069 193.018789 
L 302.843332 192.444573 
L 303.656595 192.424425 
L 304.469858 191.668879 
L 305.283121 191.396882 
L 306.096383 191.326364 
L 306.909646 189.442534 
L 309.349435 188.042255 
L 310.162698 187.770258 
L 311.789224 186.772936 
L 312.602487 186.621827 
L 313.415749 186.239017 
L 314.229012 184.919328 
L 315.042275 184.546592 
L 315.855538 183.75075 
L 316.668801 183.347791 
L 317.482064 183.085868 
L 319.10859 182.934759 
L 319.921853 182.874315 
L 320.735115 182.612393 
L 321.548378 182.562023 
L 322.361641 182.128843 
L 323.174904 182.058325 
L 323.988167 181.413592 
L 324.80143 181.212113 
L 325.614693 180.778933 
L 326.427956 180.134199 
L 328.867744 179.60028 
L 329.681007 177.917929 
L 330.49427 177.555267 
L 331.307533 176.85009 
L 332.120796 176.85009 
L 332.934059 176.698981 
L 333.747322 176.195283 
L 335.373847 176.013952 
L 336.18711 176.013952 
L 337.000373 175.661363 
L 337.813636 175.026704 
L 338.626899 174.53308 
L 341.879951 174.069678 
L 342.693213 173.61635 
L 345.133002 173.263762 
L 345.946265 172.870877 
L 347.572791 172.760064 
L 348.386054 172.538437 
L 349.199317 172.105257 
L 353.265631 171.913852 
L 354.078894 171.510893 
L 355.70542 171.460524 
L 357.331945 171.047492 
L 358.145208 170.654607 
L 367.0911 170.43298 
L 440.28476 170.43298 
L 441.098023 169.606916 
L 441.911286 169.445733 
L 442.724549 168.891665 
L 443.537812 167.763382 
L 444.351075 166.00044 
L 445.164337 165.043414 
L 445.9776 164.872157 
L 446.790863 161.154867 
L 447.604126 159.724365 
L 448.417389 156.591365 
L 449.230652 156.45033 
L 450.043915 154.798201 
L 450.857178 142.145313 
L 451.670441 141.047252 
L 452.483703 138.145952 
L 453.296966 137.188927 
L 454.110229 136.040496 
L 454.923492 126.137797 
L 455.736755 125.986688 
L 456.550018 123.780492 
L 457.363281 107.803198 
L 458.176544 100.187288 
L 458.989807 98.051609 
L 459.803069 91.654647 
L 460.616332 91.221467 
L 461.429595 86.476634 
L 462.242858 79.938637 
L 463.056121 76.060164 
L 463.869384 74.11589 
L 464.682647 69.461723 
L 465.49591 69.099061 
L 467.122435 68.837138 
L 467.935698 66.439536 
L 468.748961 59.528803 
L 470.375487 57.141275 
L 471.18875 55.015671 
L 472.002013 50.593204 
L 472.815276 49.142554 
L 473.628539 49.061963 
L 474.441802 47.571017 
L 475.255064 46.956506 
L 476.068327 45.99948 
L 476.88159 44.438017 
L 477.694853 42.4333 
L 479.321379 39.753628 
L 480.947905 36.660923 
L 481.761168 36.660923 
L 482.57443 36.177374 
L 484.200956 36.106856 
L 503.719266 36.106856 
L 504.532528 27 
L 504.532528 27 
" clip-path="url(#p31be3c2817)" style="fill: none; stroke: #808080; stroke-width: 2; stroke-linecap: square"/>
   </g>
   <g id="line2d_14">
    <path d="M 98.714347 279 
L 106.033713 278.889186 
L 113.353079 278.697781 
L 123.112233 278.314971 
L 127.178548 278.204158 
L 140.190754 277.952309 
L 143.443806 277.881791 
L 151.576434 277.680312 
L 159.709063 277.378093 
L 162.148852 277.307575 
L 164.588641 277.257206 
L 168.654955 277.146392 
L 170.281481 277.025505 
L 175.161058 276.8341 
L 179.227373 276.73336 
L 183.293687 276.612473 
L 188.173264 276.340476 
L 198.745682 276.028183 
L 201.185471 275.81663 
L 203.625259 275.665521 
L 210.131362 275.343154 
L 212.571151 275.252489 
L 215.824203 275.121527 
L 221.517043 274.748791 
L 223.143569 274.617829 
L 229.649672 274.406276 
L 230.462935 274.255167 
L 232.08946 274.235019 
L 232.902723 273.842135 
L 236.155775 273.539916 
L 241.848615 273.368659 
L 243.475141 273.227623 
L 248.354718 272.824665 
L 252.421033 272.613112 
L 254.047558 272.512373 
L 254.860821 272.512373 
L 255.674084 272.331041 
L 257.30061 272.290746 
L 258.927136 271.897861 
L 260.553662 271.807196 
L 263.806713 271.736678 
L 264.619976 271.545273 
L 267.873028 271.414311 
L 268.68629 271.18261 
L 280.885234 270.789726 
L 281.698497 270.668839 
L 284.951548 270.608395 
L 286.578074 270.507655 
L 289.831126 270.46736 
L 290.644388 270.26588 
L 291.457651 270.255807 
L 292.270914 270.074475 
L 297.963754 269.98381 
L 298.777017 269.772257 
L 304.469858 269.238337 
L 305.283121 269.046932 
L 315.855538 268.311533 
L 317.482064 268.130202 
L 319.10859 268.04961 
L 319.921853 267.787687 
L 321.548378 267.71717 
L 322.361641 267.56606 
L 328.054481 267.314211 
L 332.120796 266.75007 
L 335.373847 266.639256 
L 338.626899 266.044893 
L 341.066688 265.682231 
L 345.133002 265.510973 
L 345.946265 265.309494 
L 346.759528 264.825944 
L 350.012579 264.171137 
L 352.452368 263.677513 
L 353.265631 263.657366 
L 354.078894 263.506256 
L 355.70542 262.811153 
L 357.331945 262.5996 
L 358.958471 262.519009 
L 361.39826 262.176494 
L 365.464574 262.025385 
L 366.277837 261.854128 
L 369.530889 261.6325 
L 372.78394 261.340356 
L 373.597203 261.098581 
L 375.223729 260.987767 
L 376.036992 260.846732 
L 378.476781 260.806436 
L 383.356358 259.990446 
L 384.169621 259.718449 
L 384.982884 259.708375 
L 385.796147 259.436378 
L 389.049198 259.023346 
L 389.862461 258.277873 
L 391.488987 258.086468 
L 393.115513 257.723806 
L 395.555301 257.482031 
L 397.99509 256.917889 
L 398.808353 256.877593 
L 400.434879 256.38397 
L 401.248141 255.960863 
L 402.061404 255.95079 
L 403.68793 255.759384 
L 404.501193 255.205317 
L 405.314456 255.175095 
L 406.127719 255.003838 
L 407.754245 254.943394 
L 408.567507 254.751989 
L 410.194033 254.691545 
L 411.007296 253.946072 
L 411.820559 253.946072 
L 413.447085 253.452449 
L 414.260348 253.432301 
L 415.073611 253.160304 
L 416.700136 252.989047 
L 417.513399 252.545793 
L 419.953188 251.770098 
L 420.766451 250.994403 
L 425.646028 250.188487 
L 427.272554 249.896342 
L 428.085817 249.171017 
L 428.89908 248.697541 
L 429.712343 248.425545 
L 431.338868 248.294583 
L 432.152131 247.448371 
L 432.965394 247.196522 
L 434.59192 246.914451 
L 436.218446 245.987647 
L 437.031709 245.685429 
L 438.658234 243.469159 
L 439.471497 242.794203 
L 440.28476 242.371097 
L 441.911286 242.361023 
L 442.724549 242.129322 
L 443.537812 241.323406 
L 444.351075 240.759264 
L 445.164337 240.003718 
L 446.790863 239.802239 
L 447.604126 238.15011 
L 448.417389 238.019149 
L 449.230652 236.719608 
L 451.670441 233.636978 
L 452.483703 232.518769 
L 453.296966 232.458325 
L 455.736755 231.944553 
L 456.550018 231.450929 
L 457.363281 230.554347 
L 458.176544 230.413312 
L 458.989807 230.131241 
L 459.803069 228.458965 
L 460.616332 227.340756 
L 461.429595 225.829662 
L 462.242858 224.661083 
L 463.056121 224.308495 
L 463.869384 222.676514 
L 464.682647 221.759784 
L 465.49591 219.875954 
L 466.309173 219.744993 
L 467.935698 219.10026 
L 468.748961 219.059964 
L 470.375487 217.80072 
L 471.18875 217.740276 
L 472.002013 217.307096 
L 472.815276 216.702658 
L 473.628539 215.493784 
L 474.441802 208.754307 
L 475.255064 207.001439 
L 476.068327 205.611233 
L 476.88159 200.392924 
L 477.694853 199.264641 
L 478.508116 195.617869 
L 479.321379 193.451969 
L 480.134642 189.895862 
L 480.947905 189.724605 
L 481.761168 187.891145 
L 482.57443 186.339756 
L 483.387693 185.86628 
L 484.200956 185.614431 
L 485.014219 185.543914 
L 485.827482 181.705737 
L 486.640745 181.453888 
L 487.454008 180.56738 
L 488.267271 178.361183 
L 489.080534 176.779572 
L 489.893796 172.125405 
L 490.707059 171.208675 
L 491.520322 171.067639 
L 492.333585 170.43298 
L 498.026425 170.43298 
L 498.839688 151.876754 
L 499.652951 122.067919 
L 500.466214 108.065121 
L 501.279477 91.58413 
L 502.09274 79.696862 
L 502.906003 53.796722 
L 503.719266 39.159264 
L 504.532528 36.106856 
L 504.532528 36.106856 
" clip-path="url(#p31be3c2817)" style="fill: none; stroke: #ff7f0e; stroke-width: 2; stroke-linecap: square"/>
   </g>
   <g id="patch_3">
    <path d="M 78.423438 291.6 
L 78.423438 14.4 
" style="fill: none; stroke: #000000; stroke-width: 0.8; stroke-linejoin: miter; stroke-linecap: square"/>
   </g>
   <g id="patch_4">
    <path d="M 524.823437 291.6 
L 524.823437 14.4 
" style="fill: none; stroke: #000000; stroke-width: 0.8; stroke-linejoin: miter; stroke-linecap: square"/>
   </g>
   <g id="patch_5">
    <path d="M 78.423438 291.6 
L 524.823437 291.6 
" style="fill: none; stroke: #000000; stroke-width: 0.8; stroke-linejoin: miter; stroke-linecap: square"/>
   </g>
   <g id="patch_6">
    <path d="M 78.423438 14.4 
L 524.823437 14.4 
" style="fill: none; stroke: #000000; stroke-width: 0.8; stroke-linejoin: miter; stroke-linecap: square"/>
   </g>
   <g id="legend_1">
    <g id="patch_7">
     <path d="M 93.823438 125.317813 
L 248.517812 125.317813 
Q 252.917812 125.317813 252.917812 120.917812 
L 252.917812 29.8 
Q 252.917812 25.4 248.517812 25.4 
L 93.823438 25.4 
Q 89.423438 25.4 89.423438 29.8 
L 89.423438 120.917812 
Q 89.423438 125.317813 93.823438 125.317813 
z
" style="fill: #ffffff; opacity: 0.8; stroke: #cccccc; stroke-linejoin: miter"/>
    </g>
    <g id="line2d_15">
     <path d="M 98.223438 41.9 
L 120.223438 41.9 
L 142.223437 41.9 
" style="fill: none; stroke: #1f77b4; stroke-width: 2; stroke-linecap: square"/>
    </g>
    <g id="text_14">
     <!-- duarouter -->
     <g transform="translate(159.823438 49.6)scale(0.22 -0.22)">
      <defs>
       <path id="TimesNewRomanPSMT-75" d="M 2709 2863 
L 2709 1128 
Q 2709 631 2732 520 
Q 2756 409 2807 365 
Q 2859 322 2928 322 
Q 3025 322 3147 375 
L 3191 266 
L 2334 -88 
L 2194 -88 
L 2194 519 
Q 1825 119 1631 15 
Q 1438 -88 1222 -88 
Q 981 -88 804 51 
Q 628 191 559 409 
Q 491 628 491 1028 
L 491 2306 
Q 491 2509 447 2587 
Q 403 2666 317 2708 
Q 231 2750 6 2747 
L 6 2863 
L 1009 2863 
L 1009 947 
Q 1009 547 1148 422 
Q 1288 297 1484 297 
Q 1619 297 1789 381 
Q 1959 466 2194 703 
L 2194 2325 
Q 2194 2569 2105 2655 
Q 2016 2741 1734 2747 
L 1734 2863 
L 2709 2863 
z
" transform="scale(0.015625)"/>
       <path id="TimesNewRomanPSMT-72" d="M 1038 2947 
L 1038 2303 
Q 1397 2947 1775 2947 
Q 1947 2947 2059 2842 
Q 2172 2738 2172 2600 
Q 2172 2478 2090 2393 
Q 2009 2309 1897 2309 
Q 1788 2309 1652 2417 
Q 1516 2525 1450 2525 
Q 1394 2525 1328 2463 
Q 1188 2334 1038 2041 
L 1038 669 
Q 1038 431 1097 309 
Q 1138 225 1241 169 
Q 1344 113 1538 113 
L 1538 0 
L 72 0 
L 72 113 
Q 291 113 397 181 
Q 475 231 506 341 
Q 522 394 522 644 
L 522 1753 
Q 522 2253 501 2348 
Q 481 2444 426 2487 
Q 372 2531 291 2531 
Q 194 2531 72 2484 
L 41 2597 
L 906 2947 
L 1038 2947 
z
" transform="scale(0.015625)"/>
      </defs>
      <use xlink:href="#TimesNewRomanPSMT-64"/>
      <use xlink:href="#TimesNewRomanPSMT-75" x="50"/>
      <use xlink:href="#TimesNewRomanPSMT-61" x="100"/>
      <use xlink:href="#TimesNewRomanPSMT-72" x="144.384766"/>
      <use xlink:href="#TimesNewRomanPSMT-6f" x="177.685547"/>
      <use xlink:href="#TimesNewRomanPSMT-75" x="227.685547"/>
      <use xlink:href="#TimesNewRomanPSMT-74" x="277.685547"/>
      <use xlink:href="#TimesNewRomanPSMT-65" x="305.46875"/>
      <use xlink:href="#TimesNewRomanPSMT-72" x="349.853516"/>
     </g>
    </g>
    <g id="line2d_16">
     <path d="M 98.223438 73.005938 
L 120.223438 73.005938 
L 142.223437 73.005938 
" style="fill: none; stroke: #808080; stroke-width: 2; stroke-linecap: square"/>
    </g>
    <g id="text_15">
     <!-- PPP -->
     <g transform="translate(159.823438 80.705938)scale(0.22 -0.22)">
      <defs>
       <path id="TimesNewRomanPSMT-50" d="M 1313 1984 
L 1313 750 
Q 1313 350 1400 253 
Q 1519 116 1759 116 
L 1922 116 
L 1922 0 
L 106 0 
L 106 116 
L 266 116 
Q 534 116 650 291 
Q 713 388 713 750 
L 713 3488 
Q 713 3888 628 3984 
Q 506 4122 266 4122 
L 106 4122 
L 106 4238 
L 1659 4238 
Q 2228 4238 2556 4120 
Q 2884 4003 3109 3725 
Q 3334 3447 3334 3066 
Q 3334 2547 2992 2222 
Q 2650 1897 2025 1897 
Q 1872 1897 1694 1919 
Q 1516 1941 1313 1984 
z
M 1313 2163 
Q 1478 2131 1606 2115 
Q 1734 2100 1825 2100 
Q 2150 2100 2386 2351 
Q 2622 2603 2622 3003 
Q 2622 3278 2509 3514 
Q 2397 3750 2190 3867 
Q 1984 3984 1722 3984 
Q 1563 3984 1313 3925 
L 1313 2163 
z
" transform="scale(0.015625)"/>
      </defs>
      <use xlink:href="#TimesNewRomanPSMT-50"/>
      <use xlink:href="#TimesNewRomanPSMT-50" x="55.615234"/>
      <use xlink:href="#TimesNewRomanPSMT-50" x="111.230469"/>
     </g>
    </g>
    <g id="line2d_17">
     <path d="M 98.223438 104.111875 
L 120.223438 104.111875 
L 142.223437 104.111875 
" style="fill: none; stroke: #ff7f0e; stroke-width: 2; stroke-linecap: square"/>
    </g>
    <g id="text_16">
     <!-- IPP -->
     <g transform="translate(159.823438 111.811875)scale(0.22 -0.22)">
      <defs>
       <path id="TimesNewRomanPSMT-49" d="M 1975 116 
L 1975 0 
L 159 0 
L 159 116 
L 309 116 
Q 572 116 691 269 
Q 766 369 766 750 
L 766 3488 
Q 766 3809 725 3913 
Q 694 3991 597 4047 
Q 459 4122 309 4122 
L 159 4122 
L 159 4238 
L 1975 4238 
L 1975 4122 
L 1822 4122 
Q 1563 4122 1444 3969 
Q 1366 3869 1366 3488 
L 1366 750 
Q 1366 428 1406 325 
Q 1438 247 1538 191 
Q 1672 116 1822 116 
L 1975 116 
z
" transform="scale(0.015625)"/>
      </defs>
      <use xlink:href="#TimesNewRomanPSMT-49"/>
      <use xlink:href="#TimesNewRomanPSMT-50" x="33.300781"/>
      <use xlink:href="#TimesNewRomanPSMT-50" x="88.916016"/>
     </g>
    </g>
   </g>
  </g>
 </g>
 <defs>
  <clipPath id="p31be3c2817">
   <rect x="78.423438" y="14.4" width="446.4" height="277.2"/>
  </clipPath>
 </defs>
</svg>
