<?xml version="1.0" encoding="utf-8" standalone="no"?>
<!DOCTYPE svg PUBLIC "-//W3C//DTD SVG 1.1//EN"
  "http://www.w3.org/Graphics/SVG/1.1/DTD/svg11.dtd">
<svg xmlns:xlink="http://www.w3.org/1999/xlink" width="648pt" height="720pt" viewBox="0 0 648 720" xmlns="http://www.w3.org/2000/svg" version="1.1">
 <metadata>
  <rdf:RDF xmlns:dc="http://purl.org/dc/elements/1.1/" xmlns:cc="http://creativecommons.org/ns#" xmlns:rdf="http://www.w3.org/1999/02/22-rdf-syntax-ns#">
   <cc:Work>
    <dc:type rdf:resource="http://purl.org/dc/dcmitype/StillImage"/>
    <dc:date>2022-08-23T11:18:35.737602</dc:date>
    <dc:format>image/svg+xml</dc:format>
    <dc:creator>
     <cc:Agent>
      <dc:title>Matplotlib v3.5.1, https://matplotlib.org/</dc:title>
     </cc:Agent>
    </dc:creator>
   </cc:Work>
  </rdf:RDF>
 </metadata>
 <defs>
  <style type="text/css">*{stroke-linejoin: round; stroke-linecap: butt}</style>
 </defs>
 <g id="figure_1">
  <g id="patch_1">
   <path d="M 0 720 
L 648 720 
L 648 0 
L 0 0 
z
" style="fill: #ffffff"/>
  </g>
  <g id="axes_1">
   <g id="patch_2">
    <path d="M 81 648 
L 583.2 648 
L 583.2 72 
L 81 72 
z
" style="fill: #ffffff"/>
   </g>
   <g id="PolyCollection_1">
    <defs>
     <path id="m450d4edfd3" d="M 214.551192 -118.627211 
L 198.548808 -118.627211 
L 189.260208 -123.502382 
L 174.12885 -128.377552 
L 153.728777 -133.252723 
L 131.649309 -138.127894 
L 113.874973 -143.003064 
L 106.11 -147.878235 
L 110.625745 -152.753406 
L 125.037702 -157.628576 
L 143.946876 -162.503747 
L 161.999616 -167.378918 
L 176.077071 -172.254088 
L 185.568952 -177.129259 
L 191.357638 -182.00443 
L 194.684036 -186.8796 
L 196.538285 -191.754771 
L 197.547379 -196.629942 
L 198.075683 -201.505113 
L 198.335131 -206.380283 
L 198.448085 -211.255454 
L 198.480037 -216.130625 
L 198.465025 -221.005795 
L 198.427816 -225.880966 
L 198.394422 -230.756137 
L 198.386498 -235.631307 
L 198.40849 -240.506478 
L 198.443379 -245.381649 
L 198.464668 -250.256819 
L 198.45666 -255.13199 
L 198.42796 -260.007161 
L 198.410351 -264.882332 
L 198.447391 -269.757502 
L 198.581477 -274.632673 
L 198.84296 -279.507844 
L 199.240129 -284.383014 
L 199.751769 -289.258185 
L 200.329262 -294.133356 
L 200.912438 -299.008526 
L 201.452447 -303.883697 
L 201.927426 -308.758868 
L 202.341367 -313.634038 
L 202.709248 -318.509209 
L 203.040598 -323.38438 
L 203.332511 -328.259551 
L 203.574154 -333.134721 
L 203.756564 -338.009892 
L 203.879988 -342.885063 
L 203.955013 -347.760233 
L 203.998258 -352.635404 
L 204.025562 -357.510575 
L 204.045902 -362.385745 
L 204.058649 -367.260916 
L 204.055283 -372.136087 
L 204.024299 -377.011257 
L 203.956035 -381.886428 
L 203.844551 -386.761599 
L 203.687169 -391.636769 
L 203.485507 -396.51194 
L 203.250261 -401.387111 
L 203.006045 -406.262282 
L 202.789363 -411.137452 
L 202.637285 -416.012623 
L 202.572273 -420.887794 
L 202.591675 -425.762964 
L 202.666839 -430.638135 
L 202.751501 -435.513306 
L 202.796069 -440.388476 
L 202.76352 -445.263647 
L 202.64283 -450.138818 
L 202.45655 -455.013988 
L 202.259033 -459.889159 
L 202.121951 -464.76433 
L 202.107904 -469.639501 
L 202.242301 -474.514671 
L 202.499946 -479.389842 
L 202.816334 -484.265013 
L 203.117465 -489.140183 
L 203.350657 -494.015354 
L 203.501533 -498.890525 
L 203.593129 -503.765695 
L 203.67139 -508.640866 
L 203.784364 -513.516037 
L 203.96328 -518.391207 
L 204.213077 -523.266378 
L 204.515509 -528.141549 
L 204.840991 -533.01672 
L 205.161121 -537.89189 
L 205.455587 -542.767061 
L 205.712612 -547.642232 
L 205.926359 -552.517402 
L 206.09514 -557.392573 
L 206.221551 -562.267744 
L 206.312731 -567.142914 
L 206.378623 -572.018085 
L 206.428443 -576.893256 
L 206.467824 -581.768426 
L 206.498635 -586.643597 
L 206.521009 -591.518768 
L 206.535458 -596.393938 
L 206.543582 -601.269109 
L 206.556418 -601.269109 
L 206.556418 -601.269109 
L 206.564542 -596.393938 
L 206.578991 -591.518768 
L 206.601365 -586.643597 
L 206.632176 -581.768426 
L 206.671557 -576.893256 
L 206.721377 -572.018085 
L 206.787269 -567.142914 
L 206.878449 -562.267744 
L 207.00486 -557.392573 
L 207.173641 -552.517402 
L 207.387388 -547.642232 
L 207.644413 -542.767061 
L 207.938879 -537.89189 
L 208.259009 -533.01672 
L 208.584491 -528.141549 
L 208.886923 -523.266378 
L 209.13672 -518.391207 
L 209.315636 -513.516037 
L 209.42861 -508.640866 
L 209.506871 -503.765695 
L 209.598467 -498.890525 
L 209.749343 -494.015354 
L 209.982535 -489.140183 
L 210.283666 -484.265013 
L 210.600054 -479.389842 
L 210.857699 -474.514671 
L 210.992096 -469.639501 
L 210.978049 -464.76433 
L 210.840967 -459.889159 
L 210.64345 -455.013988 
L 210.45717 -450.138818 
L 210.33648 -445.263647 
L 210.303931 -440.388476 
L 210.348499 -435.513306 
L 210.433161 -430.638135 
L 210.508325 -425.762964 
L 210.527727 -420.887794 
L 210.462715 -416.012623 
L 210.310637 -411.137452 
L 210.093955 -406.262282 
L 209.849739 -401.387111 
L 209.614493 -396.51194 
L 209.412831 -391.636769 
L 209.255449 -386.761599 
L 209.143965 -381.886428 
L 209.075701 -377.011257 
L 209.044717 -372.136087 
L 209.041351 -367.260916 
L 209.054098 -362.385745 
L 209.074438 -357.510575 
L 209.101742 -352.635404 
L 209.144987 -347.760233 
L 209.220012 -342.885063 
L 209.343436 -338.009892 
L 209.525846 -333.134721 
L 209.767489 -328.259551 
L 210.059402 -323.38438 
L 210.390752 -318.509209 
L 210.758633 -313.634038 
L 211.172574 -308.758868 
L 211.647553 -303.883697 
L 212.187562 -299.008526 
L 212.770738 -294.133356 
L 213.348231 -289.258185 
L 213.859871 -284.383014 
L 214.25704 -279.507844 
L 214.518523 -274.632673 
L 214.652609 -269.757502 
L 214.689649 -264.882332 
L 214.67204 -260.007161 
L 214.64334 -255.13199 
L 214.635332 -250.256819 
L 214.656621 -245.381649 
L 214.69151 -240.506478 
L 214.713502 -235.631307 
L 214.705578 -230.756137 
L 214.672184 -225.880966 
L 214.634975 -221.005795 
L 214.619963 -216.130625 
L 214.651915 -211.255454 
L 214.764869 -206.380283 
L 215.024317 -201.505113 
L 215.552621 -196.629942 
L 216.561715 -191.754771 
L 218.415964 -186.8796 
L 221.742362 -182.00443 
L 227.531048 -177.129259 
L 237.022929 -172.254088 
L 251.100384 -167.378918 
L 269.153124 -162.503747 
L 288.062298 -157.628576 
L 302.474255 -152.753406 
L 306.99 -147.878235 
L 299.225027 -143.003064 
L 281.450691 -138.127894 
L 259.371223 -133.252723 
L 238.97115 -128.377552 
L 223.839792 -123.502382 
L 214.551192 -118.627211 
z
" style="stroke: #737373"/>
    </defs>
    <g clip-path="url(#p8218467c84)">
     <use xlink:href="#m450d4edfd3" x="0" y="720" style="fill: #abc9ea; stroke: #737373"/>
    </g>
   </g>
   <g id="PolyCollection_2">
    <defs>
     <path id="m8ad1b0d5c4" d="M 463.358925 -136.928068 
L 451.941075 -136.928068 
L 438.543 -139.088055 
L 412.003912 -141.248042 
L 378.802783 -143.40803 
L 357.228915 -145.568017 
L 360.466184 -147.728004 
L 382.774575 -149.887992 
L 408.381495 -152.047979 
L 427.202862 -154.207966 
L 438.170028 -156.367953 
L 444.035002 -158.527941 
L 447.338758 -160.687928 
L 449.472094 -162.847915 
L 450.986175 -165.007903 
L 452.028733 -167.16789 
L 452.661241 -169.327877 
L 453.017388 -171.487865 
L 453.302945 -173.647852 
L 453.670148 -175.807839 
L 454.104755 -177.967827 
L 454.484221 -180.127814 
L 454.738704 -182.287801 
L 454.905405 -184.447789 
L 455.052401 -186.607776 
L 455.212878 -188.767763 
L 455.378686 -190.927751 
L 455.512213 -193.087738 
L 455.578092 -195.247725 
L 455.586189 -197.407713 
L 455.584476 -199.5677 
L 455.603913 -201.727687 
L 455.635499 -203.887675 
L 455.662696 -206.047662 
L 455.692675 -208.207649 
L 455.747254 -210.367637 
L 455.829325 -212.527624 
L 455.909483 -214.687611 
L 455.957193 -216.847598 
L 455.972845 -219.007586 
L 455.973118 -221.167573 
L 455.966178 -223.32756 
L 455.961063 -225.487548 
L 455.975785 -227.647535 
L 456.019524 -229.807522 
L 456.09085 -231.96751 
L 456.189274 -234.127497 
L 456.298948 -236.287484 
L 456.380103 -238.447472 
L 456.405788 -240.607459 
L 456.390135 -242.767446 
L 456.370081 -244.927434 
L 456.374679 -247.087421 
L 456.408123 -249.247408 
L 456.453353 -251.407396 
L 456.495863 -253.567383 
L 456.53574 -255.72737 
L 456.574436 -257.887358 
L 456.609755 -260.047345 
L 456.644288 -262.207332 
L 456.681115 -264.36732 
L 456.717599 -266.527307 
L 456.760243 -268.687294 
L 456.831634 -270.847282 
L 456.941828 -273.007269 
L 457.067106 -275.167256 
L 457.169095 -277.327243 
L 457.223062 -279.487231 
L 457.231187 -281.647218 
L 457.218139 -283.807205 
L 457.209314 -285.967193 
L 457.216961 -288.12718 
L 457.247367 -290.287167 
L 457.300831 -292.447155 
L 457.360484 -294.607142 
L 457.402986 -296.767129 
L 457.424359 -298.927117 
L 457.438234 -301.087104 
L 457.450618 -303.247091 
L 457.454549 -305.407079 
L 457.447441 -307.567066 
L 457.436695 -309.727053 
L 457.428344 -311.887041 
L 457.422231 -314.047028 
L 457.41956 -316.207015 
L 457.426563 -318.367003 
L 457.445478 -320.52699 
L 457.467387 -322.686977 
L 457.483192 -324.846965 
L 457.497846 -327.006952 
L 457.522291 -329.166939 
L 457.554575 -331.326927 
L 457.581561 -333.486914 
L 457.597437 -335.646901 
L 457.608532 -337.806888 
L 457.620584 -339.966876 
L 457.632031 -342.126863 
L 457.640077 -344.28685 
L 457.644954 -346.446838 
L 457.64782 -348.606825 
L 457.649278 -350.766812 
L 457.650722 -350.766812 
L 457.650722 -350.766812 
L 457.65218 -348.606825 
L 457.655046 -346.446838 
L 457.659923 -344.28685 
L 457.667969 -342.126863 
L 457.679416 -339.966876 
L 457.691468 -337.806888 
L 457.702563 -335.646901 
L 457.718439 -333.486914 
L 457.745425 -331.326927 
L 457.777709 -329.166939 
L 457.802154 -327.006952 
L 457.816808 -324.846965 
L 457.832613 -322.686977 
L 457.854522 -320.52699 
L 457.873437 -318.367003 
L 457.88044 -316.207015 
L 457.877769 -314.047028 
L 457.871656 -311.887041 
L 457.863305 -309.727053 
L 457.852559 -307.567066 
L 457.845451 -305.407079 
L 457.849382 -303.247091 
L 457.861766 -301.087104 
L 457.875641 -298.927117 
L 457.897014 -296.767129 
L 457.939516 -294.607142 
L 457.999169 -292.447155 
L 458.052633 -290.287167 
L 458.083039 -288.12718 
L 458.090686 -285.967193 
L 458.081861 -283.807205 
L 458.068813 -281.647218 
L 458.076938 -279.487231 
L 458.130905 -277.327243 
L 458.232894 -275.167256 
L 458.358172 -273.007269 
L 458.468366 -270.847282 
L 458.539757 -268.687294 
L 458.582401 -266.527307 
L 458.618885 -264.36732 
L 458.655712 -262.207332 
L 458.690245 -260.047345 
L 458.725564 -257.887358 
L 458.76426 -255.72737 
L 458.804137 -253.567383 
L 458.846647 -251.407396 
L 458.891877 -249.247408 
L 458.925321 -247.087421 
L 458.929919 -244.927434 
L 458.909865 -242.767446 
L 458.894212 -240.607459 
L 458.919897 -238.447472 
L 459.001052 -236.287484 
L 459.110726 -234.127497 
L 459.20915 -231.96751 
L 459.280476 -229.807522 
L 459.324215 -227.647535 
L 459.338937 -225.487548 
L 459.333822 -223.32756 
L 459.326882 -221.167573 
L 459.327155 -219.007586 
L 459.342807 -216.847598 
L 459.390517 -214.687611 
L 459.470675 -212.527624 
L 459.552746 -210.367637 
L 459.607325 -208.207649 
L 459.637304 -206.047662 
L 459.664501 -203.887675 
L 459.696087 -201.727687 
L 459.715524 -199.5677 
L 459.713811 -197.407713 
L 459.721908 -195.247725 
L 459.787787 -193.087738 
L 459.921314 -190.927751 
L 460.087122 -188.767763 
L 460.247599 -186.607776 
L 460.394595 -184.447789 
L 460.561296 -182.287801 
L 460.815779 -180.127814 
L 461.195245 -177.967827 
L 461.629852 -175.807839 
L 461.997055 -173.647852 
L 462.282612 -171.487865 
L 462.638759 -169.327877 
L 463.271267 -167.16789 
L 464.313825 -165.007903 
L 465.827906 -162.847915 
L 467.961242 -160.687928 
L 471.264998 -158.527941 
L 477.129972 -156.367953 
L 488.097138 -154.207966 
L 506.918505 -152.047979 
L 532.525425 -149.887992 
L 554.833816 -147.728004 
L 558.071085 -145.568017 
L 536.497217 -143.40803 
L 503.296088 -141.248042 
L 476.757 -139.088055 
L 463.358925 -136.928068 
z
" style="stroke: #737373"/>
    </defs>
    <g clip-path="url(#p8218467c84)">
     <use xlink:href="#m8ad1b0d5c4" x="0" y="720" style="fill: #efb792; stroke: #737373"/>
    </g>
   </g>
   <g id="line2d_1">
    <path d="M 107.1144 573.7608 
L 305.9856 573.7608 
" clip-path="url(#p8218467c84)" style="fill: none; stroke-dasharray: 1.5,1.5; stroke-dashoffset: 0; stroke: #737373"/>
   </g>
   <g id="line2d_2">
    <path d="M 111.584988 568.88388 
L 301.515012 568.88388 
" clip-path="url(#p8218467c84)" style="fill: none; stroke-dasharray: 3,3; stroke-dashoffset: 0; stroke: #737373"/>
   </g>
   <g id="line2d_3">
    <path d="M 198.475978 487.60848 
L 214.624022 487.60848 
" clip-path="url(#p8218467c84)" style="fill: none; stroke-dasharray: 1.5,1.5; stroke-dashoffset: 0; stroke: #737373"/>
   </g>
   <g id="line2d_4">
    <path d="M 358.233126 574.78284 
L 557.066874 574.78284 
" clip-path="url(#p8218467c84)" style="fill: none; stroke-dasharray: 1.5,1.5; stroke-dashoffset: 0; stroke: #737373"/>
   </g>
   <g id="line2d_5">
    <path d="M 361.438022 572.6556 
L 553.861978 572.6556 
" clip-path="url(#p8218467c84)" style="fill: none; stroke-dasharray: 3,3; stroke-dashoffset: 0; stroke: #737373"/>
   </g>
   <g id="line2d_6">
    <path d="M 427.507333 566.01648 
L 487.792667 566.01648 
" clip-path="url(#p8218467c84)" style="fill: none; stroke-dasharray: 1.5,1.5; stroke-dashoffset: 0; stroke: #737373"/>
   </g>
   <g id="patch_3">
    <path d="M 81 648 
L 81 72 
" style="fill: none; stroke: #1a1a1a; stroke-linejoin: miter; stroke-linecap: square"/>
   </g>
   <g id="patch_4">
    <path d="M 583.2 648 
L 583.2 72 
" style="fill: none; stroke: #1a1a1a; stroke-linejoin: miter; stroke-linecap: square"/>
   </g>
   <g id="patch_5">
    <path d="M 81 648 
L 583.2 648 
" style="fill: none; stroke: #1a1a1a; stroke-linejoin: miter; stroke-linecap: square"/>
   </g>
   <g id="patch_6">
    <path d="M 81 72 
L 583.2 72 
" style="fill: none; stroke: #1a1a1a; stroke-linejoin: miter; stroke-linecap: square"/>
   </g>
   <g id="matplotlib.axis_1">
    <g id="xtick_1">
     <g id="line2d_7">
      <defs>
       <path id="m040c89b4e8" d="M 0 0 
L 0 -4 
" style="stroke: #1a1a1a; stroke-width: 0.5"/>
      </defs>
      <g>
       <use xlink:href="#m040c89b4e8" x="206.55" y="648" style="fill: #1a1a1a; stroke: #1a1a1a; stroke-width: 0.5"/>
      </g>
     </g>
     <g id="line2d_8">
      <defs>
       <path id="m54842dcf3c" d="M 0 0 
L 0 4 
" style="stroke: #1a1a1a; stroke-width: 0.5"/>
      </defs>
      <g>
       <use xlink:href="#m54842dcf3c" x="206.55" y="72" style="fill: #1a1a1a; stroke: #1a1a1a; stroke-width: 0.5"/>
      </g>
     </g>
     <g id="text_1">
      <!-- duarouter -->
      <g style="fill: #1a1a1a" transform="translate(160.57125 668.665)scale(0.24 -0.24)">
       <defs>
        <path id="TimesNewRomanPSMT-64" d="M 2222 322 
Q 2013 103 1813 7 
Q 1613 -88 1381 -88 
Q 913 -88 563 304 
Q 213 697 213 1313 
Q 213 1928 600 2439 
Q 988 2950 1597 2950 
Q 1975 2950 2222 2709 
L 2222 3238 
Q 2222 3728 2198 3840 
Q 2175 3953 2125 3993 
Q 2075 4034 2000 4034 
Q 1919 4034 1784 3984 
L 1744 4094 
L 2597 4444 
L 2738 4444 
L 2738 1134 
Q 2738 631 2761 520 
Q 2784 409 2836 365 
Q 2888 322 2956 322 
Q 3041 322 3181 375 
L 3216 266 
L 2366 -88 
L 2222 -88 
L 2222 322 
z
M 2222 541 
L 2222 2016 
Q 2203 2228 2109 2403 
Q 2016 2578 1861 2667 
Q 1706 2756 1559 2756 
Q 1284 2756 1069 2509 
Q 784 2184 784 1559 
Q 784 928 1059 592 
Q 1334 256 1672 256 
Q 1956 256 2222 541 
z
" transform="scale(0.015625)"/>
        <path id="TimesNewRomanPSMT-75" d="M 2709 2863 
L 2709 1128 
Q 2709 631 2732 520 
Q 2756 409 2807 365 
Q 2859 322 2928 322 
Q 3025 322 3147 375 
L 3191 266 
L 2334 -88 
L 2194 -88 
L 2194 519 
Q 1825 119 1631 15 
Q 1438 -88 1222 -88 
Q 981 -88 804 51 
Q 628 191 559 409 
Q 491 628 491 1028 
L 491 2306 
Q 491 2509 447 2587 
Q 403 2666 317 2708 
Q 231 2750 6 2747 
L 6 2863 
L 1009 2863 
L 1009 947 
Q 1009 547 1148 422 
Q 1288 297 1484 297 
Q 1619 297 1789 381 
Q 1959 466 2194 703 
L 2194 2325 
Q 2194 2569 2105 2655 
Q 2016 2741 1734 2747 
L 1734 2863 
L 2709 2863 
z
" transform="scale(0.015625)"/>
        <path id="TimesNewRomanPSMT-61" d="M 1822 413 
Q 1381 72 1269 19 
Q 1100 -59 909 -59 
Q 613 -59 420 144 
Q 228 347 228 678 
Q 228 888 322 1041 
Q 450 1253 767 1440 
Q 1084 1628 1822 1897 
L 1822 2009 
Q 1822 2438 1686 2597 
Q 1550 2756 1291 2756 
Q 1094 2756 978 2650 
Q 859 2544 859 2406 
L 866 2225 
Q 866 2081 792 2003 
Q 719 1925 600 1925 
Q 484 1925 411 2006 
Q 338 2088 338 2228 
Q 338 2497 613 2722 
Q 888 2947 1384 2947 
Q 1766 2947 2009 2819 
Q 2194 2722 2281 2516 
Q 2338 2381 2338 1966 
L 2338 994 
Q 2338 584 2353 492 
Q 2369 400 2405 369 
Q 2441 338 2488 338 
Q 2538 338 2575 359 
Q 2641 400 2828 588 
L 2828 413 
Q 2478 -56 2159 -56 
Q 2006 -56 1915 50 
Q 1825 156 1822 413 
z
M 1822 616 
L 1822 1706 
Q 1350 1519 1213 1441 
Q 966 1303 859 1153 
Q 753 1003 753 825 
Q 753 600 887 451 
Q 1022 303 1197 303 
Q 1434 303 1822 616 
z
" transform="scale(0.015625)"/>
        <path id="TimesNewRomanPSMT-72" d="M 1038 2947 
L 1038 2303 
Q 1397 2947 1775 2947 
Q 1947 2947 2059 2842 
Q 2172 2738 2172 2600 
Q 2172 2478 2090 2393 
Q 2009 2309 1897 2309 
Q 1788 2309 1652 2417 
Q 1516 2525 1450 2525 
Q 1394 2525 1328 2463 
Q 1188 2334 1038 2041 
L 1038 669 
Q 1038 431 1097 309 
Q 1138 225 1241 169 
Q 1344 113 1538 113 
L 1538 0 
L 72 0 
L 72 113 
Q 291 113 397 181 
Q 475 231 506 341 
Q 522 394 522 644 
L 522 1753 
Q 522 2253 501 2348 
Q 481 2444 426 2487 
Q 372 2531 291 2531 
Q 194 2531 72 2484 
L 41 2597 
L 906 2947 
L 1038 2947 
z
" transform="scale(0.015625)"/>
        <path id="TimesNewRomanPSMT-6f" d="M 1600 2947 
Q 2250 2947 2644 2453 
Q 2978 2031 2978 1484 
Q 2978 1100 2793 706 
Q 2609 313 2286 112 
Q 1963 -88 1566 -88 
Q 919 -88 538 428 
Q 216 863 216 1403 
Q 216 1797 411 2186 
Q 606 2575 925 2761 
Q 1244 2947 1600 2947 
z
M 1503 2744 
Q 1338 2744 1170 2645 
Q 1003 2547 900 2300 
Q 797 2053 797 1666 
Q 797 1041 1045 587 
Q 1294 134 1700 134 
Q 2003 134 2200 384 
Q 2397 634 2397 1244 
Q 2397 2006 2069 2444 
Q 1847 2744 1503 2744 
z
" transform="scale(0.015625)"/>
        <path id="TimesNewRomanPSMT-74" d="M 1031 3803 
L 1031 2863 
L 1700 2863 
L 1700 2644 
L 1031 2644 
L 1031 788 
Q 1031 509 1111 412 
Q 1191 316 1316 316 
Q 1419 316 1516 380 
Q 1613 444 1666 569 
L 1788 569 
Q 1678 263 1478 108 
Q 1278 -47 1066 -47 
Q 922 -47 784 33 
Q 647 113 581 261 
Q 516 409 516 719 
L 516 2644 
L 63 2644 
L 63 2747 
Q 234 2816 414 2980 
Q 594 3144 734 3369 
Q 806 3488 934 3803 
L 1031 3803 
z
" transform="scale(0.015625)"/>
        <path id="TimesNewRomanPSMT-65" d="M 681 1784 
Q 678 1147 991 784 
Q 1303 422 1725 422 
Q 2006 422 2214 576 
Q 2422 731 2563 1106 
L 2659 1044 
Q 2594 616 2278 264 
Q 1963 -88 1488 -88 
Q 972 -88 605 314 
Q 238 716 238 1394 
Q 238 2128 614 2539 
Q 991 2950 1559 2950 
Q 2041 2950 2350 2633 
Q 2659 2316 2659 1784 
L 681 1784 
z
M 681 1966 
L 2006 1966 
Q 1991 2241 1941 2353 
Q 1863 2528 1708 2628 
Q 1553 2728 1384 2728 
Q 1125 2728 920 2526 
Q 716 2325 681 1966 
z
" transform="scale(0.015625)"/>
       </defs>
       <use xlink:href="#TimesNewRomanPSMT-64"/>
       <use xlink:href="#TimesNewRomanPSMT-75" x="50"/>
       <use xlink:href="#TimesNewRomanPSMT-61" x="100"/>
       <use xlink:href="#TimesNewRomanPSMT-72" x="144.384766"/>
       <use xlink:href="#TimesNewRomanPSMT-6f" x="177.685547"/>
       <use xlink:href="#TimesNewRomanPSMT-75" x="227.685547"/>
       <use xlink:href="#TimesNewRomanPSMT-74" x="277.685547"/>
       <use xlink:href="#TimesNewRomanPSMT-65" x="305.46875"/>
       <use xlink:href="#TimesNewRomanPSMT-72" x="349.853516"/>
      </g>
     </g>
    </g>
    <g id="xtick_2">
     <g id="line2d_9">
      <g>
       <use xlink:href="#m040c89b4e8" x="457.65" y="648" style="fill: #1a1a1a; stroke: #1a1a1a; stroke-width: 0.5"/>
      </g>
     </g>
     <g id="line2d_10">
      <g>
       <use xlink:href="#m54842dcf3c" x="457.65" y="72" style="fill: #1a1a1a; stroke: #1a1a1a; stroke-width: 0.5"/>
      </g>
     </g>
     <g id="text_2">
      <!-- TTFMGPP -->
      <g style="fill: #1a1a1a" transform="translate(403.635 668.665)scale(0.24 -0.24)">
       <defs>
        <path id="TimesNewRomanPSMT-54" d="M 3703 4238 
L 3750 3244 
L 3631 3244 
Q 3597 3506 3538 3619 
Q 3441 3800 3280 3886 
Q 3119 3972 2856 3972 
L 2259 3972 
L 2259 734 
Q 2259 344 2344 247 
Q 2463 116 2709 116 
L 2856 116 
L 2856 0 
L 1059 0 
L 1059 116 
L 1209 116 
Q 1478 116 1591 278 
Q 1659 378 1659 734 
L 1659 3972 
L 1150 3972 
Q 853 3972 728 3928 
Q 566 3869 450 3700 
Q 334 3531 313 3244 
L 194 3244 
L 244 4238 
L 3703 4238 
z
" transform="scale(0.015625)"/>
        <path id="TimesNewRomanPSMT-46" d="M 1309 4006 
L 1309 2341 
L 2081 2341 
Q 2347 2341 2470 2458 
Q 2594 2575 2634 2922 
L 2750 2922 
L 2750 1488 
L 2634 1488 
Q 2631 1734 2570 1850 
Q 2509 1966 2401 2023 
Q 2294 2081 2081 2081 
L 1309 2081 
L 1309 750 
Q 1309 428 1350 325 
Q 1381 247 1481 191 
Q 1619 116 1769 116 
L 1922 116 
L 1922 0 
L 103 0 
L 103 116 
L 253 116 
Q 516 116 634 269 
Q 709 369 709 750 
L 709 3488 
Q 709 3809 669 3913 
Q 638 3991 541 4047 
Q 406 4122 253 4122 
L 103 4122 
L 103 4238 
L 3256 4238 
L 3297 3306 
L 3188 3306 
Q 3106 3603 2998 3742 
Q 2891 3881 2733 3943 
Q 2575 4006 2244 4006 
L 1309 4006 
z
" transform="scale(0.015625)"/>
        <path id="TimesNewRomanPSMT-4d" d="M 2619 0 
L 981 3566 
L 981 734 
Q 981 344 1066 247 
Q 1181 116 1431 116 
L 1581 116 
L 1581 0 
L 106 0 
L 106 116 
L 256 116 
Q 525 116 638 278 
Q 706 378 706 734 
L 706 3503 
Q 706 3784 644 3909 
Q 600 4000 483 4061 
Q 366 4122 106 4122 
L 106 4238 
L 1306 4238 
L 2844 922 
L 4356 4238 
L 5556 4238 
L 5556 4122 
L 5409 4122 
Q 5138 4122 5025 3959 
Q 4956 3859 4956 3503 
L 4956 734 
Q 4956 344 5044 247 
Q 5159 116 5409 116 
L 5556 116 
L 5556 0 
L 3756 0 
L 3756 116 
L 3906 116 
Q 4178 116 4288 278 
Q 4356 378 4356 734 
L 4356 3566 
L 2722 0 
L 2619 0 
z
" transform="scale(0.015625)"/>
        <path id="TimesNewRomanPSMT-47" d="M 3928 4334 
L 4038 2997 
L 3928 2997 
Q 3763 3497 3500 3750 
Q 3122 4116 2528 4116 
Q 1719 4116 1297 3475 
Q 944 2934 944 2188 
Q 944 1581 1178 1081 
Q 1413 581 1792 348 
Q 2172 116 2572 116 
Q 2806 116 3025 175 
Q 3244 234 3447 350 
L 3447 1575 
Q 3447 1894 3398 1992 
Q 3350 2091 3248 2142 
Q 3147 2194 2891 2194 
L 2891 2313 
L 4531 2313 
L 4531 2194 
L 4453 2194 
Q 4209 2194 4119 2031 
Q 4056 1916 4056 1575 
L 4056 278 
Q 3697 84 3347 -6 
Q 2997 -97 2569 -97 
Q 1341 -97 703 691 
Q 225 1281 225 2053 
Q 225 2613 494 3125 
Q 813 3734 1369 4063 
Q 1834 4334 2469 4334 
Q 2700 4334 2889 4296 
Q 3078 4259 3425 4131 
Q 3600 4066 3659 4066 
Q 3719 4066 3761 4120 
Q 3803 4175 3813 4334 
L 3928 4334 
z
" transform="scale(0.015625)"/>
        <path id="TimesNewRomanPSMT-50" d="M 1313 1984 
L 1313 750 
Q 1313 350 1400 253 
Q 1519 116 1759 116 
L 1922 116 
L 1922 0 
L 106 0 
L 106 116 
L 266 116 
Q 534 116 650 291 
Q 713 388 713 750 
L 713 3488 
Q 713 3888 628 3984 
Q 506 4122 266 4122 
L 106 4122 
L 106 4238 
L 1659 4238 
Q 2228 4238 2556 4120 
Q 2884 4003 3109 3725 
Q 3334 3447 3334 3066 
Q 3334 2547 2992 2222 
Q 2650 1897 2025 1897 
Q 1872 1897 1694 1919 
Q 1516 1941 1313 1984 
z
M 1313 2163 
Q 1478 2131 1606 2115 
Q 1734 2100 1825 2100 
Q 2150 2100 2386 2351 
Q 2622 2603 2622 3003 
Q 2622 3278 2509 3514 
Q 2397 3750 2190 3867 
Q 1984 3984 1722 3984 
Q 1563 3984 1313 3925 
L 1313 2163 
z
" transform="scale(0.015625)"/>
       </defs>
       <use xlink:href="#TimesNewRomanPSMT-54"/>
       <use xlink:href="#TimesNewRomanPSMT-54" x="61.083984"/>
       <use xlink:href="#TimesNewRomanPSMT-46" x="122.167969"/>
       <use xlink:href="#TimesNewRomanPSMT-4d" x="177.783203"/>
       <use xlink:href="#TimesNewRomanPSMT-47" x="266.699219"/>
       <use xlink:href="#TimesNewRomanPSMT-50" x="338.916016"/>
       <use xlink:href="#TimesNewRomanPSMT-50" x="394.53125"/>
      </g>
     </g>
    </g>
    <g id="text_3">
     <!-- Types -->
     <g style="fill: #1a1a1a" transform="translate(303.613125 695.41875)scale(0.24 -0.24)">
      <defs>
       <path id="TimesNewRomanPSMT-79" d="M 38 2863 
L 1372 2863 
L 1372 2747 
L 1306 2747 
Q 1166 2747 1095 2686 
Q 1025 2625 1025 2534 
Q 1025 2413 1128 2197 
L 1825 753 
L 2466 2334 
Q 2519 2463 2519 2588 
Q 2519 2644 2497 2672 
Q 2472 2706 2419 2726 
Q 2366 2747 2231 2747 
L 2231 2863 
L 3163 2863 
L 3163 2747 
Q 3047 2734 2984 2696 
Q 2922 2659 2847 2556 
Q 2819 2513 2741 2316 
L 1575 -541 
Q 1406 -956 1132 -1168 
Q 859 -1381 606 -1381 
Q 422 -1381 303 -1275 
Q 184 -1169 184 -1031 
Q 184 -900 270 -820 
Q 356 -741 506 -741 
Q 609 -741 788 -809 
Q 913 -856 944 -856 
Q 1038 -856 1148 -759 
Q 1259 -663 1372 -384 
L 1575 113 
L 547 2272 
Q 500 2369 397 2513 
Q 319 2622 269 2659 
Q 197 2709 38 2747 
L 38 2863 
z
" transform="scale(0.015625)"/>
       <path id="TimesNewRomanPSMT-70" d="M -6 2578 
L 875 2934 
L 994 2934 
L 994 2266 
Q 1216 2644 1439 2795 
Q 1663 2947 1909 2947 
Q 2341 2947 2628 2609 
Q 2981 2197 2981 1534 
Q 2981 794 2556 309 
Q 2206 -88 1675 -88 
Q 1444 -88 1275 -22 
Q 1150 25 994 166 
L 994 -706 
Q 994 -1000 1030 -1079 
Q 1066 -1159 1155 -1206 
Q 1244 -1253 1478 -1253 
L 1478 -1369 
L -22 -1369 
L -22 -1253 
L 56 -1253 
Q 228 -1256 350 -1188 
Q 409 -1153 442 -1076 
Q 475 -1000 475 -688 
L 475 2019 
Q 475 2297 450 2372 
Q 425 2447 370 2484 
Q 316 2522 222 2522 
Q 147 2522 31 2478 
L -6 2578 
z
M 994 2081 
L 994 1013 
Q 994 666 1022 556 
Q 1066 375 1236 237 
Q 1406 100 1666 100 
Q 1978 100 2172 344 
Q 2425 663 2425 1241 
Q 2425 1897 2138 2250 
Q 1938 2494 1663 2494 
Q 1513 2494 1366 2419 
Q 1253 2363 994 2081 
z
" transform="scale(0.015625)"/>
       <path id="TimesNewRomanPSMT-73" d="M 2050 2947 
L 2050 1972 
L 1947 1972 
Q 1828 2431 1642 2597 
Q 1456 2763 1169 2763 
Q 950 2763 815 2647 
Q 681 2531 681 2391 
Q 681 2216 781 2091 
Q 878 1963 1175 1819 
L 1631 1597 
Q 2266 1288 2266 781 
Q 2266 391 1970 151 
Q 1675 -88 1309 -88 
Q 1047 -88 709 6 
Q 606 38 541 38 
Q 469 38 428 -44 
L 325 -44 
L 325 978 
L 428 978 
Q 516 541 762 319 
Q 1009 97 1316 97 
Q 1531 97 1667 223 
Q 1803 350 1803 528 
Q 1803 744 1651 891 
Q 1500 1038 1047 1263 
Q 594 1488 453 1669 
Q 313 1847 313 2119 
Q 313 2472 555 2709 
Q 797 2947 1181 2947 
Q 1350 2947 1591 2875 
Q 1750 2828 1803 2828 
Q 1853 2828 1881 2850 
Q 1909 2872 1947 2947 
L 2050 2947 
z
" transform="scale(0.015625)"/>
      </defs>
      <use xlink:href="#TimesNewRomanPSMT-54"/>
      <use xlink:href="#TimesNewRomanPSMT-79" x="54.083984"/>
      <use xlink:href="#TimesNewRomanPSMT-70" x="104.083984"/>
      <use xlink:href="#TimesNewRomanPSMT-65" x="154.083984"/>
      <use xlink:href="#TimesNewRomanPSMT-73" x="198.46875"/>
     </g>
    </g>
   </g>
   <g id="matplotlib.axis_2">
    <g id="ytick_1">
     <g id="line2d_11">
      <defs>
       <path id="m840486452b" d="M 0 0 
L 4 0 
" style="stroke: #1a1a1a; stroke-width: 0.5"/>
      </defs>
      <g>
       <use xlink:href="#m840486452b" x="81" y="648" style="fill: #1a1a1a; stroke: #1a1a1a; stroke-width: 0.5"/>
      </g>
     </g>
     <g id="line2d_12">
      <defs>
       <path id="m5bc20ca13b" d="M 0 0 
L -4 0 
" style="stroke: #1a1a1a; stroke-width: 0.5"/>
      </defs>
      <g>
       <use xlink:href="#m5bc20ca13b" x="583.2" y="648" style="fill: #1a1a1a; stroke: #1a1a1a; stroke-width: 0.5"/>
      </g>
     </g>
     <g id="text_4">
      <!-- −2000 -->
      <g style="fill: #1a1a1a" transform="translate(15.46625 653.765625)scale(0.24 -0.24)">
       <defs>
        <path id="TimesNewRomanPSMT-2212" d="M 3484 2000 
L 116 2000 
L 116 2256 
L 3484 2256 
L 3484 2000 
z
" transform="scale(0.015625)"/>
        <path id="TimesNewRomanPSMT-32" d="M 2934 816 
L 2638 0 
L 138 0 
L 138 116 
Q 1241 1122 1691 1759 
Q 2141 2397 2141 2925 
Q 2141 3328 1894 3587 
Q 1647 3847 1303 3847 
Q 991 3847 742 3664 
Q 494 3481 375 3128 
L 259 3128 
Q 338 3706 661 4015 
Q 984 4325 1469 4325 
Q 1984 4325 2329 3994 
Q 2675 3663 2675 3213 
Q 2675 2891 2525 2569 
Q 2294 2063 1775 1497 
Q 997 647 803 472 
L 1909 472 
Q 2247 472 2383 497 
Q 2519 522 2628 598 
Q 2738 675 2819 816 
L 2934 816 
z
" transform="scale(0.015625)"/>
        <path id="TimesNewRomanPSMT-30" d="M 231 2094 
Q 231 2819 450 3342 
Q 669 3866 1031 4122 
Q 1313 4325 1613 4325 
Q 2100 4325 2488 3828 
Q 2972 3213 2972 2159 
Q 2972 1422 2759 906 
Q 2547 391 2217 158 
Q 1888 -75 1581 -75 
Q 975 -75 572 641 
Q 231 1244 231 2094 
z
M 844 2016 
Q 844 1141 1059 588 
Q 1238 122 1591 122 
Q 1759 122 1940 273 
Q 2122 425 2216 781 
Q 2359 1319 2359 2297 
Q 2359 3022 2209 3506 
Q 2097 3866 1919 4016 
Q 1791 4119 1609 4119 
Q 1397 4119 1231 3928 
Q 1006 3669 925 3112 
Q 844 2556 844 2016 
z
" transform="scale(0.015625)"/>
       </defs>
       <use xlink:href="#TimesNewRomanPSMT-2212"/>
       <use xlink:href="#TimesNewRomanPSMT-32" x="56.396484"/>
       <use xlink:href="#TimesNewRomanPSMT-30" x="106.396484"/>
       <use xlink:href="#TimesNewRomanPSMT-30" x="156.396484"/>
       <use xlink:href="#TimesNewRomanPSMT-30" x="206.396484"/>
      </g>
     </g>
    </g>
    <g id="ytick_2">
     <g id="line2d_13">
      <g>
       <use xlink:href="#m840486452b" x="81" y="576" style="fill: #1a1a1a; stroke: #1a1a1a; stroke-width: 0.5"/>
      </g>
     </g>
     <g id="line2d_14">
      <g>
       <use xlink:href="#m5bc20ca13b" x="583.2" y="576" style="fill: #1a1a1a; stroke: #1a1a1a; stroke-width: 0.5"/>
      </g>
     </g>
     <g id="text_5">
      <!-- 0 -->
      <g style="fill: #1a1a1a" transform="translate(65 581.765625)scale(0.24 -0.24)">
       <use xlink:href="#TimesNewRomanPSMT-30"/>
      </g>
     </g>
    </g>
    <g id="ytick_3">
     <g id="line2d_15">
      <g>
       <use xlink:href="#m840486452b" x="81" y="504" style="fill: #1a1a1a; stroke: #1a1a1a; stroke-width: 0.5"/>
      </g>
     </g>
     <g id="line2d_16">
      <g>
       <use xlink:href="#m5bc20ca13b" x="583.2" y="504" style="fill: #1a1a1a; stroke: #1a1a1a; stroke-width: 0.5"/>
      </g>
     </g>
     <g id="text_6">
      <!-- 2000 -->
      <g style="fill: #1a1a1a" transform="translate(29 509.765625)scale(0.24 -0.24)">
       <use xlink:href="#TimesNewRomanPSMT-32"/>
       <use xlink:href="#TimesNewRomanPSMT-30" x="50"/>
       <use xlink:href="#TimesNewRomanPSMT-30" x="100"/>
       <use xlink:href="#TimesNewRomanPSMT-30" x="150"/>
      </g>
     </g>
    </g>
    <g id="ytick_4">
     <g id="line2d_17">
      <g>
       <use xlink:href="#m840486452b" x="81" y="432" style="fill: #1a1a1a; stroke: #1a1a1a; stroke-width: 0.5"/>
      </g>
     </g>
     <g id="line2d_18">
      <g>
       <use xlink:href="#m5bc20ca13b" x="583.2" y="432" style="fill: #1a1a1a; stroke: #1a1a1a; stroke-width: 0.5"/>
      </g>
     </g>
     <g id="text_7">
      <!-- 4000 -->
      <g style="fill: #1a1a1a" transform="translate(29 437.765625)scale(0.24 -0.24)">
       <defs>
        <path id="TimesNewRomanPSMT-34" d="M 2978 1563 
L 2978 1119 
L 2409 1119 
L 2409 0 
L 1894 0 
L 1894 1119 
L 100 1119 
L 100 1519 
L 2066 4325 
L 2409 4325 
L 2409 1563 
L 2978 1563 
z
M 1894 1563 
L 1894 3666 
L 406 1563 
L 1894 1563 
z
" transform="scale(0.015625)"/>
       </defs>
       <use xlink:href="#TimesNewRomanPSMT-34"/>
       <use xlink:href="#TimesNewRomanPSMT-30" x="50"/>
       <use xlink:href="#TimesNewRomanPSMT-30" x="100"/>
       <use xlink:href="#TimesNewRomanPSMT-30" x="150"/>
      </g>
     </g>
    </g>
    <g id="ytick_5">
     <g id="line2d_19">
      <g>
       <use xlink:href="#m840486452b" x="81" y="360" style="fill: #1a1a1a; stroke: #1a1a1a; stroke-width: 0.5"/>
      </g>
     </g>
     <g id="line2d_20">
      <g>
       <use xlink:href="#m5bc20ca13b" x="583.2" y="360" style="fill: #1a1a1a; stroke: #1a1a1a; stroke-width: 0.5"/>
      </g>
     </g>
     <g id="text_8">
      <!-- 6000 -->
      <g style="fill: #1a1a1a" transform="translate(29 365.765625)scale(0.24 -0.24)">
       <defs>
        <path id="TimesNewRomanPSMT-36" d="M 2869 4325 
L 2869 4209 
Q 2456 4169 2195 4045 
Q 1934 3922 1679 3669 
Q 1425 3416 1258 3105 
Q 1091 2794 978 2366 
Q 1428 2675 1881 2675 
Q 2316 2675 2634 2325 
Q 2953 1975 2953 1425 
Q 2953 894 2631 456 
Q 2244 -75 1606 -75 
Q 1172 -75 869 213 
Q 275 772 275 1663 
Q 275 2231 503 2743 
Q 731 3256 1154 3653 
Q 1578 4050 1965 4187 
Q 2353 4325 2688 4325 
L 2869 4325 
z
M 925 2138 
Q 869 1716 869 1456 
Q 869 1156 980 804 
Q 1091 453 1309 247 
Q 1469 100 1697 100 
Q 1969 100 2183 356 
Q 2397 613 2397 1088 
Q 2397 1622 2184 2012 
Q 1972 2403 1581 2403 
Q 1463 2403 1327 2353 
Q 1191 2303 925 2138 
z
" transform="scale(0.015625)"/>
       </defs>
       <use xlink:href="#TimesNewRomanPSMT-36"/>
       <use xlink:href="#TimesNewRomanPSMT-30" x="50"/>
       <use xlink:href="#TimesNewRomanPSMT-30" x="100"/>
       <use xlink:href="#TimesNewRomanPSMT-30" x="150"/>
      </g>
     </g>
    </g>
    <g id="ytick_6">
     <g id="line2d_21">
      <g>
       <use xlink:href="#m840486452b" x="81" y="288" style="fill: #1a1a1a; stroke: #1a1a1a; stroke-width: 0.5"/>
      </g>
     </g>
     <g id="line2d_22">
      <g>
       <use xlink:href="#m5bc20ca13b" x="583.2" y="288" style="fill: #1a1a1a; stroke: #1a1a1a; stroke-width: 0.5"/>
      </g>
     </g>
     <g id="text_9">
      <!-- 8000 -->
      <g style="fill: #1a1a1a" transform="translate(29 293.765625)scale(0.24 -0.24)">
       <defs>
        <path id="TimesNewRomanPSMT-38" d="M 1228 2134 
Q 725 2547 579 2797 
Q 434 3047 434 3316 
Q 434 3728 753 4026 
Q 1072 4325 1600 4325 
Q 2113 4325 2425 4047 
Q 2738 3769 2738 3413 
Q 2738 3175 2569 2928 
Q 2400 2681 1866 2347 
Q 2416 1922 2594 1678 
Q 2831 1359 2831 1006 
Q 2831 559 2490 242 
Q 2150 -75 1597 -75 
Q 994 -75 656 303 
Q 388 606 388 966 
Q 388 1247 577 1523 
Q 766 1800 1228 2134 
z
M 1719 2469 
Q 2094 2806 2194 3001 
Q 2294 3197 2294 3444 
Q 2294 3772 2109 3958 
Q 1925 4144 1606 4144 
Q 1288 4144 1088 3959 
Q 888 3775 888 3528 
Q 888 3366 970 3203 
Q 1053 3041 1206 2894 
L 1719 2469 
z
M 1375 2016 
Q 1116 1797 991 1539 
Q 866 1281 866 981 
Q 866 578 1086 336 
Q 1306 94 1647 94 
Q 1984 94 2187 284 
Q 2391 475 2391 747 
Q 2391 972 2272 1150 
Q 2050 1481 1375 2016 
z
" transform="scale(0.015625)"/>
       </defs>
       <use xlink:href="#TimesNewRomanPSMT-38"/>
       <use xlink:href="#TimesNewRomanPSMT-30" x="50"/>
       <use xlink:href="#TimesNewRomanPSMT-30" x="100"/>
       <use xlink:href="#TimesNewRomanPSMT-30" x="150"/>
      </g>
     </g>
    </g>
    <g id="ytick_7">
     <g id="line2d_23">
      <g>
       <use xlink:href="#m840486452b" x="81" y="216" style="fill: #1a1a1a; stroke: #1a1a1a; stroke-width: 0.5"/>
      </g>
     </g>
     <g id="line2d_24">
      <g>
       <use xlink:href="#m5bc20ca13b" x="583.2" y="216" style="fill: #1a1a1a; stroke: #1a1a1a; stroke-width: 0.5"/>
      </g>
     </g>
     <g id="text_10">
      <!-- 10000 -->
      <g style="fill: #1a1a1a" transform="translate(17 221.765625)scale(0.24 -0.24)">
       <defs>
        <path id="TimesNewRomanPSMT-31" d="M 750 3822 
L 1781 4325 
L 1884 4325 
L 1884 747 
Q 1884 391 1914 303 
Q 1944 216 2037 169 
Q 2131 122 2419 116 
L 2419 0 
L 825 0 
L 825 116 
Q 1125 122 1212 167 
Q 1300 213 1334 289 
Q 1369 366 1369 747 
L 1369 3034 
Q 1369 3497 1338 3628 
Q 1316 3728 1258 3775 
Q 1200 3822 1119 3822 
Q 1003 3822 797 3725 
L 750 3822 
z
" transform="scale(0.015625)"/>
       </defs>
       <use xlink:href="#TimesNewRomanPSMT-31"/>
       <use xlink:href="#TimesNewRomanPSMT-30" x="50"/>
       <use xlink:href="#TimesNewRomanPSMT-30" x="100"/>
       <use xlink:href="#TimesNewRomanPSMT-30" x="150"/>
       <use xlink:href="#TimesNewRomanPSMT-30" x="200"/>
      </g>
     </g>
    </g>
    <g id="ytick_8">
     <g id="line2d_25">
      <g>
       <use xlink:href="#m840486452b" x="81" y="144" style="fill: #1a1a1a; stroke: #1a1a1a; stroke-width: 0.5"/>
      </g>
     </g>
     <g id="line2d_26">
      <g>
       <use xlink:href="#m5bc20ca13b" x="583.2" y="144" style="fill: #1a1a1a; stroke: #1a1a1a; stroke-width: 0.5"/>
      </g>
     </g>
     <g id="text_11">
      <!-- 12000 -->
      <g style="fill: #1a1a1a" transform="translate(17 149.765625)scale(0.24 -0.24)">
       <use xlink:href="#TimesNewRomanPSMT-31"/>
       <use xlink:href="#TimesNewRomanPSMT-32" x="50"/>
       <use xlink:href="#TimesNewRomanPSMT-30" x="100"/>
       <use xlink:href="#TimesNewRomanPSMT-30" x="150"/>
       <use xlink:href="#TimesNewRomanPSMT-30" x="200"/>
      </g>
     </g>
    </g>
    <g id="ytick_9">
     <g id="line2d_27">
      <g>
       <use xlink:href="#m840486452b" x="81" y="72" style="fill: #1a1a1a; stroke: #1a1a1a; stroke-width: 0.5"/>
      </g>
     </g>
     <g id="line2d_28">
      <g>
       <use xlink:href="#m5bc20ca13b" x="583.2" y="72" style="fill: #1a1a1a; stroke: #1a1a1a; stroke-width: 0.5"/>
      </g>
     </g>
     <g id="text_12">
      <!-- 14000 -->
      <g style="fill: #1a1a1a" transform="translate(17 77.765625)scale(0.24 -0.24)">
       <use xlink:href="#TimesNewRomanPSMT-31"/>
       <use xlink:href="#TimesNewRomanPSMT-34" x="50"/>
       <use xlink:href="#TimesNewRomanPSMT-30" x="100"/>
       <use xlink:href="#TimesNewRomanPSMT-30" x="150"/>
       <use xlink:href="#TimesNewRomanPSMT-30" x="200"/>
      </g>
     </g>
    </g>
    <g id="text_13">
     <!-- Time loss (s) -->
     <g style="fill: #1a1a1a" transform="translate(5.3325 422.240625)rotate(-90)scale(0.24 -0.24)">
      <defs>
       <path id="TimesNewRomanPSMT-69" d="M 928 4444 
Q 1059 4444 1151 4351 
Q 1244 4259 1244 4128 
Q 1244 3997 1151 3903 
Q 1059 3809 928 3809 
Q 797 3809 703 3903 
Q 609 3997 609 4128 
Q 609 4259 701 4351 
Q 794 4444 928 4444 
z
M 1188 2947 
L 1188 647 
Q 1188 378 1227 289 
Q 1266 200 1342 156 
Q 1419 113 1622 113 
L 1622 0 
L 231 0 
L 231 113 
Q 441 113 512 153 
Q 584 194 626 287 
Q 669 381 669 647 
L 669 1750 
Q 669 2216 641 2353 
Q 619 2453 572 2492 
Q 525 2531 444 2531 
Q 356 2531 231 2484 
L 188 2597 
L 1050 2947 
L 1188 2947 
z
" transform="scale(0.015625)"/>
       <path id="TimesNewRomanPSMT-6d" d="M 1050 2338 
Q 1363 2650 1419 2697 
Q 1559 2816 1721 2881 
Q 1884 2947 2044 2947 
Q 2313 2947 2506 2790 
Q 2700 2634 2766 2338 
Q 3088 2713 3309 2830 
Q 3531 2947 3766 2947 
Q 3994 2947 4170 2830 
Q 4347 2713 4450 2447 
Q 4519 2266 4519 1878 
L 4519 647 
Q 4519 378 4559 278 
Q 4591 209 4675 161 
Q 4759 113 4950 113 
L 4950 0 
L 3538 0 
L 3538 113 
L 3597 113 
Q 3781 113 3884 184 
Q 3956 234 3988 344 
Q 4000 397 4000 647 
L 4000 1878 
Q 4000 2228 3916 2372 
Q 3794 2572 3525 2572 
Q 3359 2572 3192 2489 
Q 3025 2406 2788 2181 
L 2781 2147 
L 2788 2013 
L 2788 647 
Q 2788 353 2820 281 
Q 2853 209 2943 161 
Q 3034 113 3253 113 
L 3253 0 
L 1806 0 
L 1806 113 
Q 2044 113 2133 169 
Q 2222 225 2256 338 
Q 2272 391 2272 647 
L 2272 1878 
Q 2272 2228 2169 2381 
Q 2031 2581 1784 2581 
Q 1616 2581 1450 2491 
Q 1191 2353 1050 2181 
L 1050 647 
Q 1050 366 1089 281 
Q 1128 197 1204 155 
Q 1281 113 1516 113 
L 1516 0 
L 100 0 
L 100 113 
Q 297 113 375 155 
Q 453 197 493 289 
Q 534 381 534 647 
L 534 1741 
Q 534 2213 506 2350 
Q 484 2453 437 2492 
Q 391 2531 309 2531 
Q 222 2531 100 2484 
L 53 2597 
L 916 2947 
L 1050 2947 
L 1050 2338 
z
" transform="scale(0.015625)"/>
       <path id="TimesNewRomanPSMT-20" transform="scale(0.015625)"/>
       <path id="TimesNewRomanPSMT-6c" d="M 1184 4444 
L 1184 647 
Q 1184 378 1223 290 
Q 1263 203 1344 158 
Q 1425 113 1647 113 
L 1647 0 
L 244 0 
L 244 113 
Q 441 113 512 153 
Q 584 194 625 287 
Q 666 381 666 647 
L 666 3247 
Q 666 3731 644 3842 
Q 622 3953 573 3993 
Q 525 4034 450 4034 
Q 369 4034 244 3984 
L 191 4094 
L 1044 4444 
L 1184 4444 
z
" transform="scale(0.015625)"/>
       <path id="TimesNewRomanPSMT-28" d="M 1988 -1253 
L 1988 -1369 
Q 1516 -1131 1200 -813 
Q 750 -359 506 256 
Q 263 872 263 1534 
Q 263 2503 741 3301 
Q 1219 4100 1988 4444 
L 1988 4313 
Q 1603 4100 1356 3731 
Q 1109 3363 987 2797 
Q 866 2231 866 1616 
Q 866 947 969 400 
Q 1050 -31 1165 -292 
Q 1281 -553 1476 -793 
Q 1672 -1034 1988 -1253 
z
" transform="scale(0.015625)"/>
       <path id="TimesNewRomanPSMT-29" d="M 144 4313 
L 144 4444 
Q 619 4209 934 3891 
Q 1381 3434 1625 2820 
Q 1869 2206 1869 1541 
Q 1869 572 1392 -226 
Q 916 -1025 144 -1369 
L 144 -1253 
Q 528 -1038 776 -670 
Q 1025 -303 1145 264 
Q 1266 831 1266 1447 
Q 1266 2113 1163 2663 
Q 1084 3094 967 3353 
Q 850 3613 656 3853 
Q 463 4094 144 4313 
z
" transform="scale(0.015625)"/>
      </defs>
      <use xlink:href="#TimesNewRomanPSMT-54"/>
      <use xlink:href="#TimesNewRomanPSMT-69" x="57.583984"/>
      <use xlink:href="#TimesNewRomanPSMT-6d" x="85.367188"/>
      <use xlink:href="#TimesNewRomanPSMT-65" x="163.150391"/>
      <use xlink:href="#TimesNewRomanPSMT-20" x="207.535156"/>
      <use xlink:href="#TimesNewRomanPSMT-6c" x="232.535156"/>
      <use xlink:href="#TimesNewRomanPSMT-6f" x="260.318359"/>
      <use xlink:href="#TimesNewRomanPSMT-73" x="310.318359"/>
      <use xlink:href="#TimesNewRomanPSMT-73" x="349.234375"/>
      <use xlink:href="#TimesNewRomanPSMT-20" x="388.150391"/>
      <use xlink:href="#TimesNewRomanPSMT-28" x="413.150391"/>
      <use xlink:href="#TimesNewRomanPSMT-73" x="446.451172"/>
      <use xlink:href="#TimesNewRomanPSMT-29" x="485.367188"/>
     </g>
    </g>
   </g>
  </g>
 </g>
 <defs>
  <clipPath id="p8218467c84">
   <rect x="81" y="72" width="502.2" height="576"/>
  </clipPath>
 </defs>
</svg>
