<?xml version="1.0" encoding="utf-8" standalone="no"?>
<!DOCTYPE svg PUBLIC "-//W3C//DTD SVG 1.1//EN"
  "http://www.w3.org/Graphics/SVG/1.1/DTD/svg11.dtd">
<svg xmlns:xlink="http://www.w3.org/1999/xlink" width="648pt" height="720pt" viewBox="0 0 648 720" xmlns="http://www.w3.org/2000/svg" version="1.1">
 <metadata>
  <rdf:RDF xmlns:dc="http://purl.org/dc/elements/1.1/" xmlns:cc="http://creativecommons.org/ns#" xmlns:rdf="http://www.w3.org/1999/02/22-rdf-syntax-ns#">
   <cc:Work>
    <dc:type rdf:resource="http://purl.org/dc/dcmitype/StillImage"/>
    <dc:date>2022-08-23T11:18:35.619018</dc:date>
    <dc:format>image/svg+xml</dc:format>
    <dc:creator>
     <cc:Agent>
      <dc:title>Matplotlib v3.5.1, https://matplotlib.org/</dc:title>
     </cc:Agent>
    </dc:creator>
   </cc:Work>
  </rdf:RDF>
 </metadata>
 <defs>
  <style type="text/css">*{stroke-linejoin: round; stroke-linecap: butt}</style>
 </defs>
 <g id="figure_1">
  <g id="patch_1">
   <path d="M 0 720 
L 648 720 
L 648 0 
L 0 0 
z
" style="fill: #ffffff"/>
  </g>
  <g id="axes_1">
   <g id="patch_2">
    <path d="M 81 648 
L 583.2 648 
L 583.2 72 
L 81 72 
z
" style="fill: #ffffff"/>
   </g>
   <g id="PolyCollection_1">
    <defs>
     <path id="meda5d3a304" d="M 208.010665 -112.023538 
L 205.089335 -112.023538 
L 202.744683 -117.224517 
L 198.1282 -122.425496 
L 190.629331 -127.626475 
L 180.657137 -132.827454 
L 169.972741 -138.028433 
L 161.097182 -143.229412 
L 156.040488 -148.430391 
L 155.328602 -153.631371 
L 158.052993 -158.83235 
L 162.700441 -164.033329 
L 167.965821 -169.234308 
L 173.066125 -174.435287 
L 177.654872 -179.636266 
L 181.641393 -184.837245 
L 185.067142 -190.038224 
L 188.025836 -195.239203 
L 190.595173 -200.440182 
L 192.796002 -205.641161 
L 194.60418 -210.84214 
L 196.001008 -216.043119 
L 197.01628 -221.244098 
L 197.730964 -226.445077 
L 198.245194 -231.646056 
L 198.640856 -236.847035 
L 198.962531 -242.048014 
L 199.221515 -247.248993 
L 199.413741 -252.449972 
L 199.539603 -257.650951 
L 199.617189 -262.85193 
L 199.683824 -268.052909 
L 199.785065 -273.253888 
L 199.958003 -278.454867 
L 200.219931 -283.655846 
L 200.567109 -288.856825 
L 200.980243 -294.057804 
L 201.432606 -299.258783 
L 201.898057 -304.459762 
L 202.35483 -309.660741 
L 202.783555 -314.86172 
L 203.164942 -320.062699 
L 203.483129 -325.263678 
L 203.732505 -330.464657 
L 203.920674 -335.665636 
L 204.064155 -340.866615 
L 204.179609 -346.067594 
L 204.275573 -351.268573 
L 204.348675 -356.469552 
L 204.385983 -361.670531 
L 204.372327 -366.87151 
L 204.299488 -372.07249 
L 204.173613 -377.273469 
L 204.016962 -382.474448 
L 203.860722 -387.675427 
L 203.730652 -392.876406 
L 203.635203 -398.077385 
L 203.565808 -403.278364 
L 203.50698 -408.479343 
L 203.444311 -413.680322 
L 203.365382 -418.881301 
L 203.260967 -424.08228 
L 203.132242 -429.283259 
L 202.996888 -434.484238 
L 202.88338 -439.685217 
L 202.814932 -444.886196 
L 202.796945 -450.087175 
L 202.818671 -455.288154 
L 202.866031 -460.489133 
L 202.934752 -465.690112 
L 203.035964 -470.891091 
L 203.191401 -476.09207 
L 203.419482 -481.293049 
L 203.720152 -486.494028 
L 204.07036 -491.695007 
L 204.434438 -496.895986 
L 204.779958 -502.096965 
L 205.08654 -507.297944 
L 205.345407 -512.498923 
L 205.55641 -517.699902 
L 205.726672 -522.900881 
L 205.868497 -528.10186 
L 205.994233 -533.302839 
L 206.110746 -538.503818 
L 206.217818 -543.704797 
L 206.311128 -548.905776 
L 206.386639 -554.106755 
L 206.443205 -559.307734 
L 206.482709 -564.508713 
L 206.508774 -569.709692 
L 206.52527 -574.910671 
L 206.535321 -580.11165 
L 206.541028 -585.312629 
L 206.543799 -590.513609 
L 206.54481 -595.714588 
L 206.545163 -600.915567 
L 206.545668 -606.116546 
L 206.546594 -611.317525 
L 206.547735 -616.518504 
L 206.548743 -621.719483 
L 206.54942 -626.920462 
L 206.55058 -626.920462 
L 206.55058 -626.920462 
L 206.551257 -621.719483 
L 206.552265 -616.518504 
L 206.553406 -611.317525 
L 206.554332 -606.116546 
L 206.554837 -600.915567 
L 206.55519 -595.714588 
L 206.556201 -590.513609 
L 206.558972 -585.312629 
L 206.564679 -580.11165 
L 206.57473 -574.910671 
L 206.591226 -569.709692 
L 206.617291 -564.508713 
L 206.656795 -559.307734 
L 206.713361 -554.106755 
L 206.788872 -548.905776 
L 206.882182 -543.704797 
L 206.989254 -538.503818 
L 207.105767 -533.302839 
L 207.231503 -528.10186 
L 207.373328 -522.900881 
L 207.54359 -517.699902 
L 207.754593 -512.498923 
L 208.01346 -507.297944 
L 208.320042 -502.096965 
L 208.665562 -496.895986 
L 209.02964 -491.695007 
L 209.379848 -486.494028 
L 209.680518 -481.293049 
L 209.908599 -476.09207 
L 210.064036 -470.891091 
L 210.165248 -465.690112 
L 210.233969 -460.489133 
L 210.281329 -455.288154 
L 210.303055 -450.087175 
L 210.285068 -444.886196 
L 210.21662 -439.685217 
L 210.103112 -434.484238 
L 209.967758 -429.283259 
L 209.839033 -424.08228 
L 209.734618 -418.881301 
L 209.655689 -413.680322 
L 209.59302 -408.479343 
L 209.534192 -403.278364 
L 209.464797 -398.077385 
L 209.369348 -392.876406 
L 209.239278 -387.675427 
L 209.083038 -382.474448 
L 208.926387 -377.273469 
L 208.800512 -372.07249 
L 208.727673 -366.87151 
L 208.714017 -361.670531 
L 208.751325 -356.469552 
L 208.824427 -351.268573 
L 208.920391 -346.067594 
L 209.035845 -340.866615 
L 209.179326 -335.665636 
L 209.367495 -330.464657 
L 209.616871 -325.263678 
L 209.935058 -320.062699 
L 210.316445 -314.86172 
L 210.74517 -309.660741 
L 211.201943 -304.459762 
L 211.667394 -299.258783 
L 212.119757 -294.057804 
L 212.532891 -288.856825 
L 212.880069 -283.655846 
L 213.141997 -278.454867 
L 213.314935 -273.253888 
L 213.416176 -268.052909 
L 213.482811 -262.85193 
L 213.560397 -257.650951 
L 213.686259 -252.449972 
L 213.878485 -247.248993 
L 214.137469 -242.048014 
L 214.459144 -236.847035 
L 214.854806 -231.646056 
L 215.369036 -226.445077 
L 216.08372 -221.244098 
L 217.098992 -216.043119 
L 218.49582 -210.84214 
L 220.303998 -205.641161 
L 222.504827 -200.440182 
L 225.074164 -195.239203 
L 228.032858 -190.038224 
L 231.458607 -184.837245 
L 235.445128 -179.636266 
L 240.033875 -174.435287 
L 245.134179 -169.234308 
L 250.399559 -164.033329 
L 255.047007 -158.83235 
L 257.771398 -153.631371 
L 257.059512 -148.430391 
L 252.002818 -143.229412 
L 243.127259 -138.028433 
L 232.442863 -132.827454 
L 222.470669 -127.626475 
L 214.9718 -122.425496 
L 210.355317 -117.224517 
L 208.010665 -112.023538 
z
" style="stroke: #737373"/>
    </defs>
    <g clip-path="url(#pb7275ae4ae)">
     <use xlink:href="#meda5d3a304" x="0" y="720" style="fill: #abc9ea; stroke: #737373"/>
    </g>
   </g>
   <g id="PolyCollection_2">
    <defs>
     <path id="ma7f1127b9d" d="M 460.684975 -127.503491 
L 454.615025 -127.503491 
L 446.61167 -130.16435 
L 428.914799 -132.825209 
L 402.659308 -135.486068 
L 377.00081 -138.146926 
L 361.40853 -140.807785 
L 357.21 -143.468644 
L 359.899169 -146.129503 
L 365.429577 -148.790361 
L 371.810139 -151.45122 
L 378.217062 -154.112079 
L 384.623918 -156.772938 
L 391.341218 -159.433796 
L 398.323977 -162.094655 
L 405.063356 -164.755514 
L 411.048714 -167.416373 
L 416.162009 -170.077231 
L 420.629654 -172.73809 
L 424.649118 -175.398949 
L 428.171051 -178.059808 
L 431.050201 -180.720666 
L 433.275963 -183.381525 
L 435.011217 -186.042384 
L 436.479446 -188.703243 
L 437.875997 -191.364102 
L 439.364894 -194.02496 
L 441.031147 -196.685819 
L 442.768477 -199.346678 
L 444.335451 -202.007537 
L 445.5956 -204.668395 
L 446.618635 -207.329254 
L 447.519704 -209.990113 
L 448.300442 -212.650972 
L 448.916802 -215.31183 
L 449.405638 -217.972689 
L 449.825693 -220.633548 
L 450.159399 -223.294407 
L 450.401543 -225.955265 
L 450.658526 -228.616124 
L 451.028924 -231.276983 
L 451.472529 -233.937842 
L 451.902065 -236.598701 
L 452.289663 -239.259559 
L 452.61369 -241.920418 
L 452.83783 -244.581277 
L 452.984436 -247.242136 
L 453.106833 -249.902994 
L 453.200821 -252.563853 
L 453.242373 -255.224712 
L 453.266632 -257.885571 
L 453.357192 -260.546429 
L 453.582104 -263.207288 
L 453.928854 -265.868147 
L 454.311614 -268.529006 
L 454.663135 -271.189864 
L 454.974456 -273.850723 
L 455.251435 -276.511582 
L 455.491944 -279.172441 
L 455.693962 -281.833299 
L 455.855696 -284.494158 
L 455.975614 -287.155017 
L 456.058494 -289.815876 
L 456.120528 -292.476735 
L 456.182138 -295.137593 
L 456.252861 -297.798452 
L 456.33342 -300.459311 
L 456.428965 -303.12017 
L 456.542952 -305.781028 
L 456.660257 -308.441887 
L 456.760597 -311.102746 
L 456.848495 -313.763605 
L 456.942801 -316.424463 
L 457.041641 -319.085322 
L 457.125847 -321.746181 
L 457.187535 -324.40704 
L 457.236423 -327.067898 
L 457.283314 -329.728757 
L 457.327624 -332.389616 
L 457.364981 -335.050475 
L 457.394549 -337.711334 
L 457.414859 -340.372192 
L 457.425452 -343.033051 
L 457.431428 -345.69391 
L 457.437794 -348.354769 
L 457.44423 -351.015627 
L 457.453391 -353.676486 
L 457.475499 -356.337345 
L 457.513411 -358.998204 
L 457.553406 -361.659062 
L 457.581758 -364.319921 
L 457.599182 -366.98078 
L 457.610895 -369.641639 
L 457.61608 -372.302497 
L 457.61332 -374.963356 
L 457.606392 -377.624215 
L 457.602968 -380.285074 
L 457.609401 -382.945932 
L 457.62391 -385.606791 
L 457.638016 -388.26765 
L 457.646151 -390.928509 
L 457.653849 -390.928509 
L 457.653849 -390.928509 
L 457.661984 -388.26765 
L 457.67609 -385.606791 
L 457.690599 -382.945932 
L 457.697032 -380.285074 
L 457.693608 -377.624215 
L 457.68668 -374.963356 
L 457.68392 -372.302497 
L 457.689105 -369.641639 
L 457.700818 -366.98078 
L 457.718242 -364.319921 
L 457.746594 -361.659062 
L 457.786589 -358.998204 
L 457.824501 -356.337345 
L 457.846609 -353.676486 
L 457.85577 -351.015627 
L 457.862206 -348.354769 
L 457.868572 -345.69391 
L 457.874548 -343.033051 
L 457.885141 -340.372192 
L 457.905451 -337.711334 
L 457.935019 -335.050475 
L 457.972376 -332.389616 
L 458.016686 -329.728757 
L 458.063577 -327.067898 
L 458.112465 -324.40704 
L 458.174153 -321.746181 
L 458.258359 -319.085322 
L 458.357199 -316.424463 
L 458.451505 -313.763605 
L 458.539403 -311.102746 
L 458.639743 -308.441887 
L 458.757048 -305.781028 
L 458.871035 -303.12017 
L 458.96658 -300.459311 
L 459.047139 -297.798452 
L 459.117862 -295.137593 
L 459.179472 -292.476735 
L 459.241506 -289.815876 
L 459.324386 -287.155017 
L 459.444304 -284.494158 
L 459.606038 -281.833299 
L 459.808056 -279.172441 
L 460.048565 -276.511582 
L 460.325544 -273.850723 
L 460.636865 -271.189864 
L 460.988386 -268.529006 
L 461.371146 -265.868147 
L 461.717896 -263.207288 
L 461.942808 -260.546429 
L 462.033368 -257.885571 
L 462.057627 -255.224712 
L 462.099179 -252.563853 
L 462.193167 -249.902994 
L 462.315564 -247.242136 
L 462.46217 -244.581277 
L 462.68631 -241.920418 
L 463.010337 -239.259559 
L 463.397935 -236.598701 
L 463.827471 -233.937842 
L 464.271076 -231.276983 
L 464.641474 -228.616124 
L 464.898457 -225.955265 
L 465.140601 -223.294407 
L 465.474307 -220.633548 
L 465.894362 -217.972689 
L 466.383198 -215.31183 
L 466.999558 -212.650972 
L 467.780296 -209.990113 
L 468.681365 -207.329254 
L 469.7044 -204.668395 
L 470.964549 -202.007537 
L 472.531523 -199.346678 
L 474.268853 -196.685819 
L 475.935106 -194.02496 
L 477.424003 -191.364102 
L 478.820554 -188.703243 
L 480.288783 -186.042384 
L 482.024037 -183.381525 
L 484.249799 -180.720666 
L 487.128949 -178.059808 
L 490.650882 -175.398949 
L 494.670346 -172.73809 
L 499.137991 -170.077231 
L 504.251286 -167.416373 
L 510.236644 -164.755514 
L 516.976023 -162.094655 
L 523.958782 -159.433796 
L 530.676082 -156.772938 
L 537.082938 -154.112079 
L 543.489861 -151.45122 
L 549.870423 -148.790361 
L 555.400831 -146.129503 
L 558.09 -143.468644 
L 553.89147 -140.807785 
L 538.29919 -138.146926 
L 512.640692 -135.486068 
L 486.385201 -132.825209 
L 468.68833 -130.16435 
L 460.684975 -127.503491 
z
" style="stroke: #737373"/>
    </defs>
    <g clip-path="url(#pb7275ae4ae)">
     <use xlink:href="#ma7f1127b9d" x="0" y="720" style="fill: #efb792; stroke: #737373"/>
    </g>
   </g>
   <g id="line2d_1">
    <path d="M 156.545583 569.056 
L 256.554417 569.056 
" clip-path="url(#pb7275ae4ae)" style="fill: none; stroke-dasharray: 1.5,1.5; stroke-dashoffset: 0; stroke: #737373"/>
   </g>
   <g id="line2d_2">
    <path d="M 173.400964 546.656 
L 239.699036 546.656 
" clip-path="url(#pb7275ae4ae)" style="fill: none; stroke-dasharray: 3,3; stroke-dashoffset: 0; stroke: #737373"/>
   </g>
   <g id="line2d_3">
    <path d="M 199.038406 476.416 
L 214.061594 476.416 
" clip-path="url(#pb7275ae4ae)" style="fill: none; stroke-dasharray: 1.5,1.5; stroke-dashoffset: 0; stroke: #737373"/>
   </g>
   <g id="line2d_4">
    <path d="M 360.876678 574.992 
L 554.423322 574.992 
" clip-path="url(#pb7275ae4ae)" style="fill: none; stroke-dasharray: 1.5,1.5; stroke-dashoffset: 0; stroke: #737373"/>
   </g>
   <g id="line2d_5">
    <path d="M 385.354179 563.36 
L 529.945821 563.36 
" clip-path="url(#pb7275ae4ae)" style="fill: none; stroke-dasharray: 3,3; stroke-dashoffset: 0; stroke: #737373"/>
   </g>
   <g id="line2d_6">
    <path d="M 428.465841 542.24 
L 486.834159 542.24 
" clip-path="url(#pb7275ae4ae)" style="fill: none; stroke-dasharray: 1.5,1.5; stroke-dashoffset: 0; stroke: #737373"/>
   </g>
   <g id="patch_3">
    <path d="M 81 648 
L 81 72 
" style="fill: none; stroke: #1a1a1a; stroke-linejoin: miter; stroke-linecap: square"/>
   </g>
   <g id="patch_4">
    <path d="M 583.2 648 
L 583.2 72 
" style="fill: none; stroke: #1a1a1a; stroke-linejoin: miter; stroke-linecap: square"/>
   </g>
   <g id="patch_5">
    <path d="M 81 648 
L 583.2 648 
" style="fill: none; stroke: #1a1a1a; stroke-linejoin: miter; stroke-linecap: square"/>
   </g>
   <g id="patch_6">
    <path d="M 81 72 
L 583.2 72 
" style="fill: none; stroke: #1a1a1a; stroke-linejoin: miter; stroke-linecap: square"/>
   </g>
   <g id="matplotlib.axis_1">
    <g id="xtick_1">
     <g id="line2d_7">
      <defs>
       <path id="m745cacaf59" d="M 0 0 
L 0 -4 
" style="stroke: #1a1a1a; stroke-width: 0.5"/>
      </defs>
      <g>
       <use xlink:href="#m745cacaf59" x="206.55" y="648" style="fill: #1a1a1a; stroke: #1a1a1a; stroke-width: 0.5"/>
      </g>
     </g>
     <g id="line2d_8">
      <defs>
       <path id="mdf21c02053" d="M 0 0 
L 0 4 
" style="stroke: #1a1a1a; stroke-width: 0.5"/>
      </defs>
      <g>
       <use xlink:href="#mdf21c02053" x="206.55" y="72" style="fill: #1a1a1a; stroke: #1a1a1a; stroke-width: 0.5"/>
      </g>
     </g>
     <g id="text_1">
      <!-- duarouter -->
      <g style="fill: #1a1a1a" transform="translate(160.57125 668.665)scale(0.24 -0.24)">
       <defs>
        <path id="TimesNewRomanPSMT-64" d="M 2222 322 
Q 2013 103 1813 7 
Q 1613 -88 1381 -88 
Q 913 -88 563 304 
Q 213 697 213 1313 
Q 213 1928 600 2439 
Q 988 2950 1597 2950 
Q 1975 2950 2222 2709 
L 2222 3238 
Q 2222 3728 2198 3840 
Q 2175 3953 2125 3993 
Q 2075 4034 2000 4034 
Q 1919 4034 1784 3984 
L 1744 4094 
L 2597 4444 
L 2738 4444 
L 2738 1134 
Q 2738 631 2761 520 
Q 2784 409 2836 365 
Q 2888 322 2956 322 
Q 3041 322 3181 375 
L 3216 266 
L 2366 -88 
L 2222 -88 
L 2222 322 
z
M 2222 541 
L 2222 2016 
Q 2203 2228 2109 2403 
Q 2016 2578 1861 2667 
Q 1706 2756 1559 2756 
Q 1284 2756 1069 2509 
Q 784 2184 784 1559 
Q 784 928 1059 592 
Q 1334 256 1672 256 
Q 1956 256 2222 541 
z
" transform="scale(0.015625)"/>
        <path id="TimesNewRomanPSMT-75" d="M 2709 2863 
L 2709 1128 
Q 2709 631 2732 520 
Q 2756 409 2807 365 
Q 2859 322 2928 322 
Q 3025 322 3147 375 
L 3191 266 
L 2334 -88 
L 2194 -88 
L 2194 519 
Q 1825 119 1631 15 
Q 1438 -88 1222 -88 
Q 981 -88 804 51 
Q 628 191 559 409 
Q 491 628 491 1028 
L 491 2306 
Q 491 2509 447 2587 
Q 403 2666 317 2708 
Q 231 2750 6 2747 
L 6 2863 
L 1009 2863 
L 1009 947 
Q 1009 547 1148 422 
Q 1288 297 1484 297 
Q 1619 297 1789 381 
Q 1959 466 2194 703 
L 2194 2325 
Q 2194 2569 2105 2655 
Q 2016 2741 1734 2747 
L 1734 2863 
L 2709 2863 
z
" transform="scale(0.015625)"/>
        <path id="TimesNewRomanPSMT-61" d="M 1822 413 
Q 1381 72 1269 19 
Q 1100 -59 909 -59 
Q 613 -59 420 144 
Q 228 347 228 678 
Q 228 888 322 1041 
Q 450 1253 767 1440 
Q 1084 1628 1822 1897 
L 1822 2009 
Q 1822 2438 1686 2597 
Q 1550 2756 1291 2756 
Q 1094 2756 978 2650 
Q 859 2544 859 2406 
L 866 2225 
Q 866 2081 792 2003 
Q 719 1925 600 1925 
Q 484 1925 411 2006 
Q 338 2088 338 2228 
Q 338 2497 613 2722 
Q 888 2947 1384 2947 
Q 1766 2947 2009 2819 
Q 2194 2722 2281 2516 
Q 2338 2381 2338 1966 
L 2338 994 
Q 2338 584 2353 492 
Q 2369 400 2405 369 
Q 2441 338 2488 338 
Q 2538 338 2575 359 
Q 2641 400 2828 588 
L 2828 413 
Q 2478 -56 2159 -56 
Q 2006 -56 1915 50 
Q 1825 156 1822 413 
z
M 1822 616 
L 1822 1706 
Q 1350 1519 1213 1441 
Q 966 1303 859 1153 
Q 753 1003 753 825 
Q 753 600 887 451 
Q 1022 303 1197 303 
Q 1434 303 1822 616 
z
" transform="scale(0.015625)"/>
        <path id="TimesNewRomanPSMT-72" d="M 1038 2947 
L 1038 2303 
Q 1397 2947 1775 2947 
Q 1947 2947 2059 2842 
Q 2172 2738 2172 2600 
Q 2172 2478 2090 2393 
Q 2009 2309 1897 2309 
Q 1788 2309 1652 2417 
Q 1516 2525 1450 2525 
Q 1394 2525 1328 2463 
Q 1188 2334 1038 2041 
L 1038 669 
Q 1038 431 1097 309 
Q 1138 225 1241 169 
Q 1344 113 1538 113 
L 1538 0 
L 72 0 
L 72 113 
Q 291 113 397 181 
Q 475 231 506 341 
Q 522 394 522 644 
L 522 1753 
Q 522 2253 501 2348 
Q 481 2444 426 2487 
Q 372 2531 291 2531 
Q 194 2531 72 2484 
L 41 2597 
L 906 2947 
L 1038 2947 
z
" transform="scale(0.015625)"/>
        <path id="TimesNewRomanPSMT-6f" d="M 1600 2947 
Q 2250 2947 2644 2453 
Q 2978 2031 2978 1484 
Q 2978 1100 2793 706 
Q 2609 313 2286 112 
Q 1963 -88 1566 -88 
Q 919 -88 538 428 
Q 216 863 216 1403 
Q 216 1797 411 2186 
Q 606 2575 925 2761 
Q 1244 2947 1600 2947 
z
M 1503 2744 
Q 1338 2744 1170 2645 
Q 1003 2547 900 2300 
Q 797 2053 797 1666 
Q 797 1041 1045 587 
Q 1294 134 1700 134 
Q 2003 134 2200 384 
Q 2397 634 2397 1244 
Q 2397 2006 2069 2444 
Q 1847 2744 1503 2744 
z
" transform="scale(0.015625)"/>
        <path id="TimesNewRomanPSMT-74" d="M 1031 3803 
L 1031 2863 
L 1700 2863 
L 1700 2644 
L 1031 2644 
L 1031 788 
Q 1031 509 1111 412 
Q 1191 316 1316 316 
Q 1419 316 1516 380 
Q 1613 444 1666 569 
L 1788 569 
Q 1678 263 1478 108 
Q 1278 -47 1066 -47 
Q 922 -47 784 33 
Q 647 113 581 261 
Q 516 409 516 719 
L 516 2644 
L 63 2644 
L 63 2747 
Q 234 2816 414 2980 
Q 594 3144 734 3369 
Q 806 3488 934 3803 
L 1031 3803 
z
" transform="scale(0.015625)"/>
        <path id="TimesNewRomanPSMT-65" d="M 681 1784 
Q 678 1147 991 784 
Q 1303 422 1725 422 
Q 2006 422 2214 576 
Q 2422 731 2563 1106 
L 2659 1044 
Q 2594 616 2278 264 
Q 1963 -88 1488 -88 
Q 972 -88 605 314 
Q 238 716 238 1394 
Q 238 2128 614 2539 
Q 991 2950 1559 2950 
Q 2041 2950 2350 2633 
Q 2659 2316 2659 1784 
L 681 1784 
z
M 681 1966 
L 2006 1966 
Q 1991 2241 1941 2353 
Q 1863 2528 1708 2628 
Q 1553 2728 1384 2728 
Q 1125 2728 920 2526 
Q 716 2325 681 1966 
z
" transform="scale(0.015625)"/>
       </defs>
       <use xlink:href="#TimesNewRomanPSMT-64"/>
       <use xlink:href="#TimesNewRomanPSMT-75" x="50"/>
       <use xlink:href="#TimesNewRomanPSMT-61" x="100"/>
       <use xlink:href="#TimesNewRomanPSMT-72" x="144.384766"/>
       <use xlink:href="#TimesNewRomanPSMT-6f" x="177.685547"/>
       <use xlink:href="#TimesNewRomanPSMT-75" x="227.685547"/>
       <use xlink:href="#TimesNewRomanPSMT-74" x="277.685547"/>
       <use xlink:href="#TimesNewRomanPSMT-65" x="305.46875"/>
       <use xlink:href="#TimesNewRomanPSMT-72" x="349.853516"/>
      </g>
     </g>
    </g>
    <g id="xtick_2">
     <g id="line2d_9">
      <g>
       <use xlink:href="#m745cacaf59" x="457.65" y="648" style="fill: #1a1a1a; stroke: #1a1a1a; stroke-width: 0.5"/>
      </g>
     </g>
     <g id="line2d_10">
      <g>
       <use xlink:href="#mdf21c02053" x="457.65" y="72" style="fill: #1a1a1a; stroke: #1a1a1a; stroke-width: 0.5"/>
      </g>
     </g>
     <g id="text_2">
      <!-- TTFMGPP -->
      <g style="fill: #1a1a1a" transform="translate(403.635 668.665)scale(0.24 -0.24)">
       <defs>
        <path id="TimesNewRomanPSMT-54" d="M 3703 4238 
L 3750 3244 
L 3631 3244 
Q 3597 3506 3538 3619 
Q 3441 3800 3280 3886 
Q 3119 3972 2856 3972 
L 2259 3972 
L 2259 734 
Q 2259 344 2344 247 
Q 2463 116 2709 116 
L 2856 116 
L 2856 0 
L 1059 0 
L 1059 116 
L 1209 116 
Q 1478 116 1591 278 
Q 1659 378 1659 734 
L 1659 3972 
L 1150 3972 
Q 853 3972 728 3928 
Q 566 3869 450 3700 
Q 334 3531 313 3244 
L 194 3244 
L 244 4238 
L 3703 4238 
z
" transform="scale(0.015625)"/>
        <path id="TimesNewRomanPSMT-46" d="M 1309 4006 
L 1309 2341 
L 2081 2341 
Q 2347 2341 2470 2458 
Q 2594 2575 2634 2922 
L 2750 2922 
L 2750 1488 
L 2634 1488 
Q 2631 1734 2570 1850 
Q 2509 1966 2401 2023 
Q 2294 2081 2081 2081 
L 1309 2081 
L 1309 750 
Q 1309 428 1350 325 
Q 1381 247 1481 191 
Q 1619 116 1769 116 
L 1922 116 
L 1922 0 
L 103 0 
L 103 116 
L 253 116 
Q 516 116 634 269 
Q 709 369 709 750 
L 709 3488 
Q 709 3809 669 3913 
Q 638 3991 541 4047 
Q 406 4122 253 4122 
L 103 4122 
L 103 4238 
L 3256 4238 
L 3297 3306 
L 3188 3306 
Q 3106 3603 2998 3742 
Q 2891 3881 2733 3943 
Q 2575 4006 2244 4006 
L 1309 4006 
z
" transform="scale(0.015625)"/>
        <path id="TimesNewRomanPSMT-4d" d="M 2619 0 
L 981 3566 
L 981 734 
Q 981 344 1066 247 
Q 1181 116 1431 116 
L 1581 116 
L 1581 0 
L 106 0 
L 106 116 
L 256 116 
Q 525 116 638 278 
Q 706 378 706 734 
L 706 3503 
Q 706 3784 644 3909 
Q 600 4000 483 4061 
Q 366 4122 106 4122 
L 106 4238 
L 1306 4238 
L 2844 922 
L 4356 4238 
L 5556 4238 
L 5556 4122 
L 5409 4122 
Q 5138 4122 5025 3959 
Q 4956 3859 4956 3503 
L 4956 734 
Q 4956 344 5044 247 
Q 5159 116 5409 116 
L 5556 116 
L 5556 0 
L 3756 0 
L 3756 116 
L 3906 116 
Q 4178 116 4288 278 
Q 4356 378 4356 734 
L 4356 3566 
L 2722 0 
L 2619 0 
z
" transform="scale(0.015625)"/>
        <path id="TimesNewRomanPSMT-47" d="M 3928 4334 
L 4038 2997 
L 3928 2997 
Q 3763 3497 3500 3750 
Q 3122 4116 2528 4116 
Q 1719 4116 1297 3475 
Q 944 2934 944 2188 
Q 944 1581 1178 1081 
Q 1413 581 1792 348 
Q 2172 116 2572 116 
Q 2806 116 3025 175 
Q 3244 234 3447 350 
L 3447 1575 
Q 3447 1894 3398 1992 
Q 3350 2091 3248 2142 
Q 3147 2194 2891 2194 
L 2891 2313 
L 4531 2313 
L 4531 2194 
L 4453 2194 
Q 4209 2194 4119 2031 
Q 4056 1916 4056 1575 
L 4056 278 
Q 3697 84 3347 -6 
Q 2997 -97 2569 -97 
Q 1341 -97 703 691 
Q 225 1281 225 2053 
Q 225 2613 494 3125 
Q 813 3734 1369 4063 
Q 1834 4334 2469 4334 
Q 2700 4334 2889 4296 
Q 3078 4259 3425 4131 
Q 3600 4066 3659 4066 
Q 3719 4066 3761 4120 
Q 3803 4175 3813 4334 
L 3928 4334 
z
" transform="scale(0.015625)"/>
        <path id="TimesNewRomanPSMT-50" d="M 1313 1984 
L 1313 750 
Q 1313 350 1400 253 
Q 1519 116 1759 116 
L 1922 116 
L 1922 0 
L 106 0 
L 106 116 
L 266 116 
Q 534 116 650 291 
Q 713 388 713 750 
L 713 3488 
Q 713 3888 628 3984 
Q 506 4122 266 4122 
L 106 4122 
L 106 4238 
L 1659 4238 
Q 2228 4238 2556 4120 
Q 2884 4003 3109 3725 
Q 3334 3447 3334 3066 
Q 3334 2547 2992 2222 
Q 2650 1897 2025 1897 
Q 1872 1897 1694 1919 
Q 1516 1941 1313 1984 
z
M 1313 2163 
Q 1478 2131 1606 2115 
Q 1734 2100 1825 2100 
Q 2150 2100 2386 2351 
Q 2622 2603 2622 3003 
Q 2622 3278 2509 3514 
Q 2397 3750 2190 3867 
Q 1984 3984 1722 3984 
Q 1563 3984 1313 3925 
L 1313 2163 
z
" transform="scale(0.015625)"/>
       </defs>
       <use xlink:href="#TimesNewRomanPSMT-54"/>
       <use xlink:href="#TimesNewRomanPSMT-54" x="61.083984"/>
       <use xlink:href="#TimesNewRomanPSMT-46" x="122.167969"/>
       <use xlink:href="#TimesNewRomanPSMT-4d" x="177.783203"/>
       <use xlink:href="#TimesNewRomanPSMT-47" x="266.699219"/>
       <use xlink:href="#TimesNewRomanPSMT-50" x="338.916016"/>
       <use xlink:href="#TimesNewRomanPSMT-50" x="394.53125"/>
      </g>
     </g>
    </g>
    <g id="text_3">
     <!-- Types -->
     <g style="fill: #1a1a1a" transform="translate(303.613125 695.41875)scale(0.24 -0.24)">
      <defs>
       <path id="TimesNewRomanPSMT-79" d="M 38 2863 
L 1372 2863 
L 1372 2747 
L 1306 2747 
Q 1166 2747 1095 2686 
Q 1025 2625 1025 2534 
Q 1025 2413 1128 2197 
L 1825 753 
L 2466 2334 
Q 2519 2463 2519 2588 
Q 2519 2644 2497 2672 
Q 2472 2706 2419 2726 
Q 2366 2747 2231 2747 
L 2231 2863 
L 3163 2863 
L 3163 2747 
Q 3047 2734 2984 2696 
Q 2922 2659 2847 2556 
Q 2819 2513 2741 2316 
L 1575 -541 
Q 1406 -956 1132 -1168 
Q 859 -1381 606 -1381 
Q 422 -1381 303 -1275 
Q 184 -1169 184 -1031 
Q 184 -900 270 -820 
Q 356 -741 506 -741 
Q 609 -741 788 -809 
Q 913 -856 944 -856 
Q 1038 -856 1148 -759 
Q 1259 -663 1372 -384 
L 1575 113 
L 547 2272 
Q 500 2369 397 2513 
Q 319 2622 269 2659 
Q 197 2709 38 2747 
L 38 2863 
z
" transform="scale(0.015625)"/>
       <path id="TimesNewRomanPSMT-70" d="M -6 2578 
L 875 2934 
L 994 2934 
L 994 2266 
Q 1216 2644 1439 2795 
Q 1663 2947 1909 2947 
Q 2341 2947 2628 2609 
Q 2981 2197 2981 1534 
Q 2981 794 2556 309 
Q 2206 -88 1675 -88 
Q 1444 -88 1275 -22 
Q 1150 25 994 166 
L 994 -706 
Q 994 -1000 1030 -1079 
Q 1066 -1159 1155 -1206 
Q 1244 -1253 1478 -1253 
L 1478 -1369 
L -22 -1369 
L -22 -1253 
L 56 -1253 
Q 228 -1256 350 -1188 
Q 409 -1153 442 -1076 
Q 475 -1000 475 -688 
L 475 2019 
Q 475 2297 450 2372 
Q 425 2447 370 2484 
Q 316 2522 222 2522 
Q 147 2522 31 2478 
L -6 2578 
z
M 994 2081 
L 994 1013 
Q 994 666 1022 556 
Q 1066 375 1236 237 
Q 1406 100 1666 100 
Q 1978 100 2172 344 
Q 2425 663 2425 1241 
Q 2425 1897 2138 2250 
Q 1938 2494 1663 2494 
Q 1513 2494 1366 2419 
Q 1253 2363 994 2081 
z
" transform="scale(0.015625)"/>
       <path id="TimesNewRomanPSMT-73" d="M 2050 2947 
L 2050 1972 
L 1947 1972 
Q 1828 2431 1642 2597 
Q 1456 2763 1169 2763 
Q 950 2763 815 2647 
Q 681 2531 681 2391 
Q 681 2216 781 2091 
Q 878 1963 1175 1819 
L 1631 1597 
Q 2266 1288 2266 781 
Q 2266 391 1970 151 
Q 1675 -88 1309 -88 
Q 1047 -88 709 6 
Q 606 38 541 38 
Q 469 38 428 -44 
L 325 -44 
L 325 978 
L 428 978 
Q 516 541 762 319 
Q 1009 97 1316 97 
Q 1531 97 1667 223 
Q 1803 350 1803 528 
Q 1803 744 1651 891 
Q 1500 1038 1047 1263 
Q 594 1488 453 1669 
Q 313 1847 313 2119 
Q 313 2472 555 2709 
Q 797 2947 1181 2947 
Q 1350 2947 1591 2875 
Q 1750 2828 1803 2828 
Q 1853 2828 1881 2850 
Q 1909 2872 1947 2947 
L 2050 2947 
z
" transform="scale(0.015625)"/>
      </defs>
      <use xlink:href="#TimesNewRomanPSMT-54"/>
      <use xlink:href="#TimesNewRomanPSMT-79" x="54.083984"/>
      <use xlink:href="#TimesNewRomanPSMT-70" x="104.083984"/>
      <use xlink:href="#TimesNewRomanPSMT-65" x="154.083984"/>
      <use xlink:href="#TimesNewRomanPSMT-73" x="198.46875"/>
     </g>
    </g>
   </g>
   <g id="matplotlib.axis_2">
    <g id="ytick_1">
     <g id="line2d_11">
      <defs>
       <path id="m386bcc8914" d="M 0 0 
L 4 0 
" style="stroke: #1a1a1a; stroke-width: 0.5"/>
      </defs>
      <g>
       <use xlink:href="#m386bcc8914" x="81" y="648" style="fill: #1a1a1a; stroke: #1a1a1a; stroke-width: 0.5"/>
      </g>
     </g>
     <g id="line2d_12">
      <defs>
       <path id="m00321c2580" d="M 0 0 
L -4 0 
" style="stroke: #1a1a1a; stroke-width: 0.5"/>
      </defs>
      <g>
       <use xlink:href="#m00321c2580" x="583.2" y="648" style="fill: #1a1a1a; stroke: #1a1a1a; stroke-width: 0.5"/>
      </g>
     </g>
     <g id="text_4">
      <!-- −2000 -->
      <g style="fill: #1a1a1a" transform="translate(15.46625 653.765625)scale(0.24 -0.24)">
       <defs>
        <path id="TimesNewRomanPSMT-2212" d="M 3484 2000 
L 116 2000 
L 116 2256 
L 3484 2256 
L 3484 2000 
z
" transform="scale(0.015625)"/>
        <path id="TimesNewRomanPSMT-32" d="M 2934 816 
L 2638 0 
L 138 0 
L 138 116 
Q 1241 1122 1691 1759 
Q 2141 2397 2141 2925 
Q 2141 3328 1894 3587 
Q 1647 3847 1303 3847 
Q 991 3847 742 3664 
Q 494 3481 375 3128 
L 259 3128 
Q 338 3706 661 4015 
Q 984 4325 1469 4325 
Q 1984 4325 2329 3994 
Q 2675 3663 2675 3213 
Q 2675 2891 2525 2569 
Q 2294 2063 1775 1497 
Q 997 647 803 472 
L 1909 472 
Q 2247 472 2383 497 
Q 2519 522 2628 598 
Q 2738 675 2819 816 
L 2934 816 
z
" transform="scale(0.015625)"/>
        <path id="TimesNewRomanPSMT-30" d="M 231 2094 
Q 231 2819 450 3342 
Q 669 3866 1031 4122 
Q 1313 4325 1613 4325 
Q 2100 4325 2488 3828 
Q 2972 3213 2972 2159 
Q 2972 1422 2759 906 
Q 2547 391 2217 158 
Q 1888 -75 1581 -75 
Q 975 -75 572 641 
Q 231 1244 231 2094 
z
M 844 2016 
Q 844 1141 1059 588 
Q 1238 122 1591 122 
Q 1759 122 1940 273 
Q 2122 425 2216 781 
Q 2359 1319 2359 2297 
Q 2359 3022 2209 3506 
Q 2097 3866 1919 4016 
Q 1791 4119 1609 4119 
Q 1397 4119 1231 3928 
Q 1006 3669 925 3112 
Q 844 2556 844 2016 
z
" transform="scale(0.015625)"/>
       </defs>
       <use xlink:href="#TimesNewRomanPSMT-2212"/>
       <use xlink:href="#TimesNewRomanPSMT-32" x="56.396484"/>
       <use xlink:href="#TimesNewRomanPSMT-30" x="106.396484"/>
       <use xlink:href="#TimesNewRomanPSMT-30" x="156.396484"/>
       <use xlink:href="#TimesNewRomanPSMT-30" x="206.396484"/>
      </g>
     </g>
    </g>
    <g id="ytick_2">
     <g id="line2d_13">
      <g>
       <use xlink:href="#m386bcc8914" x="81" y="584" style="fill: #1a1a1a; stroke: #1a1a1a; stroke-width: 0.5"/>
      </g>
     </g>
     <g id="line2d_14">
      <g>
       <use xlink:href="#m00321c2580" x="583.2" y="584" style="fill: #1a1a1a; stroke: #1a1a1a; stroke-width: 0.5"/>
      </g>
     </g>
     <g id="text_5">
      <!-- 0 -->
      <g style="fill: #1a1a1a" transform="translate(65 589.765625)scale(0.24 -0.24)">
       <use xlink:href="#TimesNewRomanPSMT-30"/>
      </g>
     </g>
    </g>
    <g id="ytick_3">
     <g id="line2d_15">
      <g>
       <use xlink:href="#m386bcc8914" x="81" y="520" style="fill: #1a1a1a; stroke: #1a1a1a; stroke-width: 0.5"/>
      </g>
     </g>
     <g id="line2d_16">
      <g>
       <use xlink:href="#m00321c2580" x="583.2" y="520" style="fill: #1a1a1a; stroke: #1a1a1a; stroke-width: 0.5"/>
      </g>
     </g>
     <g id="text_6">
      <!-- 2000 -->
      <g style="fill: #1a1a1a" transform="translate(29 525.765625)scale(0.24 -0.24)">
       <use xlink:href="#TimesNewRomanPSMT-32"/>
       <use xlink:href="#TimesNewRomanPSMT-30" x="50"/>
       <use xlink:href="#TimesNewRomanPSMT-30" x="100"/>
       <use xlink:href="#TimesNewRomanPSMT-30" x="150"/>
      </g>
     </g>
    </g>
    <g id="ytick_4">
     <g id="line2d_17">
      <g>
       <use xlink:href="#m386bcc8914" x="81" y="456" style="fill: #1a1a1a; stroke: #1a1a1a; stroke-width: 0.5"/>
      </g>
     </g>
     <g id="line2d_18">
      <g>
       <use xlink:href="#m00321c2580" x="583.2" y="456" style="fill: #1a1a1a; stroke: #1a1a1a; stroke-width: 0.5"/>
      </g>
     </g>
     <g id="text_7">
      <!-- 4000 -->
      <g style="fill: #1a1a1a" transform="translate(29 461.765625)scale(0.24 -0.24)">
       <defs>
        <path id="TimesNewRomanPSMT-34" d="M 2978 1563 
L 2978 1119 
L 2409 1119 
L 2409 0 
L 1894 0 
L 1894 1119 
L 100 1119 
L 100 1519 
L 2066 4325 
L 2409 4325 
L 2409 1563 
L 2978 1563 
z
M 1894 1563 
L 1894 3666 
L 406 1563 
L 1894 1563 
z
" transform="scale(0.015625)"/>
       </defs>
       <use xlink:href="#TimesNewRomanPSMT-34"/>
       <use xlink:href="#TimesNewRomanPSMT-30" x="50"/>
       <use xlink:href="#TimesNewRomanPSMT-30" x="100"/>
       <use xlink:href="#TimesNewRomanPSMT-30" x="150"/>
      </g>
     </g>
    </g>
    <g id="ytick_5">
     <g id="line2d_19">
      <g>
       <use xlink:href="#m386bcc8914" x="81" y="392" style="fill: #1a1a1a; stroke: #1a1a1a; stroke-width: 0.5"/>
      </g>
     </g>
     <g id="line2d_20">
      <g>
       <use xlink:href="#m00321c2580" x="583.2" y="392" style="fill: #1a1a1a; stroke: #1a1a1a; stroke-width: 0.5"/>
      </g>
     </g>
     <g id="text_8">
      <!-- 6000 -->
      <g style="fill: #1a1a1a" transform="translate(29 397.765625)scale(0.24 -0.24)">
       <defs>
        <path id="TimesNewRomanPSMT-36" d="M 2869 4325 
L 2869 4209 
Q 2456 4169 2195 4045 
Q 1934 3922 1679 3669 
Q 1425 3416 1258 3105 
Q 1091 2794 978 2366 
Q 1428 2675 1881 2675 
Q 2316 2675 2634 2325 
Q 2953 1975 2953 1425 
Q 2953 894 2631 456 
Q 2244 -75 1606 -75 
Q 1172 -75 869 213 
Q 275 772 275 1663 
Q 275 2231 503 2743 
Q 731 3256 1154 3653 
Q 1578 4050 1965 4187 
Q 2353 4325 2688 4325 
L 2869 4325 
z
M 925 2138 
Q 869 1716 869 1456 
Q 869 1156 980 804 
Q 1091 453 1309 247 
Q 1469 100 1697 100 
Q 1969 100 2183 356 
Q 2397 613 2397 1088 
Q 2397 1622 2184 2012 
Q 1972 2403 1581 2403 
Q 1463 2403 1327 2353 
Q 1191 2303 925 2138 
z
" transform="scale(0.015625)"/>
       </defs>
       <use xlink:href="#TimesNewRomanPSMT-36"/>
       <use xlink:href="#TimesNewRomanPSMT-30" x="50"/>
       <use xlink:href="#TimesNewRomanPSMT-30" x="100"/>
       <use xlink:href="#TimesNewRomanPSMT-30" x="150"/>
      </g>
     </g>
    </g>
    <g id="ytick_6">
     <g id="line2d_21">
      <g>
       <use xlink:href="#m386bcc8914" x="81" y="328" style="fill: #1a1a1a; stroke: #1a1a1a; stroke-width: 0.5"/>
      </g>
     </g>
     <g id="line2d_22">
      <g>
       <use xlink:href="#m00321c2580" x="583.2" y="328" style="fill: #1a1a1a; stroke: #1a1a1a; stroke-width: 0.5"/>
      </g>
     </g>
     <g id="text_9">
      <!-- 8000 -->
      <g style="fill: #1a1a1a" transform="translate(29 333.765625)scale(0.24 -0.24)">
       <defs>
        <path id="TimesNewRomanPSMT-38" d="M 1228 2134 
Q 725 2547 579 2797 
Q 434 3047 434 3316 
Q 434 3728 753 4026 
Q 1072 4325 1600 4325 
Q 2113 4325 2425 4047 
Q 2738 3769 2738 3413 
Q 2738 3175 2569 2928 
Q 2400 2681 1866 2347 
Q 2416 1922 2594 1678 
Q 2831 1359 2831 1006 
Q 2831 559 2490 242 
Q 2150 -75 1597 -75 
Q 994 -75 656 303 
Q 388 606 388 966 
Q 388 1247 577 1523 
Q 766 1800 1228 2134 
z
M 1719 2469 
Q 2094 2806 2194 3001 
Q 2294 3197 2294 3444 
Q 2294 3772 2109 3958 
Q 1925 4144 1606 4144 
Q 1288 4144 1088 3959 
Q 888 3775 888 3528 
Q 888 3366 970 3203 
Q 1053 3041 1206 2894 
L 1719 2469 
z
M 1375 2016 
Q 1116 1797 991 1539 
Q 866 1281 866 981 
Q 866 578 1086 336 
Q 1306 94 1647 94 
Q 1984 94 2187 284 
Q 2391 475 2391 747 
Q 2391 972 2272 1150 
Q 2050 1481 1375 2016 
z
" transform="scale(0.015625)"/>
       </defs>
       <use xlink:href="#TimesNewRomanPSMT-38"/>
       <use xlink:href="#TimesNewRomanPSMT-30" x="50"/>
       <use xlink:href="#TimesNewRomanPSMT-30" x="100"/>
       <use xlink:href="#TimesNewRomanPSMT-30" x="150"/>
      </g>
     </g>
    </g>
    <g id="ytick_7">
     <g id="line2d_23">
      <g>
       <use xlink:href="#m386bcc8914" x="81" y="264" style="fill: #1a1a1a; stroke: #1a1a1a; stroke-width: 0.5"/>
      </g>
     </g>
     <g id="line2d_24">
      <g>
       <use xlink:href="#m00321c2580" x="583.2" y="264" style="fill: #1a1a1a; stroke: #1a1a1a; stroke-width: 0.5"/>
      </g>
     </g>
     <g id="text_10">
      <!-- 10000 -->
      <g style="fill: #1a1a1a" transform="translate(17 269.765625)scale(0.24 -0.24)">
       <defs>
        <path id="TimesNewRomanPSMT-31" d="M 750 3822 
L 1781 4325 
L 1884 4325 
L 1884 747 
Q 1884 391 1914 303 
Q 1944 216 2037 169 
Q 2131 122 2419 116 
L 2419 0 
L 825 0 
L 825 116 
Q 1125 122 1212 167 
Q 1300 213 1334 289 
Q 1369 366 1369 747 
L 1369 3034 
Q 1369 3497 1338 3628 
Q 1316 3728 1258 3775 
Q 1200 3822 1119 3822 
Q 1003 3822 797 3725 
L 750 3822 
z
" transform="scale(0.015625)"/>
       </defs>
       <use xlink:href="#TimesNewRomanPSMT-31"/>
       <use xlink:href="#TimesNewRomanPSMT-30" x="50"/>
       <use xlink:href="#TimesNewRomanPSMT-30" x="100"/>
       <use xlink:href="#TimesNewRomanPSMT-30" x="150"/>
       <use xlink:href="#TimesNewRomanPSMT-30" x="200"/>
      </g>
     </g>
    </g>
    <g id="ytick_8">
     <g id="line2d_25">
      <g>
       <use xlink:href="#m386bcc8914" x="81" y="200" style="fill: #1a1a1a; stroke: #1a1a1a; stroke-width: 0.5"/>
      </g>
     </g>
     <g id="line2d_26">
      <g>
       <use xlink:href="#m00321c2580" x="583.2" y="200" style="fill: #1a1a1a; stroke: #1a1a1a; stroke-width: 0.5"/>
      </g>
     </g>
     <g id="text_11">
      <!-- 12000 -->
      <g style="fill: #1a1a1a" transform="translate(17 205.765625)scale(0.24 -0.24)">
       <use xlink:href="#TimesNewRomanPSMT-31"/>
       <use xlink:href="#TimesNewRomanPSMT-32" x="50"/>
       <use xlink:href="#TimesNewRomanPSMT-30" x="100"/>
       <use xlink:href="#TimesNewRomanPSMT-30" x="150"/>
       <use xlink:href="#TimesNewRomanPSMT-30" x="200"/>
      </g>
     </g>
    </g>
    <g id="ytick_9">
     <g id="line2d_27">
      <g>
       <use xlink:href="#m386bcc8914" x="81" y="136" style="fill: #1a1a1a; stroke: #1a1a1a; stroke-width: 0.5"/>
      </g>
     </g>
     <g id="line2d_28">
      <g>
       <use xlink:href="#m00321c2580" x="583.2" y="136" style="fill: #1a1a1a; stroke: #1a1a1a; stroke-width: 0.5"/>
      </g>
     </g>
     <g id="text_12">
      <!-- 14000 -->
      <g style="fill: #1a1a1a" transform="translate(17 141.765625)scale(0.24 -0.24)">
       <use xlink:href="#TimesNewRomanPSMT-31"/>
       <use xlink:href="#TimesNewRomanPSMT-34" x="50"/>
       <use xlink:href="#TimesNewRomanPSMT-30" x="100"/>
       <use xlink:href="#TimesNewRomanPSMT-30" x="150"/>
       <use xlink:href="#TimesNewRomanPSMT-30" x="200"/>
      </g>
     </g>
    </g>
    <g id="ytick_10">
     <g id="line2d_29">
      <g>
       <use xlink:href="#m386bcc8914" x="81" y="72" style="fill: #1a1a1a; stroke: #1a1a1a; stroke-width: 0.5"/>
      </g>
     </g>
     <g id="line2d_30">
      <g>
       <use xlink:href="#m00321c2580" x="583.2" y="72" style="fill: #1a1a1a; stroke: #1a1a1a; stroke-width: 0.5"/>
      </g>
     </g>
     <g id="text_13">
      <!-- 16000 -->
      <g style="fill: #1a1a1a" transform="translate(17 77.765625)scale(0.24 -0.24)">
       <use xlink:href="#TimesNewRomanPSMT-31"/>
       <use xlink:href="#TimesNewRomanPSMT-36" x="50"/>
       <use xlink:href="#TimesNewRomanPSMT-30" x="100"/>
       <use xlink:href="#TimesNewRomanPSMT-30" x="150"/>
       <use xlink:href="#TimesNewRomanPSMT-30" x="200"/>
      </g>
     </g>
    </g>
    <g id="text_14">
     <!-- Travel time (s) -->
     <g style="fill: #1a1a1a" transform="translate(5.3325 430.8825)rotate(-90)scale(0.24 -0.24)">
      <defs>
       <path id="TimesNewRomanPSMT-76" d="M 53 2863 
L 1400 2863 
L 1400 2747 
L 1313 2747 
Q 1191 2747 1127 2687 
Q 1063 2628 1063 2528 
Q 1063 2419 1128 2269 
L 1794 688 
L 2463 2328 
Q 2534 2503 2534 2594 
Q 2534 2638 2509 2666 
Q 2475 2713 2422 2730 
Q 2369 2747 2206 2747 
L 2206 2863 
L 3141 2863 
L 3141 2747 
Q 2978 2734 2916 2681 
Q 2806 2588 2719 2369 
L 1703 -88 
L 1575 -88 
L 553 2328 
Q 484 2497 421 2570 
Q 359 2644 263 2694 
Q 209 2722 53 2747 
L 53 2863 
z
" transform="scale(0.015625)"/>
       <path id="TimesNewRomanPSMT-6c" d="M 1184 4444 
L 1184 647 
Q 1184 378 1223 290 
Q 1263 203 1344 158 
Q 1425 113 1647 113 
L 1647 0 
L 244 0 
L 244 113 
Q 441 113 512 153 
Q 584 194 625 287 
Q 666 381 666 647 
L 666 3247 
Q 666 3731 644 3842 
Q 622 3953 573 3993 
Q 525 4034 450 4034 
Q 369 4034 244 3984 
L 191 4094 
L 1044 4444 
L 1184 4444 
z
" transform="scale(0.015625)"/>
       <path id="TimesNewRomanPSMT-20" transform="scale(0.015625)"/>
       <path id="TimesNewRomanPSMT-69" d="M 928 4444 
Q 1059 4444 1151 4351 
Q 1244 4259 1244 4128 
Q 1244 3997 1151 3903 
Q 1059 3809 928 3809 
Q 797 3809 703 3903 
Q 609 3997 609 4128 
Q 609 4259 701 4351 
Q 794 4444 928 4444 
z
M 1188 2947 
L 1188 647 
Q 1188 378 1227 289 
Q 1266 200 1342 156 
Q 1419 113 1622 113 
L 1622 0 
L 231 0 
L 231 113 
Q 441 113 512 153 
Q 584 194 626 287 
Q 669 381 669 647 
L 669 1750 
Q 669 2216 641 2353 
Q 619 2453 572 2492 
Q 525 2531 444 2531 
Q 356 2531 231 2484 
L 188 2597 
L 1050 2947 
L 1188 2947 
z
" transform="scale(0.015625)"/>
       <path id="TimesNewRomanPSMT-6d" d="M 1050 2338 
Q 1363 2650 1419 2697 
Q 1559 2816 1721 2881 
Q 1884 2947 2044 2947 
Q 2313 2947 2506 2790 
Q 2700 2634 2766 2338 
Q 3088 2713 3309 2830 
Q 3531 2947 3766 2947 
Q 3994 2947 4170 2830 
Q 4347 2713 4450 2447 
Q 4519 2266 4519 1878 
L 4519 647 
Q 4519 378 4559 278 
Q 4591 209 4675 161 
Q 4759 113 4950 113 
L 4950 0 
L 3538 0 
L 3538 113 
L 3597 113 
Q 3781 113 3884 184 
Q 3956 234 3988 344 
Q 4000 397 4000 647 
L 4000 1878 
Q 4000 2228 3916 2372 
Q 3794 2572 3525 2572 
Q 3359 2572 3192 2489 
Q 3025 2406 2788 2181 
L 2781 2147 
L 2788 2013 
L 2788 647 
Q 2788 353 2820 281 
Q 2853 209 2943 161 
Q 3034 113 3253 113 
L 3253 0 
L 1806 0 
L 1806 113 
Q 2044 113 2133 169 
Q 2222 225 2256 338 
Q 2272 391 2272 647 
L 2272 1878 
Q 2272 2228 2169 2381 
Q 2031 2581 1784 2581 
Q 1616 2581 1450 2491 
Q 1191 2353 1050 2181 
L 1050 647 
Q 1050 366 1089 281 
Q 1128 197 1204 155 
Q 1281 113 1516 113 
L 1516 0 
L 100 0 
L 100 113 
Q 297 113 375 155 
Q 453 197 493 289 
Q 534 381 534 647 
L 534 1741 
Q 534 2213 506 2350 
Q 484 2453 437 2492 
Q 391 2531 309 2531 
Q 222 2531 100 2484 
L 53 2597 
L 916 2947 
L 1050 2947 
L 1050 2338 
z
" transform="scale(0.015625)"/>
       <path id="TimesNewRomanPSMT-28" d="M 1988 -1253 
L 1988 -1369 
Q 1516 -1131 1200 -813 
Q 750 -359 506 256 
Q 263 872 263 1534 
Q 263 2503 741 3301 
Q 1219 4100 1988 4444 
L 1988 4313 
Q 1603 4100 1356 3731 
Q 1109 3363 987 2797 
Q 866 2231 866 1616 
Q 866 947 969 400 
Q 1050 -31 1165 -292 
Q 1281 -553 1476 -793 
Q 1672 -1034 1988 -1253 
z
" transform="scale(0.015625)"/>
       <path id="TimesNewRomanPSMT-29" d="M 144 4313 
L 144 4444 
Q 619 4209 934 3891 
Q 1381 3434 1625 2820 
Q 1869 2206 1869 1541 
Q 1869 572 1392 -226 
Q 916 -1025 144 -1369 
L 144 -1253 
Q 528 -1038 776 -670 
Q 1025 -303 1145 264 
Q 1266 831 1266 1447 
Q 1266 2113 1163 2663 
Q 1084 3094 967 3353 
Q 850 3613 656 3853 
Q 463 4094 144 4313 
z
" transform="scale(0.015625)"/>
      </defs>
      <use xlink:href="#TimesNewRomanPSMT-54"/>
      <use xlink:href="#TimesNewRomanPSMT-72" x="57.583984"/>
      <use xlink:href="#TimesNewRomanPSMT-61" x="90.884766"/>
      <use xlink:href="#TimesNewRomanPSMT-76" x="135.269531"/>
      <use xlink:href="#TimesNewRomanPSMT-65" x="185.269531"/>
      <use xlink:href="#TimesNewRomanPSMT-6c" x="229.654297"/>
      <use xlink:href="#TimesNewRomanPSMT-20" x="257.4375"/>
      <use xlink:href="#TimesNewRomanPSMT-74" x="282.4375"/>
      <use xlink:href="#TimesNewRomanPSMT-69" x="310.220703"/>
      <use xlink:href="#TimesNewRomanPSMT-6d" x="338.003906"/>
      <use xlink:href="#TimesNewRomanPSMT-65" x="415.787109"/>
      <use xlink:href="#TimesNewRomanPSMT-20" x="460.171875"/>
      <use xlink:href="#TimesNewRomanPSMT-28" x="485.171875"/>
      <use xlink:href="#TimesNewRomanPSMT-73" x="518.472656"/>
      <use xlink:href="#TimesNewRomanPSMT-29" x="557.388672"/>
     </g>
    </g>
   </g>
  </g>
 </g>
 <defs>
  <clipPath id="pb7275ae4ae">
   <rect x="81" y="72" width="502.2" height="576"/>
  </clipPath>
 </defs>
</svg>
